G04*
G04 #@! TF.GenerationSoftware,Altium Limited,Altium Designer,25.8.1 (18)*
G04*
G04 Layer_Color=8388736*
%FSLAX44Y44*%
%MOMM*%
G71*
G04*
G04 #@! TF.SameCoordinates,296E5682-1CD9-4F0E-B59E-B9EDD9CACA41*
G04*
G04*
G04 #@! TF.FilePolarity,Negative*
G04*
G01*
G75*
G04:AMPARAMS|DCode=19|XSize=0.5mm|YSize=0.6mm|CornerRadius=0mm|HoleSize=0mm|Usage=FLASHONLY|Rotation=315.000|XOffset=0mm|YOffset=0mm|HoleType=Round|Shape=Rectangle|*
%AMROTATEDRECTD19*
4,1,4,-0.3889,-0.0354,0.0354,0.3889,0.3889,0.0354,-0.0354,-0.3889,-0.3889,-0.0354,0.0*
%
%ADD19ROTATEDRECTD19*%

G04:AMPARAMS|DCode=20|XSize=0.3mm|YSize=1.2mm|CornerRadius=0mm|HoleSize=0mm|Usage=FLASHONLY|Rotation=315.000|XOffset=0mm|YOffset=0mm|HoleType=Round|Shape=Rectangle|*
%AMROTATEDRECTD20*
4,1,4,-0.5303,-0.3182,0.3182,0.5303,0.5303,0.3182,-0.3182,-0.5303,-0.5303,-0.3182,0.0*
%
%ADD20ROTATEDRECTD20*%

G04:AMPARAMS|DCode=22|XSize=1.2mm|YSize=0.3mm|CornerRadius=0mm|HoleSize=0mm|Usage=FLASHONLY|Rotation=315.000|XOffset=0mm|YOffset=0mm|HoleType=Round|Shape=Rectangle|*
%AMROTATEDRECTD22*
4,1,4,-0.5303,0.3182,-0.3182,0.5303,0.5303,-0.3182,0.3182,-0.5303,-0.5303,0.3182,0.0*
%
%ADD22ROTATEDRECTD22*%

%ADD23R,1.4562X1.2546*%
G04:AMPARAMS|DCode=25|XSize=0.9061mm|YSize=0.8582mm|CornerRadius=0mm|HoleSize=0mm|Usage=FLASHONLY|Rotation=315.000|XOffset=0mm|YOffset=0mm|HoleType=Round|Shape=Rectangle|*
%AMROTATEDRECTD25*
4,1,4,-0.6238,0.0169,-0.0169,0.6238,0.6238,-0.0169,0.0169,-0.6238,-0.6238,0.0169,0.0*
%
%ADD25ROTATEDRECTD25*%

G04:AMPARAMS|DCode=29|XSize=0.5153mm|YSize=0.4725mm|CornerRadius=0mm|HoleSize=0mm|Usage=FLASHONLY|Rotation=45.000|XOffset=0mm|YOffset=0mm|HoleType=Round|Shape=Rectangle|*
%AMROTATEDRECTD29*
4,1,4,-0.0152,-0.3493,-0.3493,-0.0152,0.0152,0.3493,0.3493,0.0152,-0.0152,-0.3493,0.0*
%
%ADD29ROTATEDRECTD29*%

%ADD32R,0.8000X0.8000*%
%ADD33R,0.8000X0.8000*%
%ADD34R,0.9232X0.9632*%
%ADD35R,0.6782X0.4532*%
%ADD36R,0.4532X0.6782*%
%ADD37R,0.9632X0.9232*%
G04:AMPARAMS|DCode=38|XSize=0.9232mm|YSize=0.9632mm|CornerRadius=0mm|HoleSize=0mm|Usage=FLASHONLY|Rotation=315.000|XOffset=0mm|YOffset=0mm|HoleType=Round|Shape=Rectangle|*
%AMROTATEDRECTD38*
4,1,4,-0.6670,-0.0141,0.0141,0.6670,0.6670,0.0141,-0.0141,-0.6670,-0.6670,-0.0141,0.0*
%
%ADD38ROTATEDRECTD38*%

%ADD39R,1.0032X1.2032*%
%ADD40R,3.4532X1.6532*%
%ADD41R,1.1532X1.6532*%
%ADD42R,1.1432X1.6332*%
G04:AMPARAMS|DCode=43|XSize=1.2032mm|YSize=0.9032mm|CornerRadius=0mm|HoleSize=0mm|Usage=FLASHONLY|Rotation=315.000|XOffset=0mm|YOffset=0mm|HoleType=Round|Shape=Rectangle|*
%AMROTATEDRECTD43*
4,1,4,-0.7447,0.1061,-0.1061,0.7447,0.7447,-0.1061,0.1061,-0.7447,-0.7447,0.1061,0.0*
%
%ADD43ROTATEDRECTD43*%

%ADD44R,1.2032X1.0032*%
%ADD45R,2.2032X1.8032*%
%ADD46O,2.2032X1.8032*%
G04:AMPARAMS|DCode=47|XSize=2.2032mm|YSize=1.8032mm|CornerRadius=0mm|HoleSize=0mm|Usage=FLASHONLY|Rotation=135.000|XOffset=0mm|YOffset=0mm|HoleType=Round|Shape=Round|*
%AMOVALD47*
21,1,0.4000,1.8032,0.0000,0.0000,135.0*
1,1,1.8032,0.1414,-0.1414*
1,1,1.8032,-0.1414,0.1414*
%
%ADD47OVALD47*%

%ADD48C,1.7340*%
%ADD49R,1.8032X2.2032*%
%ADD50O,1.8032X2.2032*%
%ADD51O,6.7032X7.2032*%
G04:AMPARAMS|DCode=52|XSize=2.2032mm|YSize=1.8032mm|CornerRadius=0mm|HoleSize=0mm|Usage=FLASHONLY|Rotation=135.000|XOffset=0mm|YOffset=0mm|HoleType=Round|Shape=Rectangle|*
%AMROTATEDRECTD52*
4,1,4,1.4165,-0.1414,0.1414,-1.4165,-1.4165,0.1414,-0.1414,1.4165,1.4165,-0.1414,0.0*
%
%ADD52ROTATEDRECTD52*%

%ADD53R,1.7340X1.7340*%
%ADD54C,0.7112*%
D19*
X303000Y257000D02*
D03*
X295929Y264071D02*
D03*
D20*
X248162Y251332D02*
D03*
X173916Y162943D02*
D03*
X219878Y116982D02*
D03*
X301195Y198299D02*
D03*
X269375Y230119D02*
D03*
X251698Y247796D02*
D03*
X216342Y120517D02*
D03*
X170380Y166479D02*
D03*
X166845Y170015D02*
D03*
X177451Y159408D02*
D03*
X180987Y155872D02*
D03*
X184523Y152337D02*
D03*
X188058Y148801D02*
D03*
X191594Y145266D02*
D03*
X195129Y141730D02*
D03*
X198665Y138195D02*
D03*
X202200Y134659D02*
D03*
X205736Y131124D02*
D03*
X209271Y127588D02*
D03*
X212807Y124053D02*
D03*
X297660Y201834D02*
D03*
X294124Y205370D02*
D03*
X290589Y208906D02*
D03*
X287053Y212441D02*
D03*
X283517Y215977D02*
D03*
X279982Y219512D02*
D03*
X276446Y223048D02*
D03*
X272911Y226583D02*
D03*
X265840Y233654D02*
D03*
X262304Y237190D02*
D03*
X258769Y240725D02*
D03*
X255233Y244261D02*
D03*
D22*
X301195Y170015D02*
D03*
X219878Y251332D02*
D03*
X297660Y166479D02*
D03*
X180987Y212441D02*
D03*
X177451Y208906D02*
D03*
X216342Y247796D02*
D03*
X212807Y244261D02*
D03*
X209271Y240725D02*
D03*
X205736Y237190D02*
D03*
X202200Y233654D02*
D03*
X198665Y230119D02*
D03*
X195129Y226583D02*
D03*
X191594Y223048D02*
D03*
X188058Y219512D02*
D03*
X184523Y215977D02*
D03*
X173916Y205370D02*
D03*
X170380Y201834D02*
D03*
X166845Y198299D02*
D03*
X248162Y116982D02*
D03*
X251698Y120517D02*
D03*
X255233Y124053D02*
D03*
X258769Y127588D02*
D03*
X262304Y131124D02*
D03*
X265840Y134659D02*
D03*
X269375Y138195D02*
D03*
X272911Y141730D02*
D03*
X276446Y145266D02*
D03*
X279982Y148801D02*
D03*
X294124Y162943D02*
D03*
X287053Y155872D02*
D03*
X290589Y159408D02*
D03*
X283517Y152337D02*
D03*
D23*
X28042Y264289D02*
D03*
Y247773D02*
D03*
D25*
X143097Y221293D02*
D03*
X151244Y213146D02*
D03*
D29*
X162112Y225739D02*
D03*
X167466Y231093D02*
D03*
D32*
X225000Y332500D02*
D03*
X244500D02*
D03*
Y317500D02*
D03*
X225000D02*
D03*
D33*
X20000Y227500D02*
D03*
X35000D02*
D03*
D34*
X278873Y301323D02*
D03*
Y311123D02*
D03*
X341000Y323900D02*
D03*
Y314100D02*
D03*
X380067Y168104D02*
D03*
Y158304D02*
D03*
X47000Y259900D02*
D03*
Y250100D02*
D03*
D35*
X311630Y286500D02*
D03*
Y291500D02*
D03*
Y296500D02*
D03*
Y301500D02*
D03*
X288380D02*
D03*
Y296500D02*
D03*
Y291500D02*
D03*
Y286500D02*
D03*
D36*
X305000Y303130D02*
D03*
X300000D02*
D03*
X295000D02*
D03*
Y284870D02*
D03*
X300000D02*
D03*
X305000D02*
D03*
D37*
X306874Y312637D02*
D03*
X297074D02*
D03*
X270100Y351000D02*
D03*
X279900D02*
D03*
X252460Y350866D02*
D03*
X242660D02*
D03*
D38*
X304144Y87120D02*
D03*
X185245Y244441D02*
D03*
X192175Y251370D02*
D03*
X297214Y80190D02*
D03*
D39*
X62516Y230029D02*
D03*
X47516D02*
D03*
D40*
X66814Y196945D02*
D03*
D41*
Y130945D02*
D03*
X43914Y130945D02*
D03*
X89714D02*
D03*
D42*
X66226Y113013D02*
D03*
X49826D02*
D03*
X91800Y110000D02*
D03*
X108200D02*
D03*
D43*
X119645Y310852D02*
D03*
X162072Y268426D02*
D03*
X145808Y337015D02*
D03*
X188235Y294589D02*
D03*
D44*
X225000Y302500D02*
D03*
Y287500D02*
D03*
X244106Y287488D02*
D03*
Y302488D02*
D03*
D45*
X361000Y247200D02*
D03*
X360251Y121315D02*
D03*
D46*
X361000Y272600D02*
D03*
Y298000D02*
D03*
Y323400D02*
D03*
X360251Y146715D02*
D03*
Y172115D02*
D03*
Y197515D02*
D03*
D47*
X312960Y123961D02*
D03*
X277040Y88040D02*
D03*
X295000Y106000D02*
D03*
D48*
X64628Y258771D02*
D03*
X90028Y284171D02*
D03*
X64628Y334971D02*
D03*
X90028D02*
D03*
X64628Y309571D02*
D03*
X90028D02*
D03*
X64628Y284171D02*
D03*
D49*
X114800Y48000D02*
D03*
X293300Y372500D02*
D03*
D50*
X89400Y48000D02*
D03*
X64000D02*
D03*
X38600D02*
D03*
X267900Y372500D02*
D03*
X242500D02*
D03*
X217100D02*
D03*
D51*
X356000Y378000D02*
D03*
X33000Y380000D02*
D03*
X356000Y38000D02*
D03*
D52*
X259079Y70079D02*
D03*
D53*
X90028Y258771D02*
D03*
D54*
X275000Y277000D02*
D03*
X295000Y274000D02*
D03*
X308974Y331637D02*
D03*
X241000Y245000D02*
D03*
X313000Y170000D02*
D03*
X228000Y245000D02*
D03*
X120000Y223000D02*
D03*
X164272Y154378D02*
D03*
X212000Y109000D02*
D03*
X290000Y243000D02*
D03*
X108000Y186000D02*
D03*
X257000Y259000D02*
D03*
X191000Y207000D02*
D03*
X157000Y282000D02*
D03*
X186000Y201000D02*
D03*
X127500Y302500D02*
D03*
X40000Y295000D02*
D03*
X272500Y204000D02*
D03*
X160000Y194000D02*
D03*
X243000Y275000D02*
D03*
X205519Y221000D02*
D03*
X205000Y280000D02*
D03*
X205519Y271647D02*
D03*
X213000Y216000D02*
D03*
X164000Y213000D02*
D03*
X178000Y192000D02*
D03*
M02*
