G04*
G04 #@! TF.GenerationSoftware,Altium Limited,Altium Designer,25.8.1 (18)*
G04*
G04 Layer_Color=16711935*
%FSLAX44Y44*%
%MOMM*%
G71*
G04*
G04 #@! TF.SameCoordinates,296E5682-1CD9-4F0E-B59E-B9EDD9CACA41*
G04*
G04*
G04 #@! TF.FilePolarity,Positive*
G04*
G01*
G75*
%ADD10C,0.1000*%
%ADD11C,0.2000*%
%ADD14C,0.1270*%
D10*
X276123Y300973D02*
Y311473D01*
X281623Y300973D02*
Y311473D01*
X276123Y300973D02*
X281623D01*
X276123Y311473D02*
X281623D01*
X285000Y281500D02*
X315000D01*
X285000D02*
Y306500D01*
X315000D01*
Y281500D02*
Y306500D01*
X296724Y309887D02*
X307224D01*
X296724Y315387D02*
X307224D01*
Y309887D02*
Y315387D01*
X296724Y309887D02*
Y315387D01*
X338250Y324250D02*
X343750D01*
X338250Y313750D02*
X343750D01*
Y324250D01*
X338250Y313750D02*
Y324250D01*
X382817Y157954D02*
Y168454D01*
X377317Y157954D02*
Y168454D01*
X382817D01*
X377317Y157954D02*
X382817D01*
X269750Y348250D02*
Y353750D01*
X280250Y348250D02*
Y353750D01*
X269750D02*
X280250D01*
X269750Y348250D02*
X280250D01*
X183053Y246138D02*
X190478Y253562D01*
X186943Y242249D02*
X194367Y249673D01*
X183053Y246138D02*
X186943Y242249D01*
X190478Y253562D02*
X194367Y249673D01*
X172325Y321105D02*
X182931Y310498D01*
Y294942D02*
Y310498D01*
X161718Y273729D02*
X182931Y294942D01*
X146162Y273729D02*
X161718D01*
X124949Y294942D02*
X146162Y273729D01*
X124949Y294942D02*
Y310498D01*
X146162Y331712D01*
X161718D01*
X172325Y321105D01*
X149697Y335247D02*
X153233Y331712D01*
X147576Y333126D02*
X149697Y335247D01*
X147576Y333126D02*
X148990Y331712D01*
X182931Y302013D02*
X186467Y298478D01*
X184345Y296356D02*
X186467Y298478D01*
X182931Y297771D02*
X184345Y296356D01*
X123534Y309084D02*
X124949Y307670D01*
X121413Y306963D02*
X123534Y309084D01*
X121413Y306963D02*
X124949Y303427D01*
X158748Y273870D02*
X160304Y272315D01*
X158183Y270193D02*
X160304Y272315D01*
X154647Y273729D02*
X158183Y270193D01*
X220500Y303500D02*
X229500D01*
X220500Y286500D02*
X229500D01*
Y303500D01*
X220500Y286500D02*
Y303500D01*
X48026Y106763D02*
X68026D01*
X48026D02*
Y119263D01*
X68026D01*
Y106763D02*
Y119263D01*
X34294Y146425D02*
Y181465D01*
X99334D01*
Y146425D02*
Y181465D01*
X34294Y146425D02*
X99334D01*
X34294Y169325D02*
X57194Y146425D01*
X90000Y116250D02*
X110000D01*
Y103750D02*
Y116250D01*
X90000Y103750D02*
X110000D01*
X90000D02*
Y116250D01*
X252810Y348116D02*
Y353616D01*
X242310Y348116D02*
Y353616D01*
Y348116D02*
X252810D01*
X242310Y353616D02*
X252810D01*
X183149Y342672D02*
X204149Y342672D01*
X183149Y356171D02*
X204149D01*
X183149Y342672D02*
X183149Y356171D01*
X204149Y342672D02*
Y356171D01*
X268016Y401936D02*
X289016Y401936D01*
X268016Y388436D02*
X289016D01*
X289016Y401936D01*
X268016Y388436D02*
Y401936D01*
X219500Y388250D02*
X240500D01*
X219500Y401750D02*
X240500D01*
X219500Y388250D02*
Y401750D01*
X240500Y388250D02*
Y401750D01*
X295022Y81887D02*
X302447Y89312D01*
X298911Y77998D02*
X306336Y85423D01*
X295022Y81887D02*
X298911Y77998D01*
X302447Y89312D02*
X306336Y85423D01*
X44250Y249750D02*
X49750D01*
X44250Y260250D02*
X49750D01*
X44250Y249750D02*
Y260250D01*
X49750Y249750D02*
Y260250D01*
X239606Y286488D02*
Y303488D01*
X248606Y286488D02*
Y303488D01*
X239606Y286488D02*
X248606D01*
X239606Y303488D02*
X248606D01*
X227131Y346384D02*
Y351884D01*
X216631Y346384D02*
X216631Y351884D01*
X227131D01*
X216631Y346384D02*
X227131Y346384D01*
X46516Y225529D02*
Y234529D01*
X63516Y225529D02*
Y234529D01*
X46516D02*
X63516D01*
X46516Y225529D02*
X63516D01*
X320500Y217250D02*
Y230750D01*
X299500Y217250D02*
Y230750D01*
X320500D01*
X299500Y217250D02*
X320500D01*
X242808Y250803D02*
X250233Y243378D01*
X246697Y254692D02*
X254122Y247267D01*
X242808Y250803D02*
X246697Y254692D01*
X250233Y243378D02*
X254122Y247267D01*
X115302Y282652D02*
X124848Y292198D01*
X130152Y267802D02*
X139698Y277348D01*
X115302Y282652D02*
X130152Y267802D01*
X124848Y292198D02*
X139698Y277348D01*
X215732Y123157D02*
X223157Y115732D01*
X211843Y119268D02*
X219268Y111843D01*
X223157Y115732D01*
X211843Y119268D02*
X215732Y123157D01*
X169197Y169692D02*
X176622Y162267D01*
X165308Y165803D02*
X172733Y158378D01*
X176622Y162267D01*
X165308Y165803D02*
X169197Y169692D01*
X220988Y266206D02*
X228413Y258781D01*
X217099Y262316D02*
X224524Y254892D01*
X228413Y258781D01*
X217099Y262316D02*
X220988Y266206D01*
X294592Y165263D02*
X302016Y172687D01*
X298481Y161373D02*
X305905Y168798D01*
X302016Y172687D02*
X305905Y168798D01*
X294592Y165263D02*
X298481Y161373D01*
D11*
X91028Y241071D02*
G03*
X91028Y241071I-1000J0D01*
G01*
D14*
X52328Y246071D02*
X102328D01*
Y347671D01*
X52328D02*
X102328D01*
X52328Y246071D02*
Y347671D01*
M02*
