M48
;Layer_Color=9474304
;FILE_FORMAT=4:4
METRIC,LZ
;TYPE=PLATED
T01F00S00C0.2000
T02F00S00C0.2540
T03F00S00C0.6000
T05F00S00C1.0200
T06F00S00C1.1000
T07F00S00C3.2000
;TYPE=NON_PLATED
T08F00S00C0.6500
%
T01
X00945Y00542222
X00937222Y0055
X00945Y00557778
X00952778Y0055
T02
X008495Y00364
X00801772Y00409378
X007975Y00449
X008155Y00447
X008235Y00456
X008285Y00462
X00843019Y00476
X008505Y00471
X008655Y005
X008785
X008945Y00514
X009075Y005275
X00924275Y00520512
X0094Y0052
X009125Y0050085
X0091Y00459
X009505Y00425
X009775Y00563
X009525Y00603
X009415Y0065
X008375
X008425Y00535
X00843019Y00526647
X008805Y0053
X007945Y00537
X008015Y00468
X00760583Y00455281
X007575Y00478
X007385Y00429
X00765Y005575
X006775Y0055
T03
X007568Y002725
X008432
T05
X00702128Y00513771
X00727528
Y00539171
Y00564571
Y00589971
X00702128
Y00564571
Y00539171
T06
X00919579Y00332079
X0093754Y00350039
X009555Y00368
X0097346Y00385961
X00998033Y00414916
Y00440316
Y00465716
Y00491116
X009308Y006275
X009054
X0088
X008546
T07
X009945Y00293
Y00635
X006705
T08
X007711Y003093
X008289
M30
