G04*
G04 #@! TF.GenerationSoftware,Altium Limited,Altium Designer,25.8.1 (18)*
G04*
G04 Layer_Color=16711935*
%FSLAX44Y44*%
%MOMM*%
G71*
G04*
G04 #@! TF.SameCoordinates,296E5682-1CD9-4F0E-B59E-B9EDD9CACA41*
G04*
G04*
G04 #@! TF.FilePolarity,Negative*
G04*
G01*
G75*
G04:AMPARAMS|DCode=29|XSize=0.5153mm|YSize=0.4725mm|CornerRadius=0mm|HoleSize=0mm|Usage=FLASHONLY|Rotation=45.000|XOffset=0mm|YOffset=0mm|HoleType=Round|Shape=Rectangle|*
%AMROTATEDRECTD29*
4,1,4,-0.0152,-0.3493,-0.3493,-0.0152,0.0152,0.3493,0.3493,0.0152,-0.0152,-0.3493,0.0*
%
%ADD29ROTATEDRECTD29*%

%ADD37R,0.9632X0.9232*%
G04:AMPARAMS|DCode=38|XSize=0.9232mm|YSize=0.9632mm|CornerRadius=0mm|HoleSize=0mm|Usage=FLASHONLY|Rotation=315.000|XOffset=0mm|YOffset=0mm|HoleType=Round|Shape=Rectangle|*
%AMROTATEDRECTD38*
4,1,4,-0.6670,-0.0141,0.0141,0.6670,0.6670,0.0141,-0.0141,-0.6670,-0.6670,-0.0141,0.0*
%
%ADD38ROTATEDRECTD38*%

%ADD45R,2.2032X1.8032*%
%ADD46O,2.2032X1.8032*%
G04:AMPARAMS|DCode=47|XSize=2.2032mm|YSize=1.8032mm|CornerRadius=0mm|HoleSize=0mm|Usage=FLASHONLY|Rotation=135.000|XOffset=0mm|YOffset=0mm|HoleType=Round|Shape=Round|*
%AMOVALD47*
21,1,0.4000,1.8032,0.0000,0.0000,135.0*
1,1,1.8032,0.1414,-0.1414*
1,1,1.8032,-0.1414,0.1414*
%
%ADD47OVALD47*%

%ADD48C,1.7340*%
%ADD49R,1.8032X2.2032*%
%ADD50O,1.8032X2.2032*%
%ADD51O,6.7032X7.2032*%
G04:AMPARAMS|DCode=52|XSize=2.2032mm|YSize=1.8032mm|CornerRadius=0mm|HoleSize=0mm|Usage=FLASHONLY|Rotation=135.000|XOffset=0mm|YOffset=0mm|HoleType=Round|Shape=Rectangle|*
%AMROTATEDRECTD52*
4,1,4,1.4165,-0.1414,0.1414,-1.4165,-1.4165,0.1414,-0.1414,1.4165,1.4165,-0.1414,0.0*
%
%ADD52ROTATEDRECTD52*%

%ADD53R,1.7340X1.7340*%
%ADD54C,0.7112*%
G04:AMPARAMS|DCode=73|XSize=0.5mm|YSize=0.6mm|CornerRadius=0mm|HoleSize=0mm|Usage=FLASHONLY|Rotation=225.000|XOffset=0mm|YOffset=0mm|HoleType=Round|Shape=Rectangle|*
%AMROTATEDRECTD73*
4,1,4,-0.0354,0.3889,0.3889,-0.0354,0.0354,-0.3889,-0.3889,0.0354,-0.0354,0.3889,0.0*
%
%ADD73ROTATEDRECTD73*%

%ADD77R,1.4032X1.6532*%
G04:AMPARAMS|DCode=78|XSize=0.9232mm|YSize=0.9632mm|CornerRadius=0mm|HoleSize=0mm|Usage=FLASHONLY|Rotation=45.000|XOffset=0mm|YOffset=0mm|HoleType=Round|Shape=Rectangle|*
%AMROTATEDRECTD78*
4,1,4,0.0141,-0.6670,-0.6670,0.0141,-0.0141,0.6670,0.6670,-0.0141,0.0141,-0.6670,0.0*
%
%ADD78ROTATEDRECTD78*%

G04:AMPARAMS|DCode=79|XSize=1.6532mm|YSize=1.4032mm|CornerRadius=0mm|HoleSize=0mm|Usage=FLASHONLY|Rotation=225.000|XOffset=0mm|YOffset=0mm|HoleType=Round|Shape=Rectangle|*
%AMROTATEDRECTD79*
4,1,4,0.0884,1.0806,1.0806,0.0884,-0.0884,-1.0806,-1.0806,-0.0884,0.0884,1.0806,0.0*
%
%ADD79ROTATEDRECTD79*%

D29*
X312990Y160111D02*
D03*
X307636Y154757D02*
D03*
X179469Y215842D02*
D03*
X174116Y210488D02*
D03*
D37*
X226781Y349134D02*
D03*
X216981D02*
D03*
D38*
X303713Y170495D02*
D03*
X296784Y163565D02*
D03*
D45*
X361000Y247200D02*
D03*
X360251Y121315D02*
D03*
D46*
X361000Y272600D02*
D03*
Y298000D02*
D03*
Y323400D02*
D03*
X360251Y146715D02*
D03*
Y172115D02*
D03*
Y197515D02*
D03*
D47*
X312960Y123961D02*
D03*
X277040Y88040D02*
D03*
X295000Y106000D02*
D03*
D48*
X64628Y258771D02*
D03*
X90028Y284171D02*
D03*
X64628Y334971D02*
D03*
X90028D02*
D03*
X64628Y309571D02*
D03*
X90028D02*
D03*
X64628Y284171D02*
D03*
D49*
X114800Y48000D02*
D03*
X293300Y372500D02*
D03*
D50*
X89400Y48000D02*
D03*
X64000D02*
D03*
X38600D02*
D03*
X267900Y372500D02*
D03*
X242500D02*
D03*
X217100D02*
D03*
D51*
X356000Y378000D02*
D03*
X33000Y380000D02*
D03*
X356000Y38000D02*
D03*
D52*
X259079Y70079D02*
D03*
D53*
X90028Y258771D02*
D03*
D54*
X275000Y277000D02*
D03*
X295000Y274000D02*
D03*
X308974Y331637D02*
D03*
X241000Y245000D02*
D03*
X313000Y170000D02*
D03*
X228000Y245000D02*
D03*
X120000Y223000D02*
D03*
X164272Y154378D02*
D03*
X212000Y109000D02*
D03*
X290000Y243000D02*
D03*
X108000Y186000D02*
D03*
X257000Y259000D02*
D03*
X191000Y207000D02*
D03*
X157000Y282000D02*
D03*
X186000Y201000D02*
D03*
X127500Y302500D02*
D03*
X40000Y295000D02*
D03*
X272500Y204000D02*
D03*
X160000Y194000D02*
D03*
X243000Y275000D02*
D03*
X205519Y221000D02*
D03*
X205000Y280000D02*
D03*
X205519Y271647D02*
D03*
X213000Y216000D02*
D03*
X164000Y213000D02*
D03*
X178000Y192000D02*
D03*
D73*
X282623Y271639D02*
D03*
X275551Y264568D02*
D03*
D77*
X288516Y395186D02*
D03*
X220000Y395000D02*
D03*
X183649Y349422D02*
D03*
X320000Y224000D02*
D03*
X203649Y349422D02*
D03*
X268516Y395186D02*
D03*
X240000Y395000D02*
D03*
X300000Y224000D02*
D03*
D78*
X245000Y252500D02*
D03*
X226221Y257084D02*
D03*
X174430Y160570D02*
D03*
X220965Y114035D02*
D03*
X219291Y264014D02*
D03*
X251930Y245570D02*
D03*
X214035Y120965D02*
D03*
X167500Y167500D02*
D03*
D79*
X134571Y272929D02*
D03*
X120429Y287071D02*
D03*
M02*
