M48
;Layer_Color=9474304
;FILE_FORMAT=4:4
METRIC,TZ
;TYPE=PLATED
T01F00S00C0.3000
T02F00S00C1.0200
T03F00S00C1.1000
T04F00S00C3.2000
%
T01
X849500Y364000
X801772Y409378
X797500Y449000
X815500Y447000
X823500Y456000
X828500Y462000
X843019Y476000
X850500Y471000
X865500Y500000
X878500
X894500Y514000
X880500Y530000
X912500Y532000
X932500Y529000
X927500Y498000
X910000Y459000
X950500Y425000
X946474Y586637
X842500Y535000
X843019Y526647
X794500Y537000
X801500Y468000
X757500Y478000
X745500Y441000
X765000Y557500
X677500Y550000
T02
X702128Y513771
X727528
Y539171
Y564571
Y589971
X702128
Y564571
Y539171
T03
X676100Y303000
X701500
X726900
X752300
X896579Y325079
X914539Y343040
X932500Y361000
X950461Y378960
X997751Y376315
Y401715
Y427115
Y452515
X998500Y502200
Y527600
Y553000
Y578400
X930800Y627500
X905400
X880000
X854600
T04
X993500Y293000
Y633000
X670500Y635000
M30
