G04*
G04 #@! TF.GenerationSoftware,Altium Limited,Altium Designer,25.8.1 (18)*
G04*
G04 Layer_Color=32896*
%FSLAX44Y44*%
%MOMM*%
G71*
G04*
G04 #@! TF.SameCoordinates,296E5682-1CD9-4F0E-B59E-B9EDD9CACA41*
G04*
G04*
G04 #@! TF.FilePolarity,Positive*
G04*
G01*
G75*
%ADD11C,0.2000*%
%ADD13C,0.2540*%
G36*
X61740Y81786D02*
X61944Y81455D01*
X62164Y81141D01*
X62384Y80890D01*
X62573Y80685D01*
X62746Y80528D01*
X62809Y80465D01*
X62856Y80418D01*
X62887Y80402D01*
X62903Y80386D01*
X63249Y80135D01*
X63579Y79915D01*
X63878Y79742D01*
X64145Y79616D01*
X64365Y79522D01*
X64523Y79443D01*
X64585Y79427D01*
X64633Y79412D01*
X64648Y79396D01*
X64664D01*
Y77509D01*
X64098Y77729D01*
X63595Y77965D01*
X63359Y78091D01*
X63139Y78232D01*
X62934Y78358D01*
X62746Y78484D01*
X62573Y78610D01*
X62416Y78720D01*
X62290Y78814D01*
X62180Y78909D01*
X62085Y78987D01*
X62023Y79034D01*
X61991Y79066D01*
X61975Y79081D01*
Y71204D01*
X59884D01*
Y82147D01*
X61582D01*
X61740Y81786D01*
D02*
G37*
G36*
X72101Y71204D02*
X69727D01*
X65859Y82084D01*
X68202D01*
X70859Y74034D01*
X73626Y82084D01*
X76000D01*
X72101Y71204D01*
D02*
G37*
G36*
X56315D02*
X54224D01*
Y73295D01*
X56315D01*
Y71204D01*
D02*
G37*
G36*
X49287Y82132D02*
X49555Y82100D01*
X49822Y82037D01*
X50058Y81974D01*
X50278Y81880D01*
X50482Y81786D01*
X50655Y81691D01*
X50828Y81581D01*
X50970Y81471D01*
X51111Y81377D01*
X51221Y81283D01*
X51300Y81188D01*
X51378Y81125D01*
X51426Y81062D01*
X51457Y81031D01*
X51473Y81015D01*
X51661Y80748D01*
X51819Y80434D01*
X51960Y80103D01*
X52086Y79757D01*
X52180Y79396D01*
X52275Y79019D01*
X52337Y78657D01*
X52400Y78295D01*
X52432Y77949D01*
X52463Y77635D01*
X52495Y77336D01*
X52510Y77085D01*
X52526Y76880D01*
Y76723D01*
Y76660D01*
Y76613D01*
Y76597D01*
Y76582D01*
X52510Y76016D01*
X52479Y75497D01*
X52432Y75009D01*
X52369Y74569D01*
X52306Y74176D01*
X52228Y73814D01*
X52133Y73500D01*
X52039Y73217D01*
X51960Y72981D01*
X51866Y72761D01*
X51787Y72588D01*
X51709Y72446D01*
X51661Y72352D01*
X51614Y72274D01*
X51583Y72226D01*
X51567Y72211D01*
X51378Y71990D01*
X51174Y71818D01*
X50970Y71645D01*
X50750Y71519D01*
X50545Y71393D01*
X50325Y71299D01*
X50121Y71220D01*
X49916Y71157D01*
X49728Y71094D01*
X49555Y71063D01*
X49397Y71031D01*
X49272Y71016D01*
X49162D01*
X49067Y71000D01*
X49004D01*
X48721Y71016D01*
X48454Y71047D01*
X48187Y71110D01*
X47951Y71173D01*
X47731Y71252D01*
X47526Y71346D01*
X47353Y71456D01*
X47181Y71566D01*
X47039Y71660D01*
X46898Y71770D01*
X46787Y71865D01*
X46693Y71943D01*
X46630Y72006D01*
X46583Y72069D01*
X46552Y72101D01*
X46536Y72116D01*
X46347Y72384D01*
X46190Y72698D01*
X46033Y73028D01*
X45923Y73390D01*
X45813Y73751D01*
X45734Y74113D01*
X45655Y74490D01*
X45592Y74852D01*
X45561Y75198D01*
X45530Y75512D01*
X45498Y75811D01*
X45483Y76063D01*
X45467Y76267D01*
Y76424D01*
Y76487D01*
Y76534D01*
Y76550D01*
Y76566D01*
X45483Y77132D01*
X45514Y77651D01*
X45561Y78122D01*
X45640Y78563D01*
X45718Y78971D01*
X45797Y79333D01*
X45907Y79663D01*
X46001Y79946D01*
X46096Y80213D01*
X46190Y80418D01*
X46284Y80606D01*
X46363Y80764D01*
X46441Y80874D01*
X46489Y80952D01*
X46520Y81000D01*
X46536Y81015D01*
X46709Y81220D01*
X46898Y81393D01*
X47102Y81534D01*
X47306Y81676D01*
X47511Y81786D01*
X47715Y81864D01*
X47904Y81943D01*
X48108Y82006D01*
X48297Y82053D01*
X48454Y82084D01*
X48611Y82116D01*
X48737Y82132D01*
X48847Y82147D01*
X49004D01*
X49287Y82132D01*
D02*
G37*
G36*
X64214Y138684D02*
X64510Y138647D01*
X64788Y138573D01*
X65066Y138481D01*
X65547Y138240D01*
X65770Y138092D01*
X65973Y137962D01*
X66158Y137832D01*
X66325Y137684D01*
X66455Y137573D01*
X66566Y137462D01*
X66658Y137351D01*
X66732Y137277D01*
X66769Y137240D01*
X66788Y137221D01*
Y138499D01*
X69047D01*
Y129204D01*
X66584D01*
Y133703D01*
Y134166D01*
X66547Y134573D01*
X66529Y134888D01*
X66492Y135166D01*
X66455Y135351D01*
X66436Y135499D01*
X66399Y135592D01*
Y135610D01*
X66306Y135814D01*
X66214Y135999D01*
X66103Y136147D01*
X65992Y136277D01*
X65899Y136370D01*
X65825Y136444D01*
X65770Y136481D01*
X65751Y136499D01*
X65566Y136610D01*
X65399Y136684D01*
X65233Y136740D01*
X65066Y136777D01*
X64936Y136796D01*
X64825Y136814D01*
X64566D01*
X64418Y136777D01*
X64288Y136758D01*
X64177Y136721D01*
X64103Y136684D01*
X64047Y136647D01*
X64010Y136629D01*
X63992Y136610D01*
X63899Y136536D01*
X63807Y136444D01*
X63677Y136240D01*
X63640Y136166D01*
X63603Y136092D01*
X63584Y136036D01*
Y136018D01*
X63566Y135944D01*
X63529Y135833D01*
X63492Y135573D01*
X63473Y135296D01*
X63455Y134999D01*
X63436Y134722D01*
Y134500D01*
Y134407D01*
Y134333D01*
Y134296D01*
Y134277D01*
Y129204D01*
X60974D01*
Y133648D01*
Y134111D01*
X60937Y134500D01*
X60918Y134833D01*
X60881Y135111D01*
X60844Y135314D01*
X60826Y135462D01*
X60788Y135536D01*
Y135573D01*
X60696Y135796D01*
X60603Y135981D01*
X60492Y136129D01*
X60381Y136258D01*
X60289Y136370D01*
X60215Y136444D01*
X60159Y136481D01*
X60140Y136499D01*
X59974Y136610D01*
X59789Y136684D01*
X59622Y136740D01*
X59474Y136777D01*
X59344Y136796D01*
X59252Y136814D01*
X59159D01*
X58918Y136796D01*
X58696Y136740D01*
X58511Y136647D01*
X58363Y136555D01*
X58252Y136444D01*
X58178Y136370D01*
X58122Y136296D01*
X58104Y136277D01*
X58067Y136185D01*
X58011Y136092D01*
X57955Y135833D01*
X57900Y135536D01*
X57881Y135240D01*
X57863Y134962D01*
X57844Y134722D01*
Y134629D01*
Y134555D01*
Y134518D01*
Y134500D01*
Y129204D01*
X55382D01*
Y135129D01*
X55400Y135592D01*
X55419Y135999D01*
X55456Y136333D01*
X55511Y136592D01*
X55567Y136796D01*
X55604Y136944D01*
X55622Y137036D01*
X55641Y137055D01*
X55789Y137351D01*
X55956Y137592D01*
X56141Y137795D01*
X56308Y137981D01*
X56474Y138110D01*
X56604Y138203D01*
X56678Y138258D01*
X56715Y138277D01*
X56993Y138425D01*
X57289Y138518D01*
X57567Y138592D01*
X57844Y138647D01*
X58085Y138684D01*
X58270Y138703D01*
X58437D01*
X58733Y138684D01*
X59011Y138647D01*
X59270Y138592D01*
X59492Y138518D01*
X59678Y138443D01*
X59826Y138388D01*
X59918Y138351D01*
X59955Y138332D01*
X60215Y138184D01*
X60455Y137999D01*
X60677Y137814D01*
X60881Y137629D01*
X61048Y137462D01*
X61159Y137332D01*
X61233Y137240D01*
X61270Y137203D01*
X61437Y137462D01*
X61622Y137703D01*
X61807Y137888D01*
X61974Y138055D01*
X62122Y138184D01*
X62251Y138258D01*
X62325Y138314D01*
X62362Y138332D01*
X62622Y138462D01*
X62881Y138555D01*
X63140Y138610D01*
X63381Y138666D01*
X63584Y138684D01*
X63751Y138703D01*
X63899D01*
X64214Y138684D01*
D02*
G37*
G36*
X41883Y140351D02*
Y138499D01*
X43013D01*
Y136536D01*
X41883D01*
Y132481D01*
Y132240D01*
Y132037D01*
Y131833D01*
X41865Y131666D01*
Y131370D01*
X41846Y131129D01*
X41828Y130944D01*
Y130833D01*
X41809Y130759D01*
Y130741D01*
X41772Y130537D01*
X41716Y130352D01*
X41661Y130185D01*
X41605Y130056D01*
X41550Y129944D01*
X41513Y129870D01*
X41494Y129815D01*
X41476Y129796D01*
X41365Y129667D01*
X41235Y129556D01*
X40976Y129370D01*
X40865Y129315D01*
X40772Y129259D01*
X40698Y129241D01*
X40679Y129222D01*
X40476Y129148D01*
X40272Y129093D01*
X40068Y129056D01*
X39883Y129037D01*
X39717Y129018D01*
X39587Y129000D01*
X39476D01*
X39087Y129018D01*
X38717Y129056D01*
X38383Y129111D01*
X38106Y129185D01*
X37865Y129241D01*
X37680Y129296D01*
X37569Y129333D01*
X37550Y129352D01*
X37532D01*
X37754Y131259D01*
X37976Y131185D01*
X38180Y131129D01*
X38346Y131092D01*
X38495Y131074D01*
X38606Y131055D01*
X38680Y131037D01*
X38754D01*
X38920Y131055D01*
X39050Y131092D01*
X39124Y131129D01*
X39161Y131148D01*
X39272Y131259D01*
X39328Y131352D01*
X39365Y131426D01*
X39383Y131463D01*
Y131500D01*
X39402Y131574D01*
Y131741D01*
Y131963D01*
X39420Y132185D01*
Y132407D01*
Y132592D01*
Y132666D01*
Y132722D01*
Y132759D01*
Y132777D01*
Y136536D01*
X37735D01*
Y138499D01*
X39420D01*
Y141795D01*
X41883Y140351D01*
D02*
G37*
G36*
X75639Y138684D02*
X75954Y138647D01*
X76268Y138573D01*
X76546Y138499D01*
X76824Y138406D01*
X77065Y138295D01*
X77305Y138166D01*
X77509Y138055D01*
X77694Y137925D01*
X77861Y137795D01*
X78009Y137684D01*
X78120Y137592D01*
X78213Y137518D01*
X78287Y137444D01*
X78324Y137407D01*
X78342Y137388D01*
X78546Y137129D01*
X78731Y136851D01*
X78898Y136573D01*
X79046Y136277D01*
X79157Y135962D01*
X79250Y135666D01*
X79398Y135092D01*
X79453Y134814D01*
X79490Y134573D01*
X79509Y134351D01*
X79527Y134166D01*
X79546Y134000D01*
Y133870D01*
Y133796D01*
Y133777D01*
X79527Y133426D01*
X79509Y133074D01*
X79453Y132759D01*
X79398Y132463D01*
X79342Y132166D01*
X79250Y131907D01*
X79176Y131666D01*
X79083Y131444D01*
X79009Y131241D01*
X78916Y131074D01*
X78842Y130926D01*
X78787Y130796D01*
X78713Y130703D01*
X78675Y130630D01*
X78657Y130592D01*
X78639Y130574D01*
X78398Y130296D01*
X78157Y130056D01*
X77879Y129852D01*
X77583Y129667D01*
X77287Y129518D01*
X76990Y129389D01*
X76694Y129278D01*
X76398Y129204D01*
X76139Y129130D01*
X75880Y129093D01*
X75639Y129056D01*
X75435Y129018D01*
X75269D01*
X75157Y129000D01*
X75046D01*
X74509Y129037D01*
X74009Y129111D01*
X73583Y129222D01*
X73213Y129352D01*
X73046Y129426D01*
X72917Y129481D01*
X72787Y129537D01*
X72695Y129593D01*
X72621Y129648D01*
X72547Y129667D01*
X72528Y129704D01*
X72509D01*
X72158Y130000D01*
X71843Y130315D01*
X71584Y130667D01*
X71380Y131000D01*
X71213Y131296D01*
X71158Y131426D01*
X71102Y131537D01*
X71065Y131629D01*
X71028Y131703D01*
X71010Y131741D01*
Y131759D01*
X73454Y132166D01*
X73546Y131926D01*
X73639Y131703D01*
X73732Y131537D01*
X73843Y131389D01*
X73917Y131278D01*
X73991Y131203D01*
X74046Y131166D01*
X74065Y131148D01*
X74213Y131037D01*
X74380Y130963D01*
X74546Y130907D01*
X74694Y130870D01*
X74824Y130852D01*
X74935Y130833D01*
X75028D01*
X75324Y130852D01*
X75602Y130926D01*
X75861Y131018D01*
X76065Y131129D01*
X76231Y131241D01*
X76342Y131333D01*
X76435Y131407D01*
X76453Y131426D01*
X76639Y131666D01*
X76768Y131944D01*
X76879Y132240D01*
X76954Y132500D01*
X76990Y132759D01*
X77009Y132944D01*
X77028Y133018D01*
Y133074D01*
Y133111D01*
Y133129D01*
X70880D01*
Y133648D01*
X70917Y134111D01*
X70973Y134555D01*
X71047Y134962D01*
X71139Y135351D01*
X71232Y135684D01*
X71343Y135999D01*
X71454Y136277D01*
X71565Y136518D01*
X71676Y136740D01*
X71769Y136907D01*
X71861Y137055D01*
X71936Y137166D01*
X71991Y137258D01*
X72028Y137296D01*
X72047Y137314D01*
X72269Y137555D01*
X72528Y137777D01*
X72787Y137962D01*
X73046Y138110D01*
X73324Y138258D01*
X73602Y138369D01*
X73861Y138462D01*
X74120Y138536D01*
X74361Y138592D01*
X74583Y138629D01*
X74787Y138666D01*
X74954Y138684D01*
X75102Y138703D01*
X75306D01*
X75639Y138684D01*
D02*
G37*
G36*
X32847D02*
X33162Y138647D01*
X33477Y138573D01*
X33754Y138499D01*
X34032Y138406D01*
X34273Y138295D01*
X34513Y138166D01*
X34717Y138055D01*
X34902Y137925D01*
X35069Y137795D01*
X35217Y137684D01*
X35328Y137592D01*
X35421Y137518D01*
X35495Y137444D01*
X35532Y137407D01*
X35550Y137388D01*
X35754Y137129D01*
X35939Y136851D01*
X36106Y136573D01*
X36254Y136277D01*
X36365Y135962D01*
X36458Y135666D01*
X36606Y135092D01*
X36661Y134814D01*
X36698Y134573D01*
X36717Y134351D01*
X36735Y134166D01*
X36754Y134000D01*
Y133870D01*
Y133796D01*
Y133777D01*
X36735Y133426D01*
X36717Y133074D01*
X36661Y132759D01*
X36606Y132463D01*
X36550Y132166D01*
X36458Y131907D01*
X36384Y131666D01*
X36291Y131444D01*
X36217Y131241D01*
X36124Y131074D01*
X36050Y130926D01*
X35995Y130796D01*
X35921Y130703D01*
X35884Y130630D01*
X35865Y130592D01*
X35847Y130574D01*
X35606Y130296D01*
X35365Y130056D01*
X35087Y129852D01*
X34791Y129667D01*
X34495Y129518D01*
X34199Y129389D01*
X33902Y129278D01*
X33606Y129204D01*
X33347Y129130D01*
X33088Y129093D01*
X32847Y129056D01*
X32643Y129018D01*
X32477D01*
X32366Y129000D01*
X32254D01*
X31717Y129037D01*
X31218Y129111D01*
X30792Y129222D01*
X30421Y129352D01*
X30255Y129426D01*
X30125Y129481D01*
X29995Y129537D01*
X29903Y129593D01*
X29829Y129648D01*
X29755Y129667D01*
X29736Y129704D01*
X29718D01*
X29366Y130000D01*
X29051Y130315D01*
X28792Y130667D01*
X28588Y131000D01*
X28421Y131296D01*
X28366Y131426D01*
X28310Y131537D01*
X28273Y131629D01*
X28236Y131703D01*
X28218Y131741D01*
Y131759D01*
X30662Y132166D01*
X30755Y131926D01*
X30847Y131703D01*
X30940Y131537D01*
X31051Y131389D01*
X31125Y131278D01*
X31199Y131203D01*
X31254Y131166D01*
X31273Y131148D01*
X31421Y131037D01*
X31588Y130963D01*
X31755Y130907D01*
X31903Y130870D01*
X32032Y130852D01*
X32143Y130833D01*
X32236D01*
X32532Y130852D01*
X32810Y130926D01*
X33069Y131018D01*
X33273Y131129D01*
X33440Y131241D01*
X33551Y131333D01*
X33643Y131407D01*
X33662Y131426D01*
X33847Y131666D01*
X33977Y131944D01*
X34088Y132240D01*
X34162Y132500D01*
X34199Y132759D01*
X34217Y132944D01*
X34236Y133018D01*
Y133074D01*
Y133111D01*
Y133129D01*
X28088D01*
Y133648D01*
X28125Y134111D01*
X28181Y134555D01*
X28255Y134962D01*
X28347Y135351D01*
X28440Y135684D01*
X28551Y135999D01*
X28662Y136277D01*
X28773Y136518D01*
X28884Y136740D01*
X28977Y136907D01*
X29070Y137055D01*
X29144Y137166D01*
X29199Y137258D01*
X29236Y137296D01*
X29255Y137314D01*
X29477Y137555D01*
X29736Y137777D01*
X29995Y137962D01*
X30255Y138110D01*
X30532Y138258D01*
X30810Y138369D01*
X31069Y138462D01*
X31329Y138536D01*
X31569Y138592D01*
X31792Y138629D01*
X31995Y138666D01*
X32162Y138684D01*
X32310Y138703D01*
X32514D01*
X32847Y138684D01*
D02*
G37*
G36*
X91730Y129204D02*
X89137D01*
Y134555D01*
X88304D01*
X88045Y134537D01*
X87823Y134518D01*
X87638Y134481D01*
X87489Y134462D01*
X87397Y134425D01*
X87341Y134407D01*
X87323D01*
X87175Y134333D01*
X87027Y134259D01*
X86897Y134166D01*
X86767Y134092D01*
X86675Y134000D01*
X86601Y133925D01*
X86564Y133888D01*
X86545Y133870D01*
X86471Y133777D01*
X86378Y133685D01*
X86175Y133407D01*
X85953Y133111D01*
X85712Y132777D01*
X85508Y132481D01*
X85416Y132333D01*
X85342Y132222D01*
X85267Y132129D01*
X85212Y132055D01*
X85193Y132000D01*
X85175Y131981D01*
X83323Y129204D01*
X80212D01*
X81786Y131703D01*
X81953Y131963D01*
X82120Y132222D01*
X82268Y132444D01*
X82416Y132648D01*
X82545Y132833D01*
X82657Y133018D01*
X82879Y133296D01*
X83046Y133518D01*
X83157Y133666D01*
X83249Y133759D01*
X83268Y133777D01*
X83471Y134000D01*
X83712Y134203D01*
X83934Y134370D01*
X84156Y134537D01*
X84342Y134666D01*
X84490Y134759D01*
X84601Y134833D01*
X84619Y134851D01*
X84638D01*
X84323Y134907D01*
X84045Y134981D01*
X83786Y135055D01*
X83527Y135147D01*
X83305Y135240D01*
X83101Y135333D01*
X82897Y135425D01*
X82731Y135536D01*
X82583Y135629D01*
X82453Y135722D01*
X82342Y135814D01*
X82268Y135888D01*
X82194Y135944D01*
X82138Y135999D01*
X82120Y136018D01*
X82101Y136036D01*
X81953Y136222D01*
X81823Y136407D01*
X81601Y136814D01*
X81453Y137203D01*
X81360Y137592D01*
X81286Y137925D01*
X81268Y138055D01*
Y138184D01*
X81249Y138277D01*
Y138369D01*
Y138406D01*
Y138425D01*
X81268Y138832D01*
X81342Y139221D01*
X81434Y139555D01*
X81527Y139851D01*
X81638Y140091D01*
X81731Y140277D01*
X81768Y140332D01*
X81805Y140388D01*
X81823Y140406D01*
Y140425D01*
X82046Y140739D01*
X82286Y140999D01*
X82527Y141202D01*
X82768Y141388D01*
X82990Y141499D01*
X83157Y141591D01*
X83268Y141647D01*
X83286Y141665D01*
X83305D01*
X83490Y141721D01*
X83694Y141777D01*
X84156Y141869D01*
X84656Y141925D01*
X85138Y141980D01*
X85379D01*
X85582Y141999D01*
X85786D01*
X85953Y142017D01*
X91730D01*
Y129204D01*
D02*
G37*
G36*
X49234Y138684D02*
X49697Y138610D01*
X50123Y138518D01*
X50493Y138406D01*
X50641Y138332D01*
X50789Y138277D01*
X50919Y138240D01*
X51012Y138184D01*
X51104Y138147D01*
X51160Y138110D01*
X51197Y138092D01*
X51215D01*
X51604Y137832D01*
X51938Y137555D01*
X52234Y137258D01*
X52474Y136981D01*
X52660Y136721D01*
X52808Y136518D01*
X52863Y136444D01*
X52882Y136388D01*
X52919Y136351D01*
Y136333D01*
X53123Y135907D01*
X53252Y135481D01*
X53363Y135092D01*
X53437Y134740D01*
X53474Y134425D01*
X53493Y134296D01*
Y134185D01*
X53512Y134111D01*
Y134037D01*
Y134000D01*
Y133981D01*
X53493Y133407D01*
X53419Y132870D01*
X53326Y132407D01*
X53271Y132203D01*
X53215Y132018D01*
X53160Y131852D01*
X53104Y131703D01*
X53049Y131574D01*
X53011Y131463D01*
X52975Y131370D01*
X52937Y131315D01*
X52919Y131278D01*
Y131259D01*
X52660Y130870D01*
X52382Y130537D01*
X52086Y130241D01*
X51808Y130000D01*
X51549Y129815D01*
X51345Y129685D01*
X51271Y129630D01*
X51215Y129593D01*
X51178Y129574D01*
X51160D01*
X50715Y129389D01*
X50290Y129241D01*
X49882Y129148D01*
X49493Y129074D01*
X49179Y129037D01*
X49049Y129018D01*
X48938D01*
X48845Y129000D01*
X48716D01*
X48327Y129018D01*
X47975Y129056D01*
X47623Y129130D01*
X47308Y129222D01*
X46994Y129315D01*
X46716Y129426D01*
X46457Y129556D01*
X46216Y129685D01*
X46012Y129815D01*
X45827Y129944D01*
X45660Y130056D01*
X45531Y130148D01*
X45420Y130241D01*
X45346Y130315D01*
X45309Y130352D01*
X45290Y130370D01*
X45049Y130648D01*
X44846Y130926D01*
X44661Y131203D01*
X44494Y131500D01*
X44364Y131796D01*
X44253Y132092D01*
X44161Y132370D01*
X44086Y132648D01*
X44031Y132888D01*
X43994Y133129D01*
X43957Y133333D01*
X43938Y133518D01*
X43920Y133666D01*
Y133777D01*
Y133851D01*
Y133870D01*
X43938Y134259D01*
X43975Y134629D01*
X44050Y134962D01*
X44124Y135296D01*
X44235Y135592D01*
X44346Y135888D01*
X44475Y136147D01*
X44587Y136388D01*
X44716Y136592D01*
X44846Y136796D01*
X44957Y136944D01*
X45068Y137092D01*
X45142Y137184D01*
X45216Y137277D01*
X45253Y137314D01*
X45272Y137332D01*
X45531Y137573D01*
X45809Y137777D01*
X46086Y137962D01*
X46383Y138129D01*
X46679Y138258D01*
X46957Y138369D01*
X47234Y138462D01*
X47512Y138536D01*
X47753Y138592D01*
X47993Y138629D01*
X48197Y138666D01*
X48382Y138684D01*
X48531Y138703D01*
X48734D01*
X49234Y138684D01*
D02*
G37*
G36*
X69963Y108843D02*
X67575D01*
Y118916D01*
X65057Y108843D01*
X62557D01*
X60039Y118916D01*
X60020Y108843D01*
X57631D01*
Y121656D01*
X61520D01*
X63797Y112898D01*
X66094Y121656D01*
X69963D01*
Y108843D01*
D02*
G37*
G36*
X55039Y114805D02*
Y114416D01*
X55021Y114046D01*
Y113694D01*
X55002Y113379D01*
X54984Y113083D01*
X54965Y112824D01*
X54946Y112583D01*
X54910Y112361D01*
X54891Y112176D01*
X54872Y112009D01*
X54854Y111861D01*
X54835Y111750D01*
X54817Y111657D01*
Y111602D01*
X54798Y111565D01*
Y111546D01*
X54706Y111268D01*
X54613Y111009D01*
X54484Y110768D01*
X54373Y110565D01*
X54261Y110379D01*
X54169Y110231D01*
X54095Y110157D01*
X54076Y110120D01*
X53854Y109880D01*
X53613Y109657D01*
X53354Y109472D01*
X53113Y109305D01*
X52910Y109176D01*
X52724Y109083D01*
X52613Y109028D01*
X52595Y109009D01*
X52576D01*
X52391Y108935D01*
X52188Y108880D01*
X51725Y108769D01*
X51262Y108694D01*
X50817Y108657D01*
X50614Y108639D01*
X50410Y108620D01*
X50243D01*
X50077Y108602D01*
X49780D01*
X49243Y108620D01*
X48762Y108657D01*
X48336Y108731D01*
X47984Y108806D01*
X47836Y108824D01*
X47688Y108861D01*
X47577Y108898D01*
X47484Y108935D01*
X47410Y108954D01*
X47355Y108972D01*
X47336Y108991D01*
X47318D01*
X46984Y109139D01*
X46688Y109324D01*
X46429Y109491D01*
X46207Y109657D01*
X46040Y109805D01*
X45910Y109916D01*
X45836Y109991D01*
X45818Y110028D01*
X45614Y110287D01*
X45448Y110565D01*
X45318Y110824D01*
X45207Y111083D01*
X45133Y111305D01*
X45077Y111490D01*
X45059Y111546D01*
Y111602D01*
X45040Y111620D01*
Y111639D01*
X45003Y111842D01*
X44966Y112065D01*
X44929Y112305D01*
X44910Y112546D01*
X44873Y113101D01*
X44837Y113638D01*
Y113879D01*
Y114120D01*
X44818Y114342D01*
Y114527D01*
Y114675D01*
Y114805D01*
Y114879D01*
Y114897D01*
Y121656D01*
X47410D01*
Y114546D01*
Y114268D01*
Y114009D01*
X47429Y113768D01*
Y113546D01*
X47447Y113361D01*
Y113175D01*
X47466Y113009D01*
Y112861D01*
X47503Y112639D01*
X47521Y112472D01*
X47540Y112379D01*
Y112342D01*
X47595Y112101D01*
X47688Y111898D01*
X47799Y111713D01*
X47910Y111546D01*
X48021Y111416D01*
X48114Y111324D01*
X48188Y111268D01*
X48207Y111250D01*
X48429Y111102D01*
X48706Y110990D01*
X48966Y110916D01*
X49243Y110861D01*
X49484Y110824D01*
X49669Y110805D01*
X49854D01*
X50243Y110824D01*
X50577Y110879D01*
X50873Y110954D01*
X51132Y111046D01*
X51317Y111120D01*
X51465Y111194D01*
X51540Y111250D01*
X51576Y111268D01*
X51780Y111453D01*
X51947Y111676D01*
X52095Y111879D01*
X52188Y112083D01*
X52262Y112268D01*
X52317Y112416D01*
X52354Y112509D01*
Y112546D01*
X52373Y112657D01*
X52391Y112768D01*
Y112916D01*
X52410Y113083D01*
X52428Y113435D01*
Y113805D01*
X52447Y114138D01*
Y114286D01*
Y114435D01*
Y114546D01*
Y114620D01*
Y114675D01*
Y114694D01*
Y121656D01*
X55039D01*
Y114805D01*
D02*
G37*
G36*
X75000Y108843D02*
X72408D01*
Y121656D01*
X75000D01*
Y108843D01*
D02*
G37*
G36*
X72778Y88241D02*
X70389D01*
Y96684D01*
X65186Y88241D01*
X62594D01*
Y101054D01*
X64983D01*
Y92425D01*
X70278Y101054D01*
X72778D01*
Y88241D01*
D02*
G37*
G36*
X84721D02*
X74981D01*
Y90407D01*
X82129D01*
Y93888D01*
X75704D01*
Y96055D01*
X82129D01*
Y98888D01*
X75222D01*
Y101054D01*
X84721D01*
Y88241D01*
D02*
G37*
G36*
X33986D02*
X31393D01*
Y93592D01*
X30560D01*
X30301Y93574D01*
X30079Y93555D01*
X29894Y93518D01*
X29745Y93499D01*
X29653Y93462D01*
X29597Y93444D01*
X29579D01*
X29431Y93370D01*
X29283Y93296D01*
X29153Y93203D01*
X29023Y93129D01*
X28931Y93036D01*
X28857Y92963D01*
X28820Y92925D01*
X28801Y92907D01*
X28727Y92814D01*
X28634Y92722D01*
X28431Y92444D01*
X28209Y92148D01*
X27968Y91814D01*
X27764Y91518D01*
X27672Y91370D01*
X27597Y91259D01*
X27523Y91166D01*
X27468Y91092D01*
X27449Y91037D01*
X27431Y91018D01*
X25579Y88241D01*
X22468Y88241D01*
X24042Y90740D01*
X24209Y91000D01*
X24376Y91259D01*
X24524Y91481D01*
X24672Y91685D01*
X24801Y91870D01*
X24913Y92055D01*
X25135Y92333D01*
X25301Y92555D01*
X25412Y92703D01*
X25505Y92796D01*
X25524Y92814D01*
X25727Y93036D01*
X25968Y93240D01*
X26190Y93407D01*
X26412Y93574D01*
X26598Y93703D01*
X26746Y93796D01*
X26857Y93870D01*
X26875Y93888D01*
X26894D01*
X26579Y93944D01*
X26301Y94018D01*
X26042Y94092D01*
X25783Y94185D01*
X25561Y94277D01*
X25357Y94370D01*
X25153Y94462D01*
X24987Y94573D01*
X24839Y94666D01*
X24709Y94759D01*
X24598Y94851D01*
X24524Y94925D01*
X24450Y94981D01*
X24394Y95036D01*
X24376Y95055D01*
X24357Y95073D01*
X24209Y95259D01*
X24079Y95444D01*
X23857Y95851D01*
X23709Y96240D01*
X23616Y96629D01*
X23542Y96962D01*
X23524Y97092D01*
Y97221D01*
X23505Y97314D01*
Y97406D01*
Y97444D01*
Y97462D01*
X23524Y97869D01*
X23598Y98258D01*
X23691Y98591D01*
X23783Y98888D01*
X23894Y99129D01*
X23987Y99314D01*
X24024Y99369D01*
X24061Y99425D01*
X24079Y99443D01*
Y99462D01*
X24302Y99777D01*
X24542Y100036D01*
X24783Y100239D01*
X25024Y100425D01*
X25246Y100536D01*
X25412Y100628D01*
X25524Y100684D01*
X25542Y100702D01*
X25561D01*
X25746Y100758D01*
X25949Y100814D01*
X26412Y100906D01*
X26912Y100962D01*
X27394Y101017D01*
X27634D01*
X27838Y101036D01*
X28042D01*
X28209Y101054D01*
X33986D01*
Y88241D01*
D02*
G37*
G36*
X92739Y101276D02*
X93220Y101221D01*
X93646Y101147D01*
X94017Y101073D01*
X94183Y101017D01*
X94331Y100980D01*
X94442Y100943D01*
X94553Y100906D01*
X94628Y100869D01*
X94683Y100850D01*
X94720Y100832D01*
X94739D01*
X95109Y100647D01*
X95424Y100443D01*
X95702Y100221D01*
X95924Y100017D01*
X96109Y99832D01*
X96220Y99684D01*
X96313Y99573D01*
X96331Y99554D01*
Y99536D01*
X96516Y99221D01*
X96646Y98888D01*
X96739Y98573D01*
X96794Y98295D01*
X96831Y98055D01*
X96868Y97869D01*
Y97795D01*
Y97740D01*
Y97721D01*
Y97703D01*
X96850Y97425D01*
X96813Y97147D01*
X96757Y96906D01*
X96683Y96666D01*
X96498Y96221D01*
X96276Y95833D01*
X96183Y95666D01*
X96072Y95536D01*
X95979Y95407D01*
X95887Y95296D01*
X95813Y95222D01*
X95757Y95166D01*
X95720Y95129D01*
X95702Y95110D01*
X95535Y94981D01*
X95331Y94851D01*
X95127Y94722D01*
X94887Y94611D01*
X94424Y94388D01*
X93942Y94203D01*
X93702Y94129D01*
X93498Y94055D01*
X93294Y93999D01*
X93128Y93944D01*
X92998Y93907D01*
X92887Y93870D01*
X92813Y93851D01*
X92795D01*
X92498Y93777D01*
X92239Y93703D01*
X91998Y93648D01*
X91776Y93592D01*
X91591Y93537D01*
X91424Y93499D01*
X91276Y93444D01*
X91146Y93407D01*
X91035Y93388D01*
X90943Y93351D01*
X90813Y93314D01*
X90739Y93277D01*
X90721D01*
X90480Y93185D01*
X90295Y93092D01*
X90128Y92999D01*
X89998Y92907D01*
X89906Y92833D01*
X89850Y92777D01*
X89813Y92740D01*
X89795Y92722D01*
X89702Y92592D01*
X89628Y92463D01*
X89591Y92333D01*
X89554Y92222D01*
X89536Y92111D01*
X89517Y92018D01*
Y91963D01*
Y91944D01*
X89536Y91685D01*
X89610Y91463D01*
X89721Y91240D01*
X89832Y91055D01*
X89961Y90907D01*
X90054Y90796D01*
X90128Y90722D01*
X90165Y90703D01*
X90424Y90537D01*
X90721Y90407D01*
X91035Y90315D01*
X91332Y90259D01*
X91609Y90222D01*
X91832Y90185D01*
X92035D01*
X92461Y90204D01*
X92831Y90278D01*
X93146Y90370D01*
X93424Y90481D01*
X93646Y90592D01*
X93794Y90685D01*
X93887Y90759D01*
X93924Y90778D01*
X94165Y91037D01*
X94350Y91314D01*
X94516Y91629D01*
X94628Y91944D01*
X94720Y92222D01*
X94794Y92444D01*
X94813Y92518D01*
Y92592D01*
X94831Y92629D01*
Y92648D01*
X97350Y92407D01*
X97294Y92018D01*
X97220Y91648D01*
X97109Y91296D01*
X97016Y90981D01*
X96887Y90685D01*
X96757Y90407D01*
X96627Y90167D01*
X96498Y89944D01*
X96368Y89759D01*
X96238Y89593D01*
X96127Y89444D01*
X96016Y89315D01*
X95942Y89222D01*
X95868Y89167D01*
X95831Y89129D01*
X95813Y89111D01*
X95553Y88907D01*
X95276Y88741D01*
X94979Y88593D01*
X94665Y88463D01*
X94368Y88370D01*
X94054Y88278D01*
X93442Y88148D01*
X93165Y88093D01*
X92906Y88056D01*
X92683Y88037D01*
X92480Y88019D01*
X92313Y88000D01*
X92072D01*
X91480Y88019D01*
X90943Y88074D01*
X90461Y88148D01*
X90258Y88185D01*
X90054Y88241D01*
X89887Y88278D01*
X89739Y88315D01*
X89610Y88352D01*
X89499Y88389D01*
X89406Y88426D01*
X89350Y88444D01*
X89313Y88463D01*
X89295D01*
X88888Y88667D01*
X88554Y88889D01*
X88239Y89111D01*
X87999Y89352D01*
X87814Y89555D01*
X87665Y89741D01*
X87591Y89852D01*
X87554Y89870D01*
Y89889D01*
X87351Y90259D01*
X87184Y90611D01*
X87073Y90963D01*
X86999Y91296D01*
X86962Y91555D01*
X86943Y91685D01*
X86925Y91777D01*
Y91852D01*
Y91907D01*
Y91944D01*
Y91963D01*
X86943Y92407D01*
X86999Y92796D01*
X87091Y93148D01*
X87184Y93444D01*
X87276Y93685D01*
X87369Y93851D01*
X87425Y93962D01*
X87443Y93999D01*
X87647Y94296D01*
X87888Y94555D01*
X88128Y94777D01*
X88350Y94962D01*
X88554Y95110D01*
X88721Y95222D01*
X88832Y95296D01*
X88850Y95314D01*
X88869D01*
X89054Y95407D01*
X89239Y95499D01*
X89684Y95666D01*
X90147Y95814D01*
X90591Y95962D01*
X90795Y96018D01*
X90998Y96073D01*
X91184Y96129D01*
X91332Y96166D01*
X91461Y96203D01*
X91554Y96221D01*
X91628Y96240D01*
X91646D01*
X91980Y96333D01*
X92276Y96407D01*
X92554Y96481D01*
X92813Y96555D01*
X93017Y96629D01*
X93220Y96703D01*
X93387Y96777D01*
X93535Y96832D01*
X93665Y96888D01*
X93757Y96944D01*
X93850Y96981D01*
X93905Y97018D01*
X93998Y97073D01*
X94017Y97092D01*
X94146Y97221D01*
X94239Y97351D01*
X94294Y97480D01*
X94331Y97610D01*
X94368Y97703D01*
X94387Y97795D01*
Y97851D01*
Y97869D01*
X94368Y98055D01*
X94331Y98203D01*
X94257Y98351D01*
X94183Y98462D01*
X94109Y98554D01*
X94035Y98610D01*
X93998Y98647D01*
X93980Y98666D01*
X93720Y98832D01*
X93442Y98943D01*
X93146Y99036D01*
X92868Y99092D01*
X92628Y99129D01*
X92424Y99147D01*
X92239D01*
X91850Y99129D01*
X91517Y99073D01*
X91239Y98999D01*
X91017Y98925D01*
X90832Y98851D01*
X90702Y98777D01*
X90628Y98721D01*
X90610Y98703D01*
X90424Y98518D01*
X90258Y98295D01*
X90128Y98073D01*
X90035Y97832D01*
X89961Y97629D01*
X89924Y97462D01*
X89887Y97332D01*
Y97314D01*
Y97295D01*
X87295Y97388D01*
X87313Y97721D01*
X87369Y98018D01*
X87443Y98314D01*
X87536Y98573D01*
X87628Y98832D01*
X87739Y99073D01*
X87851Y99277D01*
X87962Y99480D01*
X88091Y99647D01*
X88202Y99795D01*
X88313Y99925D01*
X88406Y100036D01*
X88480Y100110D01*
X88536Y100165D01*
X88573Y100203D01*
X88591Y100221D01*
X88832Y100406D01*
X89091Y100573D01*
X89369Y100721D01*
X89665Y100850D01*
X89961Y100943D01*
X90258Y101036D01*
X90850Y101165D01*
X91128Y101202D01*
X91369Y101239D01*
X91609Y101258D01*
X91813Y101276D01*
X91980Y101295D01*
X92202D01*
X92739Y101276D01*
D02*
G37*
G36*
X55928D02*
X56409Y101221D01*
X56835Y101147D01*
X57206Y101073D01*
X57372Y101017D01*
X57520Y100980D01*
X57631Y100943D01*
X57743Y100906D01*
X57817Y100869D01*
X57872Y100850D01*
X57909Y100832D01*
X57928D01*
X58298Y100647D01*
X58613Y100443D01*
X58891Y100221D01*
X59113Y100017D01*
X59298Y99832D01*
X59409Y99684D01*
X59502Y99573D01*
X59520Y99554D01*
Y99536D01*
X59705Y99221D01*
X59835Y98888D01*
X59928Y98573D01*
X59983Y98295D01*
X60020Y98055D01*
X60057Y97869D01*
Y97795D01*
Y97740D01*
Y97721D01*
Y97703D01*
X60039Y97425D01*
X60002Y97147D01*
X59946Y96906D01*
X59872Y96666D01*
X59687Y96221D01*
X59465Y95833D01*
X59372Y95666D01*
X59261Y95536D01*
X59168Y95407D01*
X59076Y95296D01*
X59002Y95222D01*
X58946Y95166D01*
X58909Y95129D01*
X58891Y95110D01*
X58724Y94981D01*
X58520Y94851D01*
X58316Y94722D01*
X58076Y94611D01*
X57613Y94388D01*
X57132Y94203D01*
X56891Y94129D01*
X56687Y94055D01*
X56483Y93999D01*
X56317Y93944D01*
X56187Y93907D01*
X56076Y93870D01*
X56002Y93851D01*
X55984D01*
X55687Y93777D01*
X55428Y93703D01*
X55187Y93648D01*
X54965Y93592D01*
X54780Y93537D01*
X54613Y93499D01*
X54465Y93444D01*
X54335Y93407D01*
X54224Y93388D01*
X54132Y93351D01*
X54002Y93314D01*
X53928Y93277D01*
X53910D01*
X53669Y93185D01*
X53484Y93092D01*
X53317Y92999D01*
X53187Y92907D01*
X53095Y92833D01*
X53039Y92777D01*
X53002Y92740D01*
X52984Y92722D01*
X52891Y92592D01*
X52817Y92463D01*
X52780Y92333D01*
X52743Y92222D01*
X52724Y92111D01*
X52706Y92018D01*
Y91963D01*
Y91944D01*
X52724Y91685D01*
X52799Y91463D01*
X52910Y91240D01*
X53021Y91055D01*
X53150Y90907D01*
X53243Y90796D01*
X53317Y90722D01*
X53354Y90703D01*
X53613Y90537D01*
X53910Y90407D01*
X54224Y90315D01*
X54521Y90259D01*
X54798Y90222D01*
X55021Y90185D01*
X55224D01*
X55650Y90204D01*
X56020Y90278D01*
X56335Y90370D01*
X56613Y90481D01*
X56835Y90592D01*
X56983Y90685D01*
X57076Y90759D01*
X57113Y90778D01*
X57354Y91037D01*
X57539Y91314D01*
X57705Y91629D01*
X57817Y91944D01*
X57909Y92222D01*
X57983Y92444D01*
X58002Y92518D01*
Y92592D01*
X58020Y92629D01*
Y92648D01*
X60539Y92407D01*
X60483Y92018D01*
X60409Y91648D01*
X60298Y91296D01*
X60205Y90981D01*
X60076Y90685D01*
X59946Y90407D01*
X59816Y90167D01*
X59687Y89944D01*
X59557Y89759D01*
X59427Y89593D01*
X59316Y89444D01*
X59205Y89315D01*
X59131Y89222D01*
X59057Y89167D01*
X59020Y89129D01*
X59002Y89111D01*
X58742Y88907D01*
X58465Y88741D01*
X58168Y88593D01*
X57854Y88463D01*
X57557Y88370D01*
X57243Y88278D01*
X56631Y88148D01*
X56354Y88093D01*
X56095Y88056D01*
X55872Y88037D01*
X55669Y88019D01*
X55502Y88000D01*
X55261D01*
X54669Y88019D01*
X54132Y88074D01*
X53650Y88148D01*
X53447Y88185D01*
X53243Y88241D01*
X53076Y88278D01*
X52928Y88315D01*
X52799Y88352D01*
X52688Y88389D01*
X52595Y88426D01*
X52539Y88444D01*
X52502Y88463D01*
X52484D01*
X52077Y88667D01*
X51743Y88889D01*
X51428Y89111D01*
X51188Y89352D01*
X51002Y89555D01*
X50854Y89741D01*
X50780Y89852D01*
X50743Y89870D01*
Y89889D01*
X50540Y90259D01*
X50373Y90611D01*
X50262Y90963D01*
X50188Y91296D01*
X50151Y91555D01*
X50132Y91685D01*
X50114Y91777D01*
Y91852D01*
Y91907D01*
Y91944D01*
Y91963D01*
X50132Y92407D01*
X50188Y92796D01*
X50280Y93148D01*
X50373Y93444D01*
X50465Y93685D01*
X50558Y93851D01*
X50614Y93962D01*
X50632Y93999D01*
X50836Y94296D01*
X51077Y94555D01*
X51317Y94777D01*
X51540Y94962D01*
X51743Y95110D01*
X51910Y95222D01*
X52021Y95296D01*
X52039Y95314D01*
X52058D01*
X52243Y95407D01*
X52428Y95499D01*
X52873Y95666D01*
X53336Y95814D01*
X53780Y95962D01*
X53984Y96018D01*
X54187Y96073D01*
X54373Y96129D01*
X54521Y96166D01*
X54650Y96203D01*
X54743Y96221D01*
X54817Y96240D01*
X54835D01*
X55169Y96333D01*
X55465Y96407D01*
X55743Y96481D01*
X56002Y96555D01*
X56206Y96629D01*
X56409Y96703D01*
X56576Y96777D01*
X56724Y96832D01*
X56854Y96888D01*
X56946Y96944D01*
X57039Y96981D01*
X57094Y97018D01*
X57187Y97073D01*
X57206Y97092D01*
X57335Y97221D01*
X57428Y97351D01*
X57483Y97480D01*
X57520Y97610D01*
X57557Y97703D01*
X57576Y97795D01*
Y97851D01*
Y97869D01*
X57557Y98055D01*
X57520Y98203D01*
X57446Y98351D01*
X57372Y98462D01*
X57298Y98554D01*
X57224Y98610D01*
X57187Y98647D01*
X57168Y98666D01*
X56909Y98832D01*
X56631Y98943D01*
X56335Y99036D01*
X56058Y99092D01*
X55817Y99129D01*
X55613Y99147D01*
X55428D01*
X55039Y99129D01*
X54706Y99073D01*
X54428Y98999D01*
X54206Y98925D01*
X54021Y98851D01*
X53891Y98777D01*
X53817Y98721D01*
X53798Y98703D01*
X53613Y98518D01*
X53447Y98295D01*
X53317Y98073D01*
X53225Y97832D01*
X53150Y97629D01*
X53113Y97462D01*
X53076Y97332D01*
Y97314D01*
Y97295D01*
X50484Y97388D01*
X50503Y97721D01*
X50558Y98018D01*
X50632Y98314D01*
X50725Y98573D01*
X50817Y98832D01*
X50928Y99073D01*
X51040Y99277D01*
X51151Y99480D01*
X51280Y99647D01*
X51391Y99795D01*
X51502Y99925D01*
X51595Y100036D01*
X51669Y100110D01*
X51725Y100165D01*
X51762Y100203D01*
X51780Y100221D01*
X52021Y100406D01*
X52280Y100573D01*
X52558Y100721D01*
X52854Y100850D01*
X53150Y100943D01*
X53447Y101036D01*
X54039Y101165D01*
X54317Y101202D01*
X54558Y101239D01*
X54798Y101258D01*
X55002Y101276D01*
X55169Y101295D01*
X55391D01*
X55928Y101276D01*
D02*
G37*
G36*
X42818D02*
X43355Y101221D01*
X43818Y101128D01*
X44225Y101036D01*
X44392Y100980D01*
X44559Y100943D01*
X44688Y100906D01*
X44799Y100850D01*
X44892Y100832D01*
X44966Y100795D01*
X45003Y100777D01*
X45022D01*
X45355Y100628D01*
X45670Y100443D01*
X45947Y100239D01*
X46188Y100054D01*
X46392Y99888D01*
X46558Y99740D01*
X46651Y99647D01*
X46670Y99628D01*
X46688Y99610D01*
X46947Y99314D01*
X47188Y98999D01*
X47392Y98721D01*
X47558Y98443D01*
X47688Y98203D01*
X47799Y98018D01*
X47818Y97943D01*
X47855Y97888D01*
X47873Y97869D01*
Y97851D01*
X48058Y97332D01*
X48207Y96777D01*
X48299Y96221D01*
X48373Y95703D01*
X48392Y95462D01*
X48410Y95240D01*
X48429Y95055D01*
Y94888D01*
X48447Y94740D01*
Y94648D01*
Y94573D01*
Y94555D01*
X48429Y93999D01*
X48373Y93462D01*
X48299Y92963D01*
X48188Y92500D01*
X48058Y92074D01*
X47910Y91685D01*
X47762Y91314D01*
X47595Y91000D01*
X47447Y90703D01*
X47299Y90463D01*
X47151Y90240D01*
X47021Y90055D01*
X46910Y89926D01*
X46836Y89815D01*
X46781Y89759D01*
X46762Y89741D01*
X46429Y89426D01*
X46077Y89167D01*
X45725Y88926D01*
X45336Y88741D01*
X44966Y88574D01*
X44577Y88426D01*
X44225Y88315D01*
X43855Y88222D01*
X43522Y88148D01*
X43207Y88093D01*
X42929Y88056D01*
X42688Y88037D01*
X42503Y88019D01*
X42355Y88000D01*
X42226D01*
X41707Y88019D01*
X41226Y88074D01*
X40763Y88167D01*
X40337Y88278D01*
X39930Y88407D01*
X39559Y88555D01*
X39226Y88704D01*
X38911Y88870D01*
X38652Y89037D01*
X38411Y89185D01*
X38207Y89333D01*
X38041Y89463D01*
X37893Y89574D01*
X37800Y89667D01*
X37745Y89722D01*
X37726Y89741D01*
X37430Y90092D01*
X37171Y90463D01*
X36930Y90852D01*
X36745Y91240D01*
X36578Y91648D01*
X36430Y92055D01*
X36319Y92463D01*
X36226Y92851D01*
X36171Y93203D01*
X36115Y93555D01*
X36078Y93851D01*
X36041Y94110D01*
Y94333D01*
X36023Y94499D01*
Y94592D01*
Y94629D01*
X36041Y95203D01*
X36097Y95740D01*
X36171Y96240D01*
X36282Y96721D01*
X36411Y97147D01*
X36560Y97555D01*
X36708Y97925D01*
X36874Y98240D01*
X37041Y98536D01*
X37189Y98795D01*
X37337Y99017D01*
X37467Y99203D01*
X37559Y99332D01*
X37652Y99443D01*
X37708Y99499D01*
X37726Y99517D01*
X38059Y99832D01*
X38411Y100110D01*
X38781Y100351D01*
X39152Y100554D01*
X39541Y100721D01*
X39911Y100869D01*
X40281Y100980D01*
X40633Y101073D01*
X40967Y101147D01*
X41281Y101202D01*
X41559Y101239D01*
X41800Y101276D01*
X41985D01*
X42133Y101295D01*
X42263D01*
X42818Y101276D01*
D02*
G37*
G36*
X203217Y404268D02*
X203365Y404250D01*
X203513Y404222D01*
X203652Y404185D01*
X203781Y404139D01*
X203901Y404083D01*
X204021Y404037D01*
X204114Y403982D01*
X204206Y403917D01*
X204290Y403871D01*
X204354Y403815D01*
X204419Y403769D01*
X204465Y403732D01*
X204493Y403704D01*
X204512Y403686D01*
X204521Y403677D01*
X204622Y403556D01*
X204706Y403436D01*
X204789Y403307D01*
X204853Y403177D01*
X204909Y403048D01*
X204955Y402909D01*
X205020Y402660D01*
X205048Y402549D01*
X205066Y402438D01*
X205075Y402345D01*
X205085Y402262D01*
X205094Y402188D01*
Y402142D01*
Y402105D01*
Y402096D01*
X205085Y401929D01*
X205066Y401763D01*
X205048Y401606D01*
X205011Y401467D01*
X204965Y401328D01*
X204918Y401208D01*
X204872Y401088D01*
X204817Y400986D01*
X204770Y400894D01*
X204724Y400811D01*
X204678Y400746D01*
X204632Y400681D01*
X204595Y400644D01*
X204576Y400607D01*
X204558Y400589D01*
X204548Y400579D01*
X204447Y400478D01*
X204336Y400385D01*
X204225Y400311D01*
X204114Y400247D01*
X204003Y400191D01*
X203901Y400135D01*
X203698Y400071D01*
X203522Y400025D01*
X203448Y400015D01*
X203384Y400006D01*
X203328Y399997D01*
X203254D01*
X203125Y400006D01*
X203004Y400025D01*
X202894Y400043D01*
X202782Y400080D01*
X202579Y400163D01*
X202413Y400265D01*
X202283Y400367D01*
X202228Y400413D01*
X202182Y400450D01*
X202145Y400487D01*
X202117Y400515D01*
X202108Y400524D01*
X202098Y400533D01*
X202117Y400339D01*
X202135Y400154D01*
X202154Y399988D01*
X202182Y399840D01*
X202209Y399710D01*
X202237Y399590D01*
X202265Y399488D01*
X202292Y399396D01*
X202330Y399313D01*
X202348Y399248D01*
X202376Y399193D01*
X202394Y399156D01*
X202413Y399118D01*
X202431Y399100D01*
X202440Y399081D01*
X202542Y398971D01*
X202653Y398887D01*
X202755Y398823D01*
X202857Y398786D01*
X202949Y398758D01*
X203014Y398749D01*
X203060Y398740D01*
X203078D01*
X203180Y398749D01*
X203282Y398767D01*
X203356Y398795D01*
X203430Y398823D01*
X203485Y398850D01*
X203522Y398878D01*
X203550Y398897D01*
X203559Y398906D01*
X203624Y398980D01*
X203670Y399063D01*
X203707Y399156D01*
X203735Y399248D01*
X203763Y399322D01*
X203772Y399387D01*
X203781Y399433D01*
Y399451D01*
X204965Y399313D01*
X204937Y399165D01*
X204900Y399035D01*
X204863Y398906D01*
X204817Y398795D01*
X204770Y398684D01*
X204724Y398582D01*
X204669Y398499D01*
X204622Y398416D01*
X204567Y398351D01*
X204530Y398286D01*
X204484Y398240D01*
X204447Y398194D01*
X204419Y398166D01*
X204391Y398139D01*
X204382Y398129D01*
X204373Y398120D01*
X204280Y398046D01*
X204188Y397991D01*
X203985Y397889D01*
X203790Y397824D01*
X203596Y397769D01*
X203421Y397741D01*
X203347Y397732D01*
X203282D01*
X203236Y397722D01*
X203162D01*
X202967Y397732D01*
X202792Y397759D01*
X202625Y397796D01*
X202459Y397843D01*
X202311Y397907D01*
X202172Y397972D01*
X202043Y398037D01*
X201932Y398111D01*
X201830Y398185D01*
X201738Y398249D01*
X201664Y398323D01*
X201599Y398379D01*
X201544Y398425D01*
X201507Y398462D01*
X201488Y398490D01*
X201479Y398499D01*
X201359Y398656D01*
X201266Y398832D01*
X201174Y399026D01*
X201100Y399220D01*
X201035Y399433D01*
X200980Y399646D01*
X200943Y399849D01*
X200906Y400062D01*
X200878Y400256D01*
X200859Y400431D01*
X200841Y400598D01*
X200832Y400746D01*
X200823Y400866D01*
Y400958D01*
Y400986D01*
Y401014D01*
Y401023D01*
Y401032D01*
X200832Y401347D01*
X200850Y401633D01*
X200878Y401902D01*
X200924Y402151D01*
X200970Y402373D01*
X201017Y402576D01*
X201081Y402761D01*
X201137Y402928D01*
X201192Y403066D01*
X201248Y403187D01*
X201303Y403288D01*
X201350Y403372D01*
X201396Y403436D01*
X201423Y403483D01*
X201442Y403510D01*
X201451Y403519D01*
X201571Y403649D01*
X201701Y403769D01*
X201830Y403871D01*
X201960Y403954D01*
X202098Y404028D01*
X202228Y404093D01*
X202357Y404139D01*
X202487Y404185D01*
X202598Y404213D01*
X202709Y404241D01*
X202801Y404259D01*
X202884Y404268D01*
X202958D01*
X203004Y404278D01*
X203051D01*
X203217Y404268D01*
D02*
G37*
G36*
X211178Y397843D02*
X209883D01*
Y400515D01*
X209467D01*
X209338Y400505D01*
X209227Y400496D01*
X209134Y400478D01*
X209060Y400468D01*
X209014Y400450D01*
X208986Y400441D01*
X208977D01*
X208903Y400404D01*
X208829Y400367D01*
X208764Y400321D01*
X208700Y400284D01*
X208654Y400237D01*
X208617Y400200D01*
X208598Y400182D01*
X208589Y400173D01*
X208552Y400126D01*
X208506Y400080D01*
X208404Y399941D01*
X208293Y399794D01*
X208173Y399627D01*
X208071Y399479D01*
X208025Y399405D01*
X207988Y399350D01*
X207951Y399303D01*
X207923Y399267D01*
X207914Y399239D01*
X207905Y399230D01*
X206980Y397843D01*
X205427D01*
X206213Y399091D01*
X206296Y399220D01*
X206379Y399350D01*
X206453Y399461D01*
X206527Y399562D01*
X206592Y399655D01*
X206647Y399747D01*
X206758Y399886D01*
X206841Y399997D01*
X206897Y400071D01*
X206943Y400117D01*
X206952Y400126D01*
X207054Y400237D01*
X207174Y400339D01*
X207285Y400422D01*
X207396Y400505D01*
X207488Y400570D01*
X207563Y400616D01*
X207618Y400653D01*
X207627Y400662D01*
X207637D01*
X207479Y400690D01*
X207341Y400727D01*
X207211Y400764D01*
X207082Y400811D01*
X206971Y400857D01*
X206869Y400903D01*
X206767Y400949D01*
X206684Y401005D01*
X206610Y401051D01*
X206546Y401097D01*
X206490Y401143D01*
X206453Y401180D01*
X206416Y401208D01*
X206388Y401236D01*
X206379Y401245D01*
X206370Y401254D01*
X206296Y401347D01*
X206231Y401439D01*
X206120Y401643D01*
X206046Y401837D01*
X206000Y402031D01*
X205963Y402197D01*
X205954Y402262D01*
Y402327D01*
X205944Y402373D01*
Y402419D01*
Y402438D01*
Y402447D01*
X205954Y402650D01*
X205991Y402845D01*
X206037Y403011D01*
X206083Y403159D01*
X206139Y403279D01*
X206185Y403372D01*
X206203Y403399D01*
X206222Y403427D01*
X206231Y403436D01*
Y403446D01*
X206342Y403603D01*
X206462Y403732D01*
X206583Y403834D01*
X206703Y403926D01*
X206814Y403982D01*
X206897Y404028D01*
X206952Y404056D01*
X206961Y404065D01*
X206971D01*
X207063Y404093D01*
X207165Y404120D01*
X207396Y404167D01*
X207646Y404194D01*
X207886Y404222D01*
X208006D01*
X208108Y404231D01*
X208210D01*
X208293Y404241D01*
X211178D01*
Y397843D01*
D02*
G37*
G36*
X200431Y340065D02*
X200552Y339871D01*
X200681Y339686D01*
X200811Y339538D01*
X200921Y339418D01*
X201023Y339325D01*
X201060Y339288D01*
X201088Y339261D01*
X201106Y339251D01*
X201116Y339242D01*
X201319Y339094D01*
X201513Y338965D01*
X201689Y338863D01*
X201846Y338789D01*
X201975Y338734D01*
X202068Y338687D01*
X202105Y338678D01*
X202133Y338669D01*
X202142Y338660D01*
X202151D01*
Y337550D01*
X201818Y337680D01*
X201522Y337818D01*
X201384Y337892D01*
X201254Y337975D01*
X201134Y338049D01*
X201023Y338123D01*
X200921Y338197D01*
X200829Y338262D01*
X200755Y338317D01*
X200690Y338373D01*
X200635Y338419D01*
X200598Y338447D01*
X200579Y338465D01*
X200570Y338475D01*
Y333843D01*
X199340D01*
Y340278D01*
X200339D01*
X200431Y340065D01*
D02*
G37*
G36*
X208651Y333843D02*
X207356D01*
Y336515D01*
X206940D01*
X206811Y336505D01*
X206700Y336496D01*
X206607Y336478D01*
X206534Y336468D01*
X206487Y336450D01*
X206460Y336441D01*
X206450D01*
X206376Y336404D01*
X206302Y336367D01*
X206238Y336320D01*
X206173Y336283D01*
X206127Y336237D01*
X206090Y336200D01*
X206071Y336182D01*
X206062Y336172D01*
X206025Y336126D01*
X205979Y336080D01*
X205877Y335941D01*
X205766Y335793D01*
X205646Y335627D01*
X205544Y335479D01*
X205498Y335405D01*
X205461Y335350D01*
X205424Y335303D01*
X205396Y335266D01*
X205387Y335239D01*
X205378Y335229D01*
X204453Y333843D01*
X202900D01*
X203686Y335091D01*
X203769Y335220D01*
X203852Y335350D01*
X203926Y335461D01*
X204000Y335562D01*
X204065Y335655D01*
X204120Y335747D01*
X204231Y335886D01*
X204315Y335997D01*
X204370Y336071D01*
X204416Y336117D01*
X204426Y336126D01*
X204527Y336237D01*
X204647Y336339D01*
X204758Y336422D01*
X204869Y336505D01*
X204962Y336570D01*
X205036Y336616D01*
X205091Y336653D01*
X205100Y336662D01*
X205110D01*
X204953Y336690D01*
X204814Y336727D01*
X204684Y336764D01*
X204555Y336810D01*
X204444Y336857D01*
X204342Y336903D01*
X204241Y336949D01*
X204157Y337005D01*
X204083Y337051D01*
X204019Y337097D01*
X203963Y337143D01*
X203926Y337180D01*
X203889Y337208D01*
X203862Y337236D01*
X203852Y337245D01*
X203843Y337254D01*
X203769Y337347D01*
X203704Y337439D01*
X203593Y337643D01*
X203519Y337837D01*
X203473Y338031D01*
X203436Y338197D01*
X203427Y338262D01*
Y338327D01*
X203418Y338373D01*
Y338419D01*
Y338438D01*
Y338447D01*
X203427Y338650D01*
X203464Y338844D01*
X203510Y339011D01*
X203556Y339159D01*
X203612Y339279D01*
X203658Y339371D01*
X203677Y339399D01*
X203695Y339427D01*
X203704Y339436D01*
Y339445D01*
X203815Y339603D01*
X203936Y339732D01*
X204056Y339834D01*
X204176Y339926D01*
X204287Y339982D01*
X204370Y340028D01*
X204426Y340056D01*
X204435Y340065D01*
X204444D01*
X204536Y340093D01*
X204638Y340120D01*
X204869Y340167D01*
X205119Y340194D01*
X205359Y340222D01*
X205480D01*
X205581Y340231D01*
X205683D01*
X205766Y340241D01*
X208651D01*
Y333843D01*
D02*
G37*
G36*
X195596Y340268D02*
X195753Y340250D01*
X195910Y340213D01*
X196049Y340176D01*
X196178Y340120D01*
X196299Y340065D01*
X196400Y340009D01*
X196502Y339945D01*
X196585Y339880D01*
X196668Y339824D01*
X196733Y339769D01*
X196779Y339714D01*
X196826Y339677D01*
X196853Y339640D01*
X196872Y339621D01*
X196881Y339612D01*
X196992Y339455D01*
X197085Y339270D01*
X197168Y339076D01*
X197242Y338872D01*
X197297Y338660D01*
X197353Y338438D01*
X197390Y338225D01*
X197427Y338012D01*
X197445Y337809D01*
X197464Y337624D01*
X197482Y337448D01*
X197491Y337300D01*
X197500Y337180D01*
Y337088D01*
Y337051D01*
Y337023D01*
Y337014D01*
Y337005D01*
X197491Y336672D01*
X197473Y336367D01*
X197445Y336080D01*
X197408Y335821D01*
X197371Y335590D01*
X197325Y335377D01*
X197269Y335192D01*
X197214Y335026D01*
X197168Y334887D01*
X197112Y334758D01*
X197066Y334656D01*
X197020Y334573D01*
X196992Y334518D01*
X196964Y334471D01*
X196946Y334444D01*
X196937Y334434D01*
X196826Y334305D01*
X196705Y334203D01*
X196585Y334101D01*
X196456Y334028D01*
X196336Y333954D01*
X196206Y333898D01*
X196086Y333852D01*
X195966Y333815D01*
X195855Y333778D01*
X195753Y333759D01*
X195661Y333741D01*
X195587Y333732D01*
X195522D01*
X195466Y333722D01*
X195429D01*
X195263Y333732D01*
X195106Y333750D01*
X194949Y333787D01*
X194810Y333824D01*
X194681Y333870D01*
X194560Y333926D01*
X194459Y333991D01*
X194357Y334055D01*
X194274Y334111D01*
X194191Y334175D01*
X194126Y334231D01*
X194070Y334277D01*
X194033Y334314D01*
X194006Y334351D01*
X193987Y334370D01*
X193978Y334379D01*
X193867Y334536D01*
X193775Y334721D01*
X193682Y334915D01*
X193617Y335128D01*
X193553Y335340D01*
X193506Y335553D01*
X193460Y335775D01*
X193423Y335988D01*
X193405Y336191D01*
X193386Y336376D01*
X193368Y336552D01*
X193358Y336699D01*
X193349Y336820D01*
Y336912D01*
Y336949D01*
Y336977D01*
Y336986D01*
Y336995D01*
X193358Y337328D01*
X193377Y337633D01*
X193405Y337911D01*
X193451Y338170D01*
X193497Y338410D01*
X193543Y338623D01*
X193608Y338817D01*
X193664Y338983D01*
X193719Y339140D01*
X193775Y339261D01*
X193830Y339371D01*
X193876Y339464D01*
X193923Y339529D01*
X193950Y339575D01*
X193969Y339603D01*
X193978Y339612D01*
X194080Y339732D01*
X194191Y339834D01*
X194311Y339917D01*
X194431Y340000D01*
X194551Y340065D01*
X194671Y340111D01*
X194782Y340157D01*
X194902Y340194D01*
X195014Y340222D01*
X195106Y340241D01*
X195198Y340259D01*
X195272Y340268D01*
X195337Y340278D01*
X195429D01*
X195596Y340268D01*
D02*
G37*
G36*
X308187Y398843D02*
X306892D01*
Y401515D01*
X306476D01*
X306347Y401505D01*
X306236Y401496D01*
X306143Y401478D01*
X306070Y401468D01*
X306023Y401450D01*
X305996Y401441D01*
X305986D01*
X305912Y401404D01*
X305838Y401367D01*
X305774Y401320D01*
X305709Y401283D01*
X305663Y401237D01*
X305626Y401200D01*
X305607Y401182D01*
X305598Y401172D01*
X305561Y401126D01*
X305515Y401080D01*
X305413Y400941D01*
X305302Y400793D01*
X305182Y400627D01*
X305080Y400479D01*
X305034Y400405D01*
X304997Y400350D01*
X304960Y400303D01*
X304932Y400266D01*
X304923Y400239D01*
X304914Y400229D01*
X303989Y398843D01*
X302436D01*
X303222Y400091D01*
X303305Y400220D01*
X303388Y400350D01*
X303462Y400461D01*
X303536Y400562D01*
X303601Y400655D01*
X303656Y400747D01*
X303767Y400886D01*
X303851Y400997D01*
X303906Y401071D01*
X303952Y401117D01*
X303962Y401126D01*
X304063Y401237D01*
X304183Y401339D01*
X304294Y401422D01*
X304405Y401505D01*
X304498Y401570D01*
X304572Y401616D01*
X304627Y401653D01*
X304636Y401662D01*
X304646D01*
X304489Y401690D01*
X304350Y401727D01*
X304220Y401764D01*
X304091Y401810D01*
X303980Y401857D01*
X303878Y401903D01*
X303777Y401949D01*
X303693Y402005D01*
X303619Y402051D01*
X303555Y402097D01*
X303499Y402143D01*
X303462Y402180D01*
X303425Y402208D01*
X303398Y402236D01*
X303388Y402245D01*
X303379Y402254D01*
X303305Y402347D01*
X303240Y402439D01*
X303129Y402643D01*
X303055Y402837D01*
X303009Y403031D01*
X302972Y403197D01*
X302963Y403262D01*
Y403327D01*
X302954Y403373D01*
Y403419D01*
Y403438D01*
Y403447D01*
X302963Y403650D01*
X303000Y403844D01*
X303046Y404011D01*
X303092Y404159D01*
X303148Y404279D01*
X303194Y404371D01*
X303213Y404399D01*
X303231Y404427D01*
X303240Y404436D01*
Y404445D01*
X303351Y404603D01*
X303472Y404732D01*
X303592Y404834D01*
X303712Y404926D01*
X303823Y404982D01*
X303906Y405028D01*
X303962Y405056D01*
X303971Y405065D01*
X303980D01*
X304072Y405093D01*
X304174Y405120D01*
X304405Y405167D01*
X304655Y405194D01*
X304895Y405222D01*
X305016D01*
X305117Y405231D01*
X305219D01*
X305302Y405241D01*
X308187D01*
Y398843D01*
D02*
G37*
G36*
X300115Y405268D02*
X300273Y405259D01*
X300420Y405231D01*
X300559Y405204D01*
X300689Y405167D01*
X300809Y405130D01*
X300910Y405083D01*
X301003Y405046D01*
X301095Y405000D01*
X301169Y404954D01*
X301225Y404917D01*
X301280Y404880D01*
X301317Y404852D01*
X301345Y404824D01*
X301364Y404815D01*
X301373Y404806D01*
X301456Y404714D01*
X301539Y404621D01*
X301604Y404519D01*
X301659Y404427D01*
X301752Y404224D01*
X301807Y404039D01*
X301844Y403872D01*
X301854Y403798D01*
X301863Y403743D01*
X301872Y403687D01*
Y403650D01*
Y403632D01*
Y403623D01*
X301863Y403465D01*
X301835Y403327D01*
X301807Y403188D01*
X301761Y403077D01*
X301724Y402975D01*
X301696Y402911D01*
X301669Y402864D01*
X301659Y402846D01*
X301567Y402726D01*
X301456Y402615D01*
X301345Y402522D01*
X301225Y402439D01*
X301123Y402384D01*
X301040Y402337D01*
X300984Y402310D01*
X300975Y402300D01*
X300966D01*
X301160Y402199D01*
X301327Y402097D01*
X301465Y401986D01*
X301576Y401875D01*
X301669Y401773D01*
X301733Y401699D01*
X301770Y401644D01*
X301780Y401635D01*
Y401626D01*
X301863Y401459D01*
X301928Y401293D01*
X301964Y401126D01*
X302001Y400978D01*
X302020Y400858D01*
X302029Y400756D01*
Y400719D01*
Y400692D01*
Y400673D01*
Y400664D01*
X302020Y400488D01*
X302001Y400331D01*
X301964Y400174D01*
X301918Y400035D01*
X301872Y399897D01*
X301817Y399776D01*
X301752Y399665D01*
X301687Y399564D01*
X301622Y399481D01*
X301558Y399397D01*
X301502Y399333D01*
X301456Y399277D01*
X301410Y399231D01*
X301373Y399203D01*
X301354Y399185D01*
X301345Y399175D01*
X301234Y399092D01*
X301114Y399027D01*
X300994Y398963D01*
X300874Y398917D01*
X300633Y398833D01*
X300402Y398778D01*
X300291Y398759D01*
X300199Y398750D01*
X300115Y398741D01*
X300041Y398732D01*
X299977Y398722D01*
X299893D01*
X299718Y398732D01*
X299561Y398750D01*
X299403Y398778D01*
X299256Y398806D01*
X299126Y398852D01*
X299006Y398898D01*
X298886Y398944D01*
X298784Y399000D01*
X298692Y399055D01*
X298618Y399101D01*
X298544Y399148D01*
X298488Y399194D01*
X298442Y399222D01*
X298414Y399249D01*
X298396Y399268D01*
X298386Y399277D01*
X298285Y399388D01*
X298202Y399499D01*
X298118Y399619D01*
X298054Y399739D01*
X297998Y399860D01*
X297952Y399980D01*
X297887Y400211D01*
X297859Y400313D01*
X297841Y400405D01*
X297832Y400498D01*
X297822Y400572D01*
X297813Y400636D01*
Y400682D01*
Y400710D01*
Y400719D01*
X297822Y400914D01*
X297859Y401089D01*
X297896Y401256D01*
X297952Y401394D01*
X297998Y401505D01*
X298044Y401589D01*
X298081Y401644D01*
X298091Y401662D01*
X298202Y401810D01*
X298331Y401940D01*
X298470Y402051D01*
X298599Y402134D01*
X298719Y402208D01*
X298812Y402263D01*
X298849Y402282D01*
X298876Y402291D01*
X298895Y402300D01*
X298904D01*
X298756Y402374D01*
X298627Y402458D01*
X298516Y402541D01*
X298423Y402633D01*
X298349Y402707D01*
X298303Y402772D01*
X298266Y402809D01*
X298257Y402827D01*
X298174Y402966D01*
X298118Y403105D01*
X298072Y403234D01*
X298044Y403354D01*
X298026Y403465D01*
X298017Y403549D01*
Y403604D01*
Y403613D01*
Y403623D01*
X298026Y403752D01*
X298035Y403881D01*
X298100Y404113D01*
X298174Y404307D01*
X298266Y404482D01*
X298368Y404621D01*
X298405Y404677D01*
X298442Y404723D01*
X298479Y404760D01*
X298507Y404788D01*
X298516Y404797D01*
X298525Y404806D01*
X298627Y404889D01*
X298729Y404963D01*
X298849Y405028D01*
X298960Y405083D01*
X299200Y405167D01*
X299431Y405222D01*
X299533Y405241D01*
X299635Y405250D01*
X299718Y405259D01*
X299801Y405268D01*
X299856Y405278D01*
X299949D01*
X300115Y405268D01*
D02*
G37*
G36*
X224254Y359977D02*
X224359Y359966D01*
X224458Y359955D01*
X224552Y359933D01*
X224641Y359905D01*
X224724Y359877D01*
X224802Y359849D01*
X224874Y359816D01*
X224935Y359789D01*
X224995Y359761D01*
X225040Y359733D01*
X225084Y359706D01*
X225112Y359683D01*
X225140Y359672D01*
X225151Y359661D01*
X225156Y359656D01*
X225234Y359589D01*
X225300Y359523D01*
X225361Y359445D01*
X225422Y359368D01*
X225522Y359213D01*
X225599Y359058D01*
X225632Y358986D01*
X225660Y358919D01*
X225682Y358858D01*
X225699Y358808D01*
X225715Y358764D01*
X225726Y358731D01*
X225732Y358709D01*
Y358703D01*
X225222Y358576D01*
X225200Y358665D01*
X225173Y358747D01*
X225145Y358825D01*
X225117Y358897D01*
X225084Y358964D01*
X225051Y359019D01*
X225012Y359074D01*
X224979Y359124D01*
X224951Y359168D01*
X224918Y359202D01*
X224890Y359235D01*
X224868Y359263D01*
X224846Y359279D01*
X224829Y359296D01*
X224824Y359301D01*
X224818Y359307D01*
X224763Y359351D01*
X224702Y359384D01*
X224580Y359445D01*
X224464Y359490D01*
X224348Y359517D01*
X224248Y359539D01*
X224209Y359545D01*
X224170D01*
X224137Y359550D01*
X224098D01*
X223971Y359545D01*
X223849Y359523D01*
X223738Y359495D01*
X223639Y359462D01*
X223561Y359429D01*
X223528Y359412D01*
X223500Y359401D01*
X223478Y359390D01*
X223462Y359379D01*
X223451Y359373D01*
X223445D01*
X223340Y359296D01*
X223251Y359213D01*
X223174Y359118D01*
X223113Y359030D01*
X223063Y358952D01*
X223030Y358886D01*
X223019Y358858D01*
X223008Y358842D01*
X223002Y358831D01*
Y358825D01*
X222958Y358681D01*
X222925Y358537D01*
X222897Y358393D01*
X222880Y358260D01*
X222875Y358199D01*
X222869Y358144D01*
Y358094D01*
X222864Y358055D01*
Y358022D01*
Y357994D01*
Y357978D01*
Y357972D01*
X222869Y357828D01*
X222880Y357695D01*
X222902Y357574D01*
X222925Y357463D01*
X222941Y357369D01*
X222952Y357330D01*
X222963Y357297D01*
X222969Y357269D01*
X222974Y357253D01*
X222980Y357241D01*
Y357236D01*
X223035Y357108D01*
X223096Y356992D01*
X223163Y356898D01*
X223235Y356815D01*
X223296Y356749D01*
X223345Y356704D01*
X223384Y356677D01*
X223390Y356665D01*
X223395D01*
X223512Y356594D01*
X223639Y356538D01*
X223761Y356499D01*
X223877Y356477D01*
X223982Y356461D01*
X224027Y356455D01*
X224065D01*
X224093Y356450D01*
X224137D01*
X224276Y356455D01*
X224403Y356477D01*
X224508Y356511D01*
X224602Y356544D01*
X224674Y356582D01*
X224730Y356610D01*
X224763Y356632D01*
X224774Y356643D01*
X224863Y356726D01*
X224946Y356821D01*
X225012Y356920D01*
X225068Y357020D01*
X225112Y357108D01*
X225128Y357153D01*
X225140Y357186D01*
X225151Y357214D01*
X225162Y357236D01*
X225167Y357247D01*
Y357253D01*
X225665Y357136D01*
X225632Y357037D01*
X225599Y356948D01*
X225555Y356865D01*
X225516Y356782D01*
X225472Y356710D01*
X225422Y356643D01*
X225378Y356577D01*
X225333Y356522D01*
X225289Y356477D01*
X225250Y356433D01*
X225211Y356394D01*
X225184Y356367D01*
X225156Y356339D01*
X225134Y356322D01*
X225123Y356317D01*
X225117Y356311D01*
X225040Y356261D01*
X224962Y356212D01*
X224885Y356173D01*
X224802Y356139D01*
X224636Y356090D01*
X224486Y356056D01*
X224414Y356040D01*
X224353Y356034D01*
X224292Y356029D01*
X224242Y356023D01*
X224204Y356018D01*
X224148D01*
X223966Y356029D01*
X223788Y356056D01*
X223633Y356090D01*
X223561Y356112D01*
X223495Y356134D01*
X223434Y356156D01*
X223379Y356178D01*
X223334Y356195D01*
X223290Y356212D01*
X223262Y356228D01*
X223240Y356239D01*
X223224Y356245D01*
X223218Y356250D01*
X223069Y356344D01*
X222941Y356455D01*
X222830Y356566D01*
X222736Y356677D01*
X222664Y356776D01*
X222637Y356821D01*
X222614Y356859D01*
X222592Y356887D01*
X222581Y356909D01*
X222576Y356926D01*
X222570Y356931D01*
X222493Y357103D01*
X222437Y357280D01*
X222398Y357457D01*
X222371Y357618D01*
X222360Y357690D01*
X222354Y357762D01*
X222349Y357817D01*
Y357873D01*
X222343Y357911D01*
Y357945D01*
Y357967D01*
Y357972D01*
X222354Y358172D01*
X222376Y358366D01*
X222404Y358537D01*
X222426Y358620D01*
X222443Y358692D01*
X222459Y358759D01*
X222482Y358820D01*
X222498Y358875D01*
X222509Y358919D01*
X222526Y358952D01*
X222531Y358980D01*
X222542Y358997D01*
Y359002D01*
X222626Y359168D01*
X222720Y359318D01*
X222819Y359445D01*
X222869Y359495D01*
X222913Y359545D01*
X222958Y359589D01*
X223002Y359628D01*
X223041Y359661D01*
X223074Y359683D01*
X223096Y359706D01*
X223118Y359722D01*
X223129Y359728D01*
X223135Y359733D01*
X223213Y359777D01*
X223290Y359816D01*
X223456Y359877D01*
X223622Y359921D01*
X223783Y359949D01*
X223860Y359960D01*
X223927Y359971D01*
X223988Y359977D01*
X224038D01*
X224082Y359982D01*
X224143D01*
X224254Y359977D01*
D02*
G37*
G36*
X228639Y359462D02*
X226751D01*
X226817Y359368D01*
X226850Y359329D01*
X226878Y359290D01*
X226906Y359257D01*
X226928Y359235D01*
X226945Y359218D01*
X226950Y359213D01*
X226978Y359185D01*
X227011Y359157D01*
X227089Y359085D01*
X227177Y359002D01*
X227271Y358919D01*
X227360Y358847D01*
X227399Y358814D01*
X227432Y358781D01*
X227460Y358759D01*
X227482Y358742D01*
X227493Y358731D01*
X227498Y358725D01*
X227587Y358648D01*
X227675Y358576D01*
X227753Y358504D01*
X227825Y358443D01*
X227891Y358382D01*
X227947Y358327D01*
X228002Y358277D01*
X228046Y358233D01*
X228091Y358188D01*
X228124Y358155D01*
X228152Y358127D01*
X228179Y358100D01*
X228207Y358066D01*
X228218Y358055D01*
X228296Y357961D01*
X228362Y357878D01*
X228417Y357795D01*
X228462Y357729D01*
X228495Y357668D01*
X228517Y357623D01*
X228528Y357596D01*
X228534Y357585D01*
X228567Y357502D01*
X228589Y357419D01*
X228611Y357341D01*
X228622Y357275D01*
X228628Y357214D01*
X228633Y357169D01*
Y357142D01*
Y357131D01*
X228628Y357048D01*
X228617Y356970D01*
X228606Y356893D01*
X228584Y356826D01*
X228528Y356693D01*
X228473Y356588D01*
X228440Y356538D01*
X228412Y356499D01*
X228384Y356461D01*
X228357Y356433D01*
X228334Y356411D01*
X228323Y356389D01*
X228312Y356383D01*
X228307Y356378D01*
X228246Y356322D01*
X228179Y356272D01*
X228107Y356234D01*
X228035Y356200D01*
X227891Y356145D01*
X227747Y356106D01*
X227687Y356095D01*
X227626Y356084D01*
X227570Y356079D01*
X227526Y356073D01*
X227487Y356068D01*
X227432D01*
X227332Y356073D01*
X227238Y356079D01*
X227150Y356095D01*
X227066Y356112D01*
X226989Y356134D01*
X226917Y356156D01*
X226850Y356184D01*
X226789Y356212D01*
X226734Y356239D01*
X226690Y356267D01*
X226651Y356289D01*
X226618Y356311D01*
X226590Y356328D01*
X226574Y356344D01*
X226562Y356350D01*
X226557Y356355D01*
X226502Y356411D01*
X226452Y356472D01*
X226402Y356538D01*
X226363Y356605D01*
X226297Y356738D01*
X226252Y356870D01*
X226236Y356931D01*
X226219Y356992D01*
X226208Y357042D01*
X226197Y357086D01*
X226192Y357125D01*
Y357153D01*
X226186Y357169D01*
Y357175D01*
X226668Y357225D01*
X226679Y357097D01*
X226701Y356987D01*
X226734Y356887D01*
X226773Y356810D01*
X226806Y356743D01*
X226839Y356699D01*
X226861Y356671D01*
X226873Y356660D01*
X226956Y356594D01*
X227044Y356544D01*
X227138Y356505D01*
X227221Y356483D01*
X227299Y356466D01*
X227365Y356461D01*
X227388Y356455D01*
X227421D01*
X227537Y356461D01*
X227642Y356483D01*
X227731Y356516D01*
X227808Y356549D01*
X227869Y356588D01*
X227908Y356616D01*
X227936Y356638D01*
X227947Y356649D01*
X228013Y356726D01*
X228063Y356804D01*
X228102Y356881D01*
X228124Y356959D01*
X228141Y357020D01*
X228146Y357075D01*
X228152Y357108D01*
Y357114D01*
Y357120D01*
X228141Y357219D01*
X228118Y357324D01*
X228080Y357419D01*
X228041Y357507D01*
X227997Y357579D01*
X227958Y357640D01*
X227947Y357662D01*
X227936Y357679D01*
X227925Y357684D01*
Y357690D01*
X227880Y357751D01*
X227825Y357812D01*
X227764Y357878D01*
X227698Y357945D01*
X227559Y358078D01*
X227421Y358210D01*
X227349Y358271D01*
X227288Y358327D01*
X227227Y358377D01*
X227177Y358421D01*
X227138Y358454D01*
X227105Y358482D01*
X227083Y358498D01*
X227078Y358504D01*
X226939Y358620D01*
X226812Y358731D01*
X226707Y358831D01*
X226623Y358914D01*
X226551Y358986D01*
X226502Y359035D01*
X226474Y359069D01*
X226463Y359074D01*
Y359080D01*
X226385Y359174D01*
X226324Y359263D01*
X226269Y359351D01*
X226225Y359429D01*
X226192Y359495D01*
X226169Y359545D01*
X226158Y359578D01*
X226153Y359584D01*
Y359589D01*
X226131Y359650D01*
X226119Y359706D01*
X226108Y359761D01*
X226103Y359811D01*
X226097Y359855D01*
Y359888D01*
Y359910D01*
Y359916D01*
X228639D01*
Y359462D01*
D02*
G37*
G36*
X230212Y359706D02*
X230239Y359512D01*
X230267Y359334D01*
X230284Y359251D01*
X230300Y359174D01*
X230311Y359107D01*
X230328Y359047D01*
X230339Y358991D01*
X230350Y358947D01*
X230361Y358914D01*
X230367Y358886D01*
X230372Y358869D01*
Y358864D01*
X230455Y358609D01*
X230544Y358371D01*
X230588Y358255D01*
X230632Y358144D01*
X230682Y358044D01*
X230727Y357945D01*
X230765Y357856D01*
X230804Y357779D01*
X230837Y357712D01*
X230865Y357651D01*
X230893Y357601D01*
X230909Y357568D01*
X230920Y357546D01*
X230926Y357540D01*
X230992Y357424D01*
X231059Y357308D01*
X231125Y357203D01*
X231192Y357103D01*
X231252Y357014D01*
X231313Y356926D01*
X231374Y356848D01*
X231424Y356782D01*
X231474Y356715D01*
X231518Y356660D01*
X231563Y356616D01*
X231596Y356577D01*
X231618Y356544D01*
X231640Y356522D01*
X231651Y356511D01*
X231657Y356505D01*
Y356134D01*
X229176D01*
Y356588D01*
X231053D01*
X230920Y356749D01*
X230793Y356920D01*
X230682Y357086D01*
X230577Y357247D01*
X230533Y357319D01*
X230494Y357385D01*
X230455Y357446D01*
X230427Y357496D01*
X230405Y357540D01*
X230389Y357568D01*
X230378Y357590D01*
X230372Y357596D01*
X230261Y357817D01*
X230162Y358039D01*
X230079Y358249D01*
X230045Y358343D01*
X230012Y358437D01*
X229979Y358521D01*
X229957Y358598D01*
X229935Y358665D01*
X229918Y358720D01*
X229901Y358770D01*
X229890Y358803D01*
X229885Y358825D01*
Y358831D01*
X229830Y359058D01*
X229807Y359168D01*
X229791Y359268D01*
X229774Y359362D01*
X229757Y359456D01*
X229746Y359534D01*
X229735Y359611D01*
X229730Y359678D01*
X229724Y359739D01*
X229719Y359794D01*
Y359838D01*
X229713Y359872D01*
Y359894D01*
Y359910D01*
Y359916D01*
X230195D01*
X230212Y359706D01*
D02*
G37*
G36*
X287291Y278727D02*
X286329Y276703D01*
X286155Y276877D01*
X286040Y276982D01*
X285935Y277079D01*
X285825Y277161D01*
X285720Y277239D01*
X285615Y277307D01*
X285514Y277362D01*
X285418Y277413D01*
X285331Y277463D01*
X285248Y277500D01*
X285170Y277532D01*
X285102Y277555D01*
X285047Y277573D01*
X285005Y277587D01*
X284969Y277596D01*
X284951Y277605D01*
X284941D01*
X284827Y277628D01*
X284717Y277637D01*
X284616D01*
X284520Y277633D01*
X284433Y277619D01*
X284346Y277596D01*
X284277Y277573D01*
X284204Y277546D01*
X284090Y277486D01*
X284048Y277454D01*
X284007Y277431D01*
X283980Y277404D01*
X283957Y277390D01*
X283943Y277376D01*
X283938Y277372D01*
X283879Y277303D01*
X283828Y277225D01*
X283801Y277152D01*
X283778Y277083D01*
X283760Y277019D01*
X283755Y276969D01*
X283751Y276937D01*
Y276927D01*
X283760Y276836D01*
X283778Y276753D01*
X283806Y276680D01*
X283838Y276621D01*
X283870Y276570D01*
X283892Y276529D01*
X283925Y276497D01*
X283989Y276442D01*
X284048Y276401D01*
X284067Y276382D01*
X284085Y276373D01*
X284099Y276369D01*
X284103Y276364D01*
X284158Y276346D01*
X284218Y276323D01*
X284332Y276291D01*
X284383Y276277D01*
X284424Y276273D01*
X284451Y276263D01*
X284460D01*
X284584Y276240D01*
X284689Y276217D01*
X284772Y276199D01*
X284836Y276181D01*
X284886Y276167D01*
X284914Y276158D01*
X284937Y276153D01*
X284941Y276149D01*
X285028Y276108D01*
X285093Y276062D01*
X285120Y276043D01*
X285152Y276011D01*
X285180Y275975D01*
X285207Y275938D01*
X285230Y275860D01*
X285239Y275824D01*
X285244Y275801D01*
Y275782D01*
Y275773D01*
X285239Y275723D01*
X285230Y275677D01*
X285212Y275641D01*
X285193Y275604D01*
X285175Y275576D01*
X285161Y275553D01*
X285152Y275544D01*
X285147Y275540D01*
X285097Y275499D01*
X285037Y275476D01*
X284983Y275457D01*
X284923Y275453D01*
X284873Y275448D01*
X284831Y275453D01*
X284804D01*
X284795D01*
X284667Y275489D01*
X284548Y275544D01*
X284428Y275618D01*
X284328Y275691D01*
X284236Y275764D01*
X284199Y275792D01*
X284163Y275819D01*
X284103Y275879D01*
X283984Y276007D01*
X283888Y276140D01*
X283806Y276268D01*
X283741Y276378D01*
X283691Y276483D01*
X283668Y276524D01*
X283654Y276556D01*
X283641Y276588D01*
X283636Y276611D01*
X283631Y276625D01*
X283627Y276630D01*
X283586Y276790D01*
X283563Y276941D01*
X283549Y277083D01*
X283558Y277211D01*
X283563Y277317D01*
X283577Y277404D01*
X283586Y277431D01*
X283590Y277454D01*
X283586Y277468D01*
X283590Y277472D01*
X283636Y277619D01*
X283691Y277756D01*
X283755Y277875D01*
X283815Y277972D01*
X283874Y278050D01*
X283902Y278086D01*
X283920Y278114D01*
X283938Y278132D01*
X283952Y278146D01*
X283961Y278155D01*
X283966Y278159D01*
X284048Y278233D01*
X284131Y278297D01*
X284222Y278352D01*
X284309Y278402D01*
X284483Y278466D01*
X284570Y278489D01*
X284648Y278512D01*
X284726Y278526D01*
X284795Y278530D01*
X284859Y278540D01*
X284914D01*
X284955Y278544D01*
X284987Y278540D01*
X285005D01*
X285015D01*
X285152Y278521D01*
X285294Y278489D01*
X285431Y278443D01*
X285569Y278388D01*
X285702Y278329D01*
X285830Y278265D01*
X285949Y278201D01*
X286059Y278127D01*
X286164Y278059D01*
X286260Y277990D01*
X286338Y277930D01*
X286411Y277875D01*
X286467Y277830D01*
X286512Y277793D01*
X286544Y277761D01*
X286732Y278159D01*
X285564Y279327D01*
X285908Y280110D01*
X287291Y278727D01*
D02*
G37*
G36*
X288450Y277120D02*
X288564Y277097D01*
X288669Y277074D01*
X288756Y277042D01*
X288821Y277014D01*
X288843Y277001D01*
X288862Y276992D01*
X288871D01*
X288876Y276987D01*
X288940Y276950D01*
X289008Y276909D01*
X289146Y276808D01*
X289292Y276689D01*
X289430Y276570D01*
X289494Y276515D01*
X289549Y276460D01*
X289604Y276415D01*
X291110Y274908D01*
X291033Y274830D01*
X290964Y274898D01*
X290900Y274953D01*
X290845Y274990D01*
X290799Y275027D01*
X290762Y275045D01*
X290735Y275054D01*
X290721Y275059D01*
X290717Y275063D01*
X290675Y275077D01*
X290634Y275082D01*
X290570D01*
X290524Y275073D01*
X290515D01*
X290511Y275068D01*
X290474Y275050D01*
X290424Y275018D01*
X290369Y274972D01*
X290314Y274926D01*
X290263Y274885D01*
X290222Y274844D01*
X290194Y274816D01*
X290190Y274811D01*
X290185Y274807D01*
X288253Y272874D01*
X288170Y272792D01*
X288111Y272723D01*
X288060Y272663D01*
X288028Y272622D01*
X288005Y272581D01*
X287992Y272558D01*
X287987Y272544D01*
X287982Y272540D01*
X287969Y272471D01*
X287973Y272412D01*
X287978Y272361D01*
X287982Y272348D01*
X287987Y272343D01*
X288005Y272297D01*
X288037Y272247D01*
X288120Y272146D01*
X288161Y272096D01*
X288230Y272027D01*
X288152Y271949D01*
X286636Y273465D01*
X286714Y273543D01*
X286787Y273470D01*
X286851Y273415D01*
X286906Y273378D01*
X286952Y273341D01*
X286989Y273323D01*
X287016Y273305D01*
X287030Y273300D01*
X287034Y273295D01*
X287112Y273282D01*
X287176D01*
X287218Y273286D01*
X287227D01*
X287231Y273291D01*
X287272Y273314D01*
X287318Y273351D01*
X287378Y273392D01*
X287428Y273442D01*
X287483Y273488D01*
X287524Y273529D01*
X287552Y273557D01*
X287556Y273561D01*
X287561Y273566D01*
X288395Y274399D01*
X288202Y274592D01*
X285903Y274198D01*
X284969Y275132D01*
X285051Y275215D01*
X285097Y275178D01*
X285147Y275146D01*
X285193Y275118D01*
X285239Y275100D01*
X285276Y275091D01*
X285303Y275082D01*
X285322Y275073D01*
X285331D01*
X285381Y275068D01*
X285445Y275077D01*
X285518Y275086D01*
X285592Y275096D01*
X285660Y275100D01*
X285715Y275109D01*
X285757Y275114D01*
X285770Y275118D01*
X287479Y275407D01*
X287410Y275530D01*
X287360Y275645D01*
X287323Y275755D01*
X287295Y275847D01*
X287282Y275924D01*
X287268Y275984D01*
Y276021D01*
X287263Y276034D01*
Y276117D01*
X287272Y276199D01*
X287282Y276273D01*
X287300Y276346D01*
X287350Y276479D01*
X287405Y276598D01*
X287465Y276685D01*
X287492Y276721D01*
X287515Y276753D01*
X287534Y276781D01*
X287552Y276799D01*
X287561Y276808D01*
X287566Y276813D01*
X287666Y276905D01*
X287776Y276978D01*
X287882Y277028D01*
X287978Y277069D01*
X288065Y277092D01*
X288129Y277111D01*
X288175Y277120D01*
X288193D01*
X288326Y277124D01*
X288450Y277120D01*
D02*
G37*
G36*
X145543Y313389D02*
X145692Y313363D01*
X145821Y313318D01*
X145938Y313273D01*
X146029Y313228D01*
X146067Y313202D01*
X146100Y313182D01*
X146132Y313169D01*
X146152Y313156D01*
X146158Y313143D01*
X146165D01*
X146288Y313033D01*
X146398Y312917D01*
X146502Y312787D01*
X146579Y312664D01*
X146644Y312547D01*
X146670Y312502D01*
X146696Y312457D01*
X146709Y312424D01*
X146722Y312398D01*
X146735Y312379D01*
Y312372D01*
X146618Y312327D01*
X146560Y312411D01*
X146502Y312476D01*
X146437Y312541D01*
X146378Y312593D01*
X146314Y312638D01*
X146255Y312677D01*
X146197Y312703D01*
X146139Y312729D01*
X146042Y312761D01*
X145996Y312774D01*
X145957Y312781D01*
X145925Y312787D01*
X145886D01*
X145782Y312781D01*
X145692Y312761D01*
X145614Y312729D01*
X145543Y312696D01*
X145485Y312658D01*
X145446Y312632D01*
X145420Y312606D01*
X145413Y312599D01*
X145349Y312528D01*
X145303Y312457D01*
X145271Y312379D01*
X145251Y312314D01*
X145232Y312249D01*
X145225Y312204D01*
Y312172D01*
Y312159D01*
X145232Y312094D01*
X145239Y312023D01*
X145258Y311964D01*
X145277Y311913D01*
X145297Y311861D01*
X145310Y311828D01*
X145323Y311803D01*
X145329Y311796D01*
X145368Y311731D01*
X145407Y311679D01*
X145446Y311628D01*
X145485Y311595D01*
X145517Y311563D01*
X145536Y311543D01*
X145556Y311530D01*
X145562Y311524D01*
X145621Y311492D01*
X145698Y311459D01*
X145776Y311427D01*
X145854Y311401D01*
X145932Y311375D01*
X145990Y311362D01*
X146016Y311356D01*
X146035Y311349D01*
X146042Y311343D01*
X146048D01*
Y311233D01*
X145847Y311174D01*
X145672Y311096D01*
X145601Y311058D01*
X145530Y311012D01*
X145465Y310973D01*
X145407Y310935D01*
X145355Y310896D01*
X145310Y310857D01*
X145271Y310825D01*
X145245Y310792D01*
X145219Y310766D01*
X145200Y310747D01*
X145193Y310740D01*
X145187Y310734D01*
X145135Y310669D01*
X145090Y310598D01*
X145012Y310462D01*
X144960Y310332D01*
X144928Y310209D01*
X144902Y310106D01*
X144895Y310067D01*
Y310028D01*
X144889Y309995D01*
Y309976D01*
Y309963D01*
Y309957D01*
X144895Y309859D01*
X144915Y309769D01*
X144941Y309691D01*
X144973Y309620D01*
X145005Y309568D01*
X145031Y309529D01*
X145051Y309503D01*
X145057Y309497D01*
X145122Y309438D01*
X145187Y309393D01*
X145251Y309367D01*
X145310Y309341D01*
X145368Y309328D01*
X145407Y309322D01*
X145446D01*
X145549Y309335D01*
X145646Y309361D01*
X145744Y309400D01*
X145828Y309445D01*
X145906Y309484D01*
X145964Y309523D01*
X146003Y309548D01*
X146009Y309562D01*
X146016D01*
X146113Y309646D01*
X146197Y309711D01*
X146255Y309756D01*
X146301Y309788D01*
X146333Y309814D01*
X146353Y309827D01*
X146365Y309834D01*
X146430Y309859D01*
X146495Y309872D01*
X146514Y309879D01*
X146553D01*
X146605Y309872D01*
X146650Y309866D01*
X146722Y309827D01*
X146754Y309808D01*
X146774Y309795D01*
X146786Y309782D01*
X146793Y309775D01*
X146825Y309736D01*
X146851Y309697D01*
X146864Y309659D01*
X146877Y309620D01*
X146884Y309587D01*
X146890Y309562D01*
Y309542D01*
Y309536D01*
X146884Y309464D01*
X146864Y309406D01*
X146832Y309348D01*
X146799Y309302D01*
X146774Y309270D01*
X146741Y309238D01*
X146722Y309225D01*
X146715Y309218D01*
X146670Y309186D01*
X146612Y309160D01*
X146495Y309115D01*
X146365Y309089D01*
X146236Y309063D01*
X146119Y309050D01*
X146067D01*
X146029Y309043D01*
X145938D01*
X145789Y309050D01*
X145653Y309063D01*
X145524Y309082D01*
X145400Y309115D01*
X145290Y309147D01*
X145187Y309186D01*
X145090Y309231D01*
X145005Y309270D01*
X144928Y309315D01*
X144863Y309354D01*
X144804Y309393D01*
X144753Y309426D01*
X144720Y309458D01*
X144688Y309477D01*
X144675Y309490D01*
X144669Y309497D01*
X144584Y309587D01*
X144513Y309678D01*
X144448Y309769D01*
X144390Y309866D01*
X144345Y309957D01*
X144306Y310054D01*
X144273Y310138D01*
X144248Y310229D01*
X144228Y310306D01*
X144215Y310378D01*
X144202Y310442D01*
X144196Y310501D01*
X144189Y310546D01*
Y310585D01*
Y310604D01*
Y310611D01*
X144196Y310753D01*
X144222Y310876D01*
X144248Y310986D01*
X144286Y311084D01*
X144319Y311155D01*
X144351Y311213D01*
X144377Y311245D01*
X144383Y311259D01*
X144461Y311349D01*
X144545Y311433D01*
X144643Y311511D01*
X144727Y311576D01*
X144811Y311621D01*
X144876Y311660D01*
X144902Y311673D01*
X144921Y311686D01*
X144928Y311692D01*
X144934D01*
X144837Y311757D01*
X144746Y311822D01*
X144675Y311880D01*
X144617Y311938D01*
X144578Y311990D01*
X144545Y312029D01*
X144526Y312062D01*
X144520Y312068D01*
X144474Y312146D01*
X144442Y312230D01*
X144416Y312301D01*
X144403Y312372D01*
X144390Y312431D01*
X144383Y312476D01*
Y312502D01*
Y312515D01*
Y312580D01*
X144396Y312645D01*
X144429Y312761D01*
X144474Y312871D01*
X144526Y312962D01*
X144578Y313033D01*
X144623Y313091D01*
X144656Y313124D01*
X144662Y313137D01*
X144669D01*
X144779Y313228D01*
X144902Y313292D01*
X145018Y313338D01*
X145135Y313370D01*
X145232Y313389D01*
X145277Y313396D01*
X145316D01*
X145342Y313402D01*
X145387D01*
X145543Y313389D01*
D02*
G37*
G36*
X151424Y313208D02*
X151327D01*
X151243Y313202D01*
X151178Y313189D01*
X151120Y313182D01*
X151081Y313169D01*
X151055Y313156D01*
X151042Y313150D01*
X151035D01*
X150997Y313130D01*
X150964Y313104D01*
X150919Y313059D01*
X150893Y313020D01*
X150886Y313014D01*
Y313007D01*
X150873Y312968D01*
X150861Y312910D01*
X150854Y312839D01*
X150848Y312768D01*
X150841Y312703D01*
Y312645D01*
Y312606D01*
Y312599D01*
Y312593D01*
Y309859D01*
Y309743D01*
X150848Y309652D01*
X150854Y309574D01*
X150861Y309523D01*
X150873Y309477D01*
X150880Y309451D01*
X150886Y309438D01*
Y309432D01*
X150925Y309374D01*
X150971Y309335D01*
X151010Y309302D01*
X151022Y309296D01*
X151029D01*
X151074Y309277D01*
X151132Y309263D01*
X151262Y309251D01*
X151327Y309244D01*
X151424D01*
Y309134D01*
X149280D01*
Y309244D01*
X149384D01*
X149468Y309251D01*
X149533Y309263D01*
X149591Y309270D01*
X149630Y309283D01*
X149662Y309289D01*
X149675Y309296D01*
X149682D01*
X149747Y309341D01*
X149792Y309387D01*
X149818Y309419D01*
X149824Y309426D01*
Y309432D01*
X149837Y309477D01*
X149844Y309536D01*
X149857Y309607D01*
Y309678D01*
X149863Y309749D01*
Y309808D01*
Y309846D01*
Y309853D01*
Y309859D01*
Y311038D01*
X149591D01*
X148244Y309134D01*
X146923D01*
Y309251D01*
X146981Y309257D01*
X147039Y309270D01*
X147091Y309283D01*
X147136Y309302D01*
X147169Y309322D01*
X147194Y309335D01*
X147214Y309341D01*
X147220Y309348D01*
X147259Y309380D01*
X147298Y309432D01*
X147344Y309490D01*
X147389Y309548D01*
X147434Y309600D01*
X147467Y309646D01*
X147493Y309678D01*
X147499Y309691D01*
X148503Y311103D01*
X148367Y311142D01*
X148250Y311187D01*
X148147Y311239D01*
X148062Y311284D01*
X147998Y311330D01*
X147946Y311362D01*
X147920Y311388D01*
X147907Y311395D01*
X147849Y311453D01*
X147797Y311518D01*
X147752Y311576D01*
X147713Y311641D01*
X147654Y311770D01*
X147609Y311893D01*
X147590Y311997D01*
X147583Y312042D01*
X147577Y312081D01*
X147570Y312113D01*
Y312139D01*
Y312152D01*
Y312159D01*
X147577Y312295D01*
X147603Y312424D01*
X147641Y312534D01*
X147680Y312632D01*
X147726Y312709D01*
X147758Y312768D01*
X147784Y312806D01*
X147797Y312819D01*
X147888Y312917D01*
X147978Y313001D01*
X148075Y313065D01*
X148166Y313124D01*
X148250Y313163D01*
X148315Y313189D01*
X148341Y313195D01*
X148360Y313202D01*
X148367Y313208D01*
X148373D01*
X148445Y313228D01*
X148522Y313247D01*
X148691Y313273D01*
X148878Y313292D01*
X149060Y313305D01*
X149144Y313312D01*
X149222D01*
X149293Y313318D01*
X151424D01*
Y313208D01*
D02*
G37*
G36*
X326405Y245393D02*
X326353Y245283D01*
X326269Y245315D01*
X326198Y245341D01*
X326133Y245354D01*
X326074Y245367D01*
X326029Y245373D01*
X325997Y245380D01*
X325971D01*
X325900Y245373D01*
X325841Y245354D01*
X325809Y245334D01*
X325796Y245328D01*
X325744Y245289D01*
X325712Y245250D01*
X325699Y245218D01*
X325692Y245212D01*
Y245205D01*
X325679Y245166D01*
X325673Y245121D01*
X325666Y245056D01*
Y244998D01*
X325660Y244939D01*
Y244888D01*
Y244855D01*
Y244849D01*
Y244842D01*
Y242673D01*
Y242601D01*
Y242537D01*
X325666Y242426D01*
X325673Y242336D01*
X325679Y242264D01*
X325692Y242219D01*
X325699Y242187D01*
X325705Y242167D01*
Y242161D01*
X325725Y242122D01*
X325744Y242090D01*
X325796Y242038D01*
X325841Y242005D01*
X325854Y241992D01*
X325861D01*
X325906Y241973D01*
X325964Y241960D01*
X326087Y241941D01*
X326146D01*
X326191Y241934D01*
X326346D01*
Y241824D01*
X324144D01*
Y241934D01*
X324326D01*
X324397Y241947D01*
X324455Y241954D01*
X324507Y241966D01*
X324546Y241979D01*
X324572Y241986D01*
X324585Y241999D01*
X324591D01*
X324624Y242025D01*
X324656Y242057D01*
X324695Y242115D01*
X324714Y242135D01*
X324721Y242154D01*
X324727Y242167D01*
Y242174D01*
X324734Y242200D01*
X324740Y242226D01*
X324747Y242297D01*
X324753Y242381D01*
Y242465D01*
X324760Y242543D01*
Y242608D01*
Y242634D01*
Y242653D01*
Y242666D01*
Y242673D01*
Y246092D01*
X324863D01*
X326405Y245393D01*
D02*
G37*
G36*
X331256Y245898D02*
X331159D01*
X331075Y245892D01*
X331010Y245879D01*
X330952Y245872D01*
X330913Y245859D01*
X330887Y245846D01*
X330874Y245840D01*
X330867D01*
X330829Y245820D01*
X330796Y245794D01*
X330751Y245749D01*
X330725Y245710D01*
X330718Y245704D01*
Y245697D01*
X330705Y245658D01*
X330692Y245600D01*
X330686Y245529D01*
X330680Y245458D01*
X330673Y245393D01*
Y245334D01*
Y245296D01*
Y245289D01*
Y245283D01*
Y242549D01*
Y242433D01*
X330680Y242342D01*
X330686Y242264D01*
X330692Y242213D01*
X330705Y242167D01*
X330712Y242141D01*
X330718Y242128D01*
Y242122D01*
X330757Y242064D01*
X330803Y242025D01*
X330841Y241992D01*
X330854Y241986D01*
X330861D01*
X330906Y241966D01*
X330965Y241954D01*
X331094Y241941D01*
X331159Y241934D01*
X331256D01*
Y241824D01*
X329112D01*
Y241934D01*
X329216D01*
X329300Y241941D01*
X329365Y241954D01*
X329423Y241960D01*
X329462Y241973D01*
X329494Y241979D01*
X329507Y241986D01*
X329514D01*
X329579Y242031D01*
X329624Y242077D01*
X329650Y242109D01*
X329656Y242115D01*
Y242122D01*
X329669Y242167D01*
X329676Y242226D01*
X329689Y242297D01*
Y242368D01*
X329695Y242439D01*
Y242498D01*
Y242537D01*
Y242543D01*
Y242549D01*
Y243728D01*
X329423D01*
X328076Y241824D01*
X326754D01*
Y241941D01*
X326813Y241947D01*
X326871Y241960D01*
X326923Y241973D01*
X326968Y241992D01*
X327001Y242012D01*
X327026Y242025D01*
X327046Y242031D01*
X327052Y242038D01*
X327091Y242070D01*
X327130Y242122D01*
X327175Y242180D01*
X327221Y242239D01*
X327266Y242290D01*
X327299Y242336D01*
X327324Y242368D01*
X327331Y242381D01*
X328335Y243793D01*
X328199Y243832D01*
X328082Y243877D01*
X327979Y243929D01*
X327894Y243974D01*
X327830Y244020D01*
X327778Y244052D01*
X327752Y244078D01*
X327739Y244084D01*
X327681Y244143D01*
X327629Y244207D01*
X327584Y244266D01*
X327545Y244331D01*
X327486Y244460D01*
X327441Y244583D01*
X327422Y244687D01*
X327415Y244732D01*
X327409Y244771D01*
X327402Y244803D01*
Y244829D01*
Y244842D01*
Y244849D01*
X327409Y244985D01*
X327435Y245114D01*
X327473Y245224D01*
X327512Y245322D01*
X327558Y245399D01*
X327590Y245458D01*
X327616Y245497D01*
X327629Y245509D01*
X327720Y245607D01*
X327810Y245691D01*
X327907Y245756D01*
X327998Y245814D01*
X328082Y245853D01*
X328147Y245879D01*
X328173Y245885D01*
X328192Y245892D01*
X328199Y245898D01*
X328205D01*
X328277Y245917D01*
X328354Y245937D01*
X328523Y245963D01*
X328711Y245982D01*
X328892Y245995D01*
X328976Y246002D01*
X329054D01*
X329125Y246008D01*
X331256D01*
Y245898D01*
D02*
G37*
G36*
X310654Y188942D02*
X310862Y188910D01*
X311049Y188858D01*
X311140Y188832D01*
X311218Y188806D01*
X311296Y188780D01*
X311360Y188755D01*
X311419Y188729D01*
X311470Y188703D01*
X311509Y188683D01*
X311535Y188670D01*
X311555Y188664D01*
X311561Y188657D01*
X311749Y188534D01*
X311917Y188398D01*
X312060Y188262D01*
X312183Y188126D01*
X312235Y188068D01*
X312274Y188010D01*
X312312Y187958D01*
X312345Y187913D01*
X312371Y187874D01*
X312390Y187848D01*
X312397Y187828D01*
X312403Y187822D01*
X312455Y187718D01*
X312507Y187621D01*
X312584Y187420D01*
X312636Y187226D01*
X312675Y187051D01*
X312688Y186973D01*
X312695Y186909D01*
X312708Y186844D01*
Y186792D01*
X312714Y186747D01*
Y186714D01*
Y186695D01*
Y186688D01*
X312708Y186585D01*
X312701Y186481D01*
X312669Y186280D01*
X312623Y186099D01*
X312597Y186015D01*
X312572Y185937D01*
X312546Y185866D01*
X312526Y185801D01*
X312500Y185749D01*
X312481Y185704D01*
X312461Y185665D01*
X312448Y185639D01*
X312435Y185620D01*
Y185613D01*
X312319Y185438D01*
X312189Y185283D01*
X312053Y185147D01*
X311924Y185037D01*
X311814Y184953D01*
X311762Y184920D01*
X311716Y184894D01*
X311684Y184868D01*
X311652Y184855D01*
X311639Y184849D01*
X311632Y184842D01*
X311432Y184752D01*
X311231Y184687D01*
X311030Y184642D01*
X310842Y184609D01*
X310764Y184596D01*
X310687Y184590D01*
X310616Y184583D01*
X310557D01*
X310512Y184577D01*
X310447D01*
X310259Y184583D01*
X310091Y184603D01*
X309942Y184629D01*
X309812Y184661D01*
X309754Y184674D01*
X309702Y184687D01*
X309663Y184700D01*
X309625Y184713D01*
X309599Y184726D01*
X309579Y184732D01*
X309566Y184739D01*
X309560D01*
X309417Y184810D01*
X309281Y184894D01*
X309158Y184985D01*
X309048Y185069D01*
X308951Y185153D01*
X308880Y185218D01*
X308854Y185244D01*
X308834Y185263D01*
X308828Y185270D01*
X308821Y185276D01*
Y185633D01*
X308957Y185484D01*
X309087Y185361D01*
X309203Y185257D01*
X309307Y185179D01*
X309398Y185114D01*
X309463Y185069D01*
X309489Y185056D01*
X309508Y185043D01*
X309514Y185037D01*
X309521D01*
X309644Y184978D01*
X309767Y184940D01*
X309890Y184907D01*
X310000Y184888D01*
X310097Y184875D01*
X310136D01*
X310175Y184868D01*
X310240D01*
X310408Y184881D01*
X310564Y184907D01*
X310700Y184940D01*
X310810Y184985D01*
X310900Y185030D01*
X310965Y185063D01*
X310991Y185082D01*
X311011Y185089D01*
X311017Y185102D01*
X311024D01*
X311127Y185199D01*
X311218Y185315D01*
X311296Y185425D01*
X311354Y185542D01*
X311406Y185646D01*
X311419Y185684D01*
X311438Y185723D01*
X311451Y185756D01*
X311458Y185782D01*
X311464Y185795D01*
Y185801D01*
X311509Y185976D01*
X311542Y186157D01*
X311568Y186326D01*
X311581Y186488D01*
X311587Y186559D01*
X311593Y186624D01*
Y186682D01*
X311600Y186727D01*
Y186772D01*
Y186798D01*
Y186818D01*
Y186824D01*
X311593Y187032D01*
X311568Y187226D01*
X311542Y187401D01*
X311522Y187485D01*
X311503Y187556D01*
X311490Y187621D01*
X311470Y187686D01*
X311458Y187738D01*
X311438Y187777D01*
X311432Y187815D01*
X311419Y187841D01*
X311412Y187854D01*
Y187861D01*
X311347Y187990D01*
X311270Y188107D01*
X311192Y188210D01*
X311114Y188295D01*
X311043Y188366D01*
X310985Y188418D01*
X310946Y188444D01*
X310939Y188457D01*
X310933D01*
X310810Y188534D01*
X310687Y188586D01*
X310564Y188625D01*
X310453Y188657D01*
X310356Y188670D01*
X310317Y188677D01*
X310279D01*
X310253Y188683D01*
X310130D01*
X310046Y188670D01*
X309884Y188638D01*
X309748Y188586D01*
X309618Y188534D01*
X309521Y188476D01*
X309475Y188450D01*
X309443Y188424D01*
X309417Y188405D01*
X309398Y188392D01*
X309385Y188385D01*
X309378Y188379D01*
X309249Y188256D01*
X309145Y188113D01*
X309055Y187971D01*
X308990Y187828D01*
X308938Y187699D01*
X308918Y187647D01*
X308899Y187602D01*
X308886Y187556D01*
X308880Y187530D01*
X308873Y187511D01*
Y187505D01*
X308750D01*
Y188955D01*
X308873D01*
X308886Y188897D01*
X308899Y188852D01*
X308912Y188813D01*
X308931Y188780D01*
X308944Y188755D01*
X308957Y188735D01*
X308964Y188729D01*
X308970Y188722D01*
X308996Y188696D01*
X309029Y188683D01*
X309080Y188657D01*
X309119Y188651D01*
X309139D01*
X309178Y188657D01*
X309229Y188670D01*
X309288Y188683D01*
X309346Y188709D01*
X309404Y188729D01*
X309456Y188742D01*
X309489Y188755D01*
X309495Y188761D01*
X309501D01*
X309683Y188826D01*
X309858Y188871D01*
X310013Y188910D01*
X310149Y188929D01*
X310214Y188942D01*
X310266D01*
X310317Y188949D01*
X310356Y188955D01*
X310544D01*
X310654Y188942D01*
D02*
G37*
G36*
X307992Y188243D02*
X307941Y188133D01*
X307856Y188165D01*
X307785Y188191D01*
X307720Y188204D01*
X307662Y188217D01*
X307617Y188223D01*
X307584Y188230D01*
X307558D01*
X307487Y188223D01*
X307429Y188204D01*
X307396Y188185D01*
X307383Y188178D01*
X307332Y188139D01*
X307299Y188100D01*
X307286Y188068D01*
X307280Y188062D01*
Y188055D01*
X307267Y188016D01*
X307260Y187971D01*
X307254Y187906D01*
Y187848D01*
X307247Y187789D01*
Y187738D01*
Y187705D01*
Y187699D01*
Y187692D01*
Y185522D01*
Y185451D01*
Y185387D01*
X307254Y185276D01*
X307260Y185186D01*
X307267Y185114D01*
X307280Y185069D01*
X307286Y185037D01*
X307293Y185017D01*
Y185011D01*
X307312Y184972D01*
X307332Y184940D01*
X307383Y184888D01*
X307429Y184855D01*
X307442Y184842D01*
X307448D01*
X307493Y184823D01*
X307552Y184810D01*
X307675Y184791D01*
X307733D01*
X307778Y184784D01*
X307934D01*
Y184674D01*
X305732D01*
Y184784D01*
X305913D01*
X305984Y184797D01*
X306043Y184804D01*
X306094Y184816D01*
X306133Y184829D01*
X306159Y184836D01*
X306172Y184849D01*
X306179D01*
X306211Y184875D01*
X306243Y184907D01*
X306282Y184965D01*
X306302Y184985D01*
X306308Y185004D01*
X306315Y185017D01*
Y185024D01*
X306321Y185050D01*
X306328Y185076D01*
X306334Y185147D01*
X306341Y185231D01*
Y185315D01*
X306347Y185393D01*
Y185458D01*
Y185484D01*
Y185503D01*
Y185516D01*
Y185522D01*
Y188942D01*
X306451D01*
X307992Y188243D01*
D02*
G37*
G36*
X303892Y188929D02*
X304041Y188897D01*
X304177Y188852D01*
X304287Y188800D01*
X304385Y188748D01*
X304423Y188722D01*
X304456Y188703D01*
X304482Y188683D01*
X304501Y188670D01*
X304508Y188664D01*
X304514Y188657D01*
X304572Y188599D01*
X304631Y188541D01*
X304734Y188398D01*
X304818Y188256D01*
X304890Y188113D01*
X304948Y187977D01*
X304967Y187925D01*
X304987Y187874D01*
X305000Y187835D01*
X305013Y187802D01*
X305019Y187783D01*
Y187777D01*
X304903Y187738D01*
X304851Y187822D01*
X304799Y187893D01*
X304741Y187958D01*
X304676Y188016D01*
X304618Y188062D01*
X304559Y188100D01*
X304495Y188133D01*
X304436Y188159D01*
X304333Y188191D01*
X304287Y188204D01*
X304249Y188210D01*
X304216Y188217D01*
X304171D01*
X304067Y188210D01*
X303970Y188185D01*
X303886Y188146D01*
X303815Y188107D01*
X303756Y188068D01*
X303717Y188029D01*
X303685Y188003D01*
X303679Y187997D01*
X303614Y187913D01*
X303562Y187822D01*
X303530Y187731D01*
X303504Y187647D01*
X303491Y187576D01*
X303478Y187511D01*
Y187472D01*
Y187466D01*
Y187459D01*
X303491Y187291D01*
X303517Y187129D01*
X303556Y186980D01*
X303594Y186844D01*
X303620Y186779D01*
X303640Y186721D01*
X303659Y186675D01*
X303679Y186630D01*
X303698Y186598D01*
X303704Y186572D01*
X303717Y186559D01*
Y186552D01*
X303769Y186455D01*
X303847Y186339D01*
X303931Y186209D01*
X304035Y186073D01*
X304145Y185924D01*
X304255Y185775D01*
X304495Y185471D01*
X304611Y185328D01*
X304721Y185192D01*
X304818Y185063D01*
X304909Y184959D01*
X304987Y184868D01*
X305039Y184797D01*
X305065Y184771D01*
X305078Y184752D01*
X305084Y184745D01*
X305091Y184739D01*
Y184674D01*
X302636D01*
X302396Y185885D01*
X302513D01*
X302552Y185814D01*
X302584Y185749D01*
X302610Y185704D01*
X302636Y185665D01*
X302655Y185633D01*
X302668Y185613D01*
X302681Y185607D01*
Y185600D01*
X302733Y185561D01*
X302791Y185529D01*
X302830Y185516D01*
X302843Y185509D01*
X302850D01*
X302895Y185503D01*
X302960Y185497D01*
X303024Y185490D01*
X303102D01*
X303167Y185484D01*
X304184D01*
X303996Y185672D01*
X303821Y185846D01*
X303666Y186008D01*
X303530Y186164D01*
X303400Y186300D01*
X303290Y186436D01*
X303193Y186552D01*
X303109Y186656D01*
X303037Y186753D01*
X302979Y186837D01*
X302927Y186909D01*
X302888Y186967D01*
X302856Y187012D01*
X302837Y187045D01*
X302830Y187064D01*
X302824Y187071D01*
X302746Y187226D01*
X302688Y187381D01*
X302649Y187517D01*
X302616Y187647D01*
X302603Y187751D01*
X302597Y187796D01*
Y187835D01*
X302591Y187867D01*
Y187887D01*
Y187899D01*
Y187906D01*
X302597Y187990D01*
X302616Y188074D01*
X302636Y188152D01*
X302662Y188230D01*
X302694Y188295D01*
X302714Y188340D01*
X302733Y188372D01*
X302739Y188385D01*
X302798Y188476D01*
X302869Y188560D01*
X302934Y188631D01*
X303005Y188690D01*
X303063Y188735D01*
X303109Y188768D01*
X303141Y188787D01*
X303154Y188793D01*
X303251Y188845D01*
X303355Y188878D01*
X303452Y188904D01*
X303536Y188923D01*
X303614Y188936D01*
X303679Y188942D01*
X303815D01*
X303892Y188929D01*
D02*
G37*
G36*
X227850Y139412D02*
X228058Y139380D01*
X228245Y139328D01*
X228336Y139302D01*
X228414Y139276D01*
X228491Y139250D01*
X228556Y139225D01*
X228615Y139199D01*
X228666Y139173D01*
X228705Y139153D01*
X228731Y139140D01*
X228751Y139134D01*
X228757Y139127D01*
X228945Y139004D01*
X229113Y138868D01*
X229256Y138732D01*
X229379Y138596D01*
X229431Y138538D01*
X229470Y138480D01*
X229508Y138428D01*
X229541Y138383D01*
X229567Y138344D01*
X229586Y138318D01*
X229593Y138298D01*
X229599Y138292D01*
X229651Y138188D01*
X229703Y138091D01*
X229781Y137890D01*
X229832Y137696D01*
X229871Y137521D01*
X229884Y137443D01*
X229891Y137379D01*
X229904Y137314D01*
Y137262D01*
X229910Y137217D01*
Y137184D01*
Y137165D01*
Y137158D01*
X229904Y137055D01*
X229897Y136951D01*
X229865Y136750D01*
X229819Y136569D01*
X229793Y136485D01*
X229767Y136407D01*
X229742Y136336D01*
X229722Y136271D01*
X229696Y136219D01*
X229677Y136174D01*
X229657Y136135D01*
X229644Y136109D01*
X229632Y136090D01*
Y136083D01*
X229515Y135908D01*
X229385Y135753D01*
X229249Y135617D01*
X229120Y135507D01*
X229010Y135422D01*
X228958Y135390D01*
X228913Y135364D01*
X228880Y135338D01*
X228848Y135325D01*
X228835Y135319D01*
X228828Y135312D01*
X228628Y135222D01*
X228427Y135157D01*
X228226Y135112D01*
X228038Y135079D01*
X227960Y135066D01*
X227883Y135060D01*
X227812Y135053D01*
X227753D01*
X227708Y135047D01*
X227643D01*
X227455Y135053D01*
X227287Y135073D01*
X227138Y135099D01*
X227008Y135131D01*
X226950Y135144D01*
X226898Y135157D01*
X226859Y135170D01*
X226821Y135183D01*
X226795Y135196D01*
X226775Y135202D01*
X226762Y135209D01*
X226756D01*
X226613Y135280D01*
X226477Y135364D01*
X226354Y135455D01*
X226244Y135539D01*
X226147Y135623D01*
X226076Y135688D01*
X226050Y135714D01*
X226030Y135733D01*
X226024Y135740D01*
X226017Y135746D01*
Y136103D01*
X226153Y135954D01*
X226283Y135831D01*
X226399Y135727D01*
X226503Y135649D01*
X226594Y135584D01*
X226659Y135539D01*
X226684Y135526D01*
X226704Y135513D01*
X226710Y135507D01*
X226717D01*
X226840Y135448D01*
X226963Y135410D01*
X227086Y135377D01*
X227196Y135358D01*
X227293Y135345D01*
X227332D01*
X227371Y135338D01*
X227436D01*
X227604Y135351D01*
X227760Y135377D01*
X227896Y135410D01*
X228006Y135455D01*
X228096Y135500D01*
X228161Y135533D01*
X228187Y135552D01*
X228207Y135559D01*
X228213Y135571D01*
X228220D01*
X228323Y135669D01*
X228414Y135785D01*
X228491Y135895D01*
X228550Y136012D01*
X228602Y136116D01*
X228615Y136154D01*
X228634Y136193D01*
X228647Y136226D01*
X228654Y136252D01*
X228660Y136264D01*
Y136271D01*
X228705Y136446D01*
X228738Y136627D01*
X228764Y136796D01*
X228776Y136958D01*
X228783Y137029D01*
X228790Y137094D01*
Y137152D01*
X228796Y137197D01*
Y137242D01*
Y137268D01*
Y137288D01*
Y137294D01*
X228790Y137502D01*
X228764Y137696D01*
X228738Y137871D01*
X228718Y137955D01*
X228699Y138026D01*
X228686Y138091D01*
X228666Y138156D01*
X228654Y138208D01*
X228634Y138246D01*
X228628Y138285D01*
X228615Y138311D01*
X228608Y138324D01*
Y138331D01*
X228543Y138460D01*
X228466Y138577D01*
X228388Y138680D01*
X228310Y138765D01*
X228239Y138836D01*
X228181Y138888D01*
X228142Y138914D01*
X228135Y138927D01*
X228129D01*
X228006Y139004D01*
X227883Y139056D01*
X227760Y139095D01*
X227649Y139127D01*
X227552Y139140D01*
X227514Y139147D01*
X227475D01*
X227449Y139153D01*
X227326D01*
X227241Y139140D01*
X227080Y139108D01*
X226943Y139056D01*
X226814Y139004D01*
X226717Y138946D01*
X226672Y138920D01*
X226639Y138894D01*
X226613Y138875D01*
X226594Y138862D01*
X226581Y138855D01*
X226574Y138849D01*
X226445Y138726D01*
X226341Y138583D01*
X226250Y138441D01*
X226186Y138298D01*
X226134Y138169D01*
X226115Y138117D01*
X226095Y138072D01*
X226082Y138026D01*
X226076Y138000D01*
X226069Y137981D01*
Y137975D01*
X225946D01*
Y139425D01*
X226069D01*
X226082Y139367D01*
X226095Y139322D01*
X226108Y139283D01*
X226127Y139250D01*
X226140Y139225D01*
X226153Y139205D01*
X226160Y139199D01*
X226166Y139192D01*
X226192Y139166D01*
X226225Y139153D01*
X226276Y139127D01*
X226315Y139121D01*
X226335D01*
X226374Y139127D01*
X226425Y139140D01*
X226484Y139153D01*
X226542Y139179D01*
X226600Y139199D01*
X226652Y139212D01*
X226684Y139225D01*
X226691Y139231D01*
X226697D01*
X226879Y139296D01*
X227054Y139341D01*
X227209Y139380D01*
X227345Y139399D01*
X227410Y139412D01*
X227462D01*
X227514Y139419D01*
X227552Y139425D01*
X227740D01*
X227850Y139412D01*
D02*
G37*
G36*
X225188Y138713D02*
X225137Y138603D01*
X225052Y138635D01*
X224981Y138661D01*
X224916Y138674D01*
X224858Y138687D01*
X224813Y138693D01*
X224780Y138700D01*
X224754D01*
X224683Y138693D01*
X224625Y138674D01*
X224592Y138654D01*
X224579Y138648D01*
X224528Y138609D01*
X224495Y138570D01*
X224482Y138538D01*
X224476Y138532D01*
Y138525D01*
X224463Y138486D01*
X224456Y138441D01*
X224450Y138376D01*
Y138318D01*
X224443Y138259D01*
Y138208D01*
Y138175D01*
Y138169D01*
Y138162D01*
Y135992D01*
Y135921D01*
Y135857D01*
X224450Y135746D01*
X224456Y135656D01*
X224463Y135584D01*
X224476Y135539D01*
X224482Y135507D01*
X224489Y135487D01*
Y135481D01*
X224508Y135442D01*
X224528Y135410D01*
X224579Y135358D01*
X224625Y135325D01*
X224638Y135312D01*
X224644D01*
X224690Y135293D01*
X224748Y135280D01*
X224871Y135261D01*
X224929D01*
X224974Y135254D01*
X225130D01*
Y135144D01*
X222928D01*
Y135254D01*
X223109D01*
X223180Y135267D01*
X223239Y135274D01*
X223291Y135287D01*
X223329Y135299D01*
X223355Y135306D01*
X223368Y135319D01*
X223375D01*
X223407Y135345D01*
X223440Y135377D01*
X223478Y135435D01*
X223498Y135455D01*
X223504Y135474D01*
X223511Y135487D01*
Y135494D01*
X223517Y135520D01*
X223524Y135546D01*
X223530Y135617D01*
X223537Y135701D01*
Y135785D01*
X223543Y135863D01*
Y135928D01*
Y135954D01*
Y135973D01*
Y135986D01*
Y135992D01*
Y139412D01*
X223647D01*
X225188Y138713D01*
D02*
G37*
G36*
X222027D02*
X221976Y138603D01*
X221891Y138635D01*
X221820Y138661D01*
X221756Y138674D01*
X221697Y138687D01*
X221652Y138693D01*
X221619Y138700D01*
X221593D01*
X221522Y138693D01*
X221464Y138674D01*
X221432Y138654D01*
X221419Y138648D01*
X221367Y138609D01*
X221334Y138570D01*
X221322Y138538D01*
X221315Y138532D01*
Y138525D01*
X221302Y138486D01*
X221296Y138441D01*
X221289Y138376D01*
Y138318D01*
X221283Y138259D01*
Y138208D01*
Y138175D01*
Y138169D01*
Y138162D01*
Y135992D01*
Y135921D01*
Y135857D01*
X221289Y135746D01*
X221296Y135656D01*
X221302Y135584D01*
X221315Y135539D01*
X221322Y135507D01*
X221328Y135487D01*
Y135481D01*
X221347Y135442D01*
X221367Y135410D01*
X221419Y135358D01*
X221464Y135325D01*
X221477Y135312D01*
X221483D01*
X221529Y135293D01*
X221587Y135280D01*
X221710Y135261D01*
X221768D01*
X221814Y135254D01*
X221969D01*
Y135144D01*
X219767D01*
Y135254D01*
X219948D01*
X220020Y135267D01*
X220078Y135274D01*
X220130Y135287D01*
X220169Y135299D01*
X220194Y135306D01*
X220208Y135319D01*
X220214D01*
X220246Y135345D01*
X220279Y135377D01*
X220318Y135435D01*
X220337Y135455D01*
X220343Y135474D01*
X220350Y135487D01*
Y135494D01*
X220356Y135520D01*
X220363Y135546D01*
X220369Y135617D01*
X220376Y135701D01*
Y135785D01*
X220382Y135863D01*
Y135928D01*
Y135954D01*
Y135973D01*
Y135986D01*
Y135992D01*
Y139412D01*
X220486D01*
X222027Y138713D01*
D02*
G37*
G36*
X258838Y270730D02*
X259046Y270698D01*
X259233Y270646D01*
X259324Y270620D01*
X259402Y270594D01*
X259480Y270568D01*
X259544Y270543D01*
X259603Y270517D01*
X259654Y270491D01*
X259693Y270471D01*
X259719Y270458D01*
X259739Y270452D01*
X259745Y270445D01*
X259933Y270322D01*
X260101Y270186D01*
X260244Y270050D01*
X260367Y269914D01*
X260419Y269856D01*
X260458Y269798D01*
X260496Y269746D01*
X260529Y269701D01*
X260555Y269662D01*
X260574Y269636D01*
X260581Y269616D01*
X260587Y269610D01*
X260639Y269506D01*
X260691Y269409D01*
X260769Y269208D01*
X260820Y269014D01*
X260859Y268839D01*
X260872Y268761D01*
X260879Y268697D01*
X260891Y268632D01*
Y268580D01*
X260898Y268535D01*
Y268502D01*
Y268483D01*
Y268476D01*
X260891Y268373D01*
X260885Y268269D01*
X260853Y268068D01*
X260807Y267887D01*
X260781Y267803D01*
X260756Y267725D01*
X260730Y267654D01*
X260710Y267589D01*
X260684Y267537D01*
X260665Y267492D01*
X260645Y267453D01*
X260632Y267427D01*
X260620Y267408D01*
Y267401D01*
X260503Y267226D01*
X260373Y267071D01*
X260237Y266935D01*
X260108Y266825D01*
X259998Y266740D01*
X259946Y266708D01*
X259900Y266682D01*
X259868Y266656D01*
X259836Y266643D01*
X259823Y266637D01*
X259816Y266630D01*
X259616Y266540D01*
X259415Y266475D01*
X259214Y266430D01*
X259026Y266397D01*
X258948Y266384D01*
X258871Y266378D01*
X258799Y266371D01*
X258741D01*
X258696Y266365D01*
X258631D01*
X258443Y266371D01*
X258275Y266391D01*
X258126Y266417D01*
X257996Y266449D01*
X257938Y266462D01*
X257886Y266475D01*
X257847Y266488D01*
X257808Y266501D01*
X257783Y266514D01*
X257763Y266520D01*
X257750Y266527D01*
X257744D01*
X257601Y266598D01*
X257465Y266682D01*
X257342Y266773D01*
X257232Y266857D01*
X257135Y266941D01*
X257064Y267006D01*
X257038Y267032D01*
X257018Y267051D01*
X257012Y267058D01*
X257005Y267064D01*
Y267421D01*
X257141Y267272D01*
X257271Y267149D01*
X257388Y267045D01*
X257491Y266967D01*
X257582Y266902D01*
X257647Y266857D01*
X257673Y266844D01*
X257692Y266831D01*
X257698Y266825D01*
X257705D01*
X257828Y266766D01*
X257951Y266728D01*
X258074Y266695D01*
X258184Y266676D01*
X258281Y266663D01*
X258320D01*
X258359Y266656D01*
X258424D01*
X258592Y266669D01*
X258748Y266695D01*
X258884Y266728D01*
X258994Y266773D01*
X259084Y266818D01*
X259149Y266851D01*
X259175Y266870D01*
X259195Y266877D01*
X259201Y266889D01*
X259207D01*
X259311Y266987D01*
X259402Y267103D01*
X259480Y267213D01*
X259538Y267330D01*
X259590Y267434D01*
X259603Y267472D01*
X259622Y267511D01*
X259635Y267544D01*
X259641Y267570D01*
X259648Y267582D01*
Y267589D01*
X259693Y267764D01*
X259726Y267945D01*
X259752Y268114D01*
X259764Y268276D01*
X259771Y268347D01*
X259778Y268412D01*
Y268470D01*
X259784Y268515D01*
Y268561D01*
Y268587D01*
Y268606D01*
Y268612D01*
X259778Y268820D01*
X259752Y269014D01*
X259726Y269189D01*
X259706Y269273D01*
X259687Y269344D01*
X259674Y269409D01*
X259654Y269474D01*
X259641Y269526D01*
X259622Y269564D01*
X259616Y269603D01*
X259603Y269629D01*
X259596Y269642D01*
Y269649D01*
X259531Y269778D01*
X259454Y269895D01*
X259376Y269998D01*
X259298Y270083D01*
X259227Y270154D01*
X259169Y270206D01*
X259130Y270232D01*
X259123Y270245D01*
X259117D01*
X258994Y270322D01*
X258871Y270374D01*
X258748Y270413D01*
X258638Y270445D01*
X258540Y270458D01*
X258501Y270465D01*
X258463D01*
X258437Y270471D01*
X258314D01*
X258230Y270458D01*
X258068Y270426D01*
X257931Y270374D01*
X257802Y270322D01*
X257705Y270264D01*
X257659Y270238D01*
X257627Y270212D01*
X257601Y270193D01*
X257582Y270180D01*
X257569Y270173D01*
X257562Y270167D01*
X257433Y270044D01*
X257329Y269901D01*
X257239Y269759D01*
X257174Y269616D01*
X257122Y269487D01*
X257103Y269435D01*
X257083Y269390D01*
X257070Y269344D01*
X257064Y269318D01*
X257057Y269299D01*
Y269293D01*
X256934D01*
Y270743D01*
X257057D01*
X257070Y270685D01*
X257083Y270640D01*
X257096Y270601D01*
X257115Y270568D01*
X257128Y270543D01*
X257141Y270523D01*
X257148Y270517D01*
X257154Y270510D01*
X257180Y270484D01*
X257213Y270471D01*
X257264Y270445D01*
X257303Y270439D01*
X257323D01*
X257362Y270445D01*
X257413Y270458D01*
X257472Y270471D01*
X257530Y270497D01*
X257588Y270517D01*
X257640Y270530D01*
X257673Y270543D01*
X257679Y270549D01*
X257685D01*
X257867Y270614D01*
X258042Y270659D01*
X258197Y270698D01*
X258333Y270717D01*
X258398Y270730D01*
X258450D01*
X258501Y270737D01*
X258540Y270743D01*
X258728D01*
X258838Y270730D01*
D02*
G37*
G36*
X256176Y270031D02*
X256124Y269921D01*
X256040Y269953D01*
X255969Y269979D01*
X255904Y269992D01*
X255846Y270005D01*
X255801Y270011D01*
X255768Y270018D01*
X255742D01*
X255671Y270011D01*
X255613Y269992D01*
X255580Y269972D01*
X255567Y269966D01*
X255516Y269927D01*
X255483Y269888D01*
X255470Y269856D01*
X255464Y269849D01*
Y269843D01*
X255451Y269804D01*
X255444Y269759D01*
X255438Y269694D01*
Y269636D01*
X255431Y269577D01*
Y269526D01*
Y269493D01*
Y269487D01*
Y269480D01*
Y267311D01*
Y267239D01*
Y267174D01*
X255438Y267064D01*
X255444Y266974D01*
X255451Y266902D01*
X255464Y266857D01*
X255470Y266825D01*
X255477Y266805D01*
Y266799D01*
X255496Y266760D01*
X255516Y266728D01*
X255567Y266676D01*
X255613Y266643D01*
X255626Y266630D01*
X255632D01*
X255678Y266611D01*
X255736Y266598D01*
X255859Y266579D01*
X255917D01*
X255963Y266572D01*
X256118D01*
Y266462D01*
X253916D01*
Y266572D01*
X254097D01*
X254168Y266585D01*
X254227Y266591D01*
X254279Y266604D01*
X254317Y266617D01*
X254343Y266624D01*
X254356Y266637D01*
X254363D01*
X254395Y266663D01*
X254428Y266695D01*
X254466Y266754D01*
X254486Y266773D01*
X254492Y266792D01*
X254499Y266805D01*
Y266812D01*
X254505Y266838D01*
X254512Y266864D01*
X254518Y266935D01*
X254525Y267019D01*
Y267103D01*
X254531Y267181D01*
Y267246D01*
Y267272D01*
Y267291D01*
Y267304D01*
Y267311D01*
Y270730D01*
X254635D01*
X256176Y270031D01*
D02*
G37*
G36*
X251992Y270717D02*
X252115Y270692D01*
X252232Y270653D01*
X252335Y270607D01*
X252420Y270555D01*
X252484Y270517D01*
X252510Y270504D01*
X252530Y270491D01*
X252536Y270478D01*
X252543D01*
X252653Y270374D01*
X252750Y270257D01*
X252834Y270135D01*
X252899Y270018D01*
X252951Y269914D01*
X252970Y269869D01*
X252983Y269830D01*
X252996Y269798D01*
X253009Y269772D01*
X253015Y269759D01*
Y269752D01*
X253080Y269532D01*
X253126Y269318D01*
X253158Y269105D01*
X253171Y269007D01*
X253177Y268917D01*
X253190Y268826D01*
Y268748D01*
X253197Y268677D01*
X253203Y268619D01*
Y268567D01*
Y268535D01*
Y268509D01*
Y268502D01*
X253197Y268314D01*
X253184Y268139D01*
X253165Y267971D01*
X253139Y267829D01*
X253126Y267764D01*
X253113Y267706D01*
X253106Y267654D01*
X253093Y267615D01*
X253087Y267576D01*
X253080Y267550D01*
X253074Y267537D01*
Y267531D01*
X253035Y267408D01*
X252990Y267297D01*
X252951Y267200D01*
X252912Y267116D01*
X252880Y267051D01*
X252854Y267006D01*
X252841Y266980D01*
X252834Y266967D01*
X252763Y266864D01*
X252685Y266779D01*
X252614Y266702D01*
X252549Y266643D01*
X252491Y266591D01*
X252446Y266553D01*
X252420Y266533D01*
X252407Y266527D01*
X252309Y266475D01*
X252219Y266443D01*
X252122Y266417D01*
X252038Y266397D01*
X251966Y266384D01*
X251908Y266378D01*
X251856D01*
X251759Y266384D01*
X251668Y266397D01*
X251584Y266417D01*
X251513Y266443D01*
X251455Y266462D01*
X251409Y266481D01*
X251383Y266494D01*
X251370Y266501D01*
X251286Y266553D01*
X251215Y266604D01*
X251144Y266663D01*
X251085Y266715D01*
X251033Y266766D01*
X251001Y266805D01*
X250975Y266831D01*
X250969Y266838D01*
X250904Y266922D01*
X250846Y267013D01*
X250800Y267103D01*
X250755Y267187D01*
X250729Y267265D01*
X250703Y267330D01*
X250690Y267369D01*
X250684Y267375D01*
Y267382D01*
X250625Y267589D01*
X250580Y267796D01*
X250548Y267991D01*
X250522Y268172D01*
X250515Y268256D01*
X250509Y268327D01*
Y268392D01*
X250502Y268450D01*
Y268496D01*
Y268528D01*
Y268548D01*
Y268554D01*
X250509Y268807D01*
X250535Y269040D01*
X250548Y269150D01*
X250567Y269254D01*
X250587Y269351D01*
X250606Y269435D01*
X250625Y269519D01*
X250645Y269590D01*
X250664Y269655D01*
X250677Y269707D01*
X250690Y269752D01*
X250703Y269785D01*
X250710Y269804D01*
Y269811D01*
X250774Y269960D01*
X250846Y270096D01*
X250923Y270206D01*
X251001Y270303D01*
X251066Y270381D01*
X251124Y270432D01*
X251163Y270465D01*
X251170Y270478D01*
X251176D01*
X251299Y270562D01*
X251416Y270627D01*
X251532Y270672D01*
X251636Y270698D01*
X251727Y270717D01*
X251791Y270724D01*
X251817Y270730D01*
X251856D01*
X251992Y270717D01*
D02*
G37*
G36*
X181368Y185894D02*
X181576Y185862D01*
X181763Y185810D01*
X181854Y185784D01*
X181932Y185758D01*
X182010Y185732D01*
X182074Y185707D01*
X182133Y185681D01*
X182184Y185655D01*
X182223Y185635D01*
X182249Y185622D01*
X182269Y185616D01*
X182275Y185609D01*
X182463Y185486D01*
X182631Y185350D01*
X182774Y185214D01*
X182897Y185078D01*
X182949Y185020D01*
X182988Y184962D01*
X183026Y184910D01*
X183059Y184865D01*
X183085Y184826D01*
X183104Y184800D01*
X183111Y184780D01*
X183117Y184774D01*
X183169Y184670D01*
X183221Y184573D01*
X183298Y184372D01*
X183350Y184178D01*
X183389Y184003D01*
X183402Y183925D01*
X183409Y183861D01*
X183421Y183796D01*
Y183744D01*
X183428Y183699D01*
Y183666D01*
Y183647D01*
Y183640D01*
X183421Y183537D01*
X183415Y183433D01*
X183383Y183232D01*
X183337Y183051D01*
X183311Y182967D01*
X183286Y182889D01*
X183260Y182818D01*
X183240Y182753D01*
X183214Y182701D01*
X183195Y182656D01*
X183175Y182617D01*
X183162Y182591D01*
X183150Y182572D01*
Y182565D01*
X183033Y182390D01*
X182903Y182235D01*
X182767Y182099D01*
X182638Y181989D01*
X182528Y181905D01*
X182476Y181872D01*
X182430Y181846D01*
X182398Y181820D01*
X182366Y181807D01*
X182353Y181801D01*
X182346Y181794D01*
X182146Y181704D01*
X181945Y181639D01*
X181744Y181594D01*
X181556Y181561D01*
X181478Y181548D01*
X181401Y181542D01*
X181329Y181535D01*
X181271D01*
X181226Y181529D01*
X181161D01*
X180973Y181535D01*
X180805Y181555D01*
X180656Y181581D01*
X180526Y181613D01*
X180468Y181626D01*
X180416Y181639D01*
X180377Y181652D01*
X180338Y181665D01*
X180313Y181678D01*
X180293Y181684D01*
X180280Y181691D01*
X180274D01*
X180131Y181762D01*
X179995Y181846D01*
X179872Y181937D01*
X179762Y182021D01*
X179665Y182105D01*
X179594Y182170D01*
X179568Y182196D01*
X179548Y182215D01*
X179542Y182222D01*
X179535Y182228D01*
Y182585D01*
X179671Y182436D01*
X179801Y182313D01*
X179918Y182209D01*
X180021Y182131D01*
X180112Y182066D01*
X180177Y182021D01*
X180203Y182008D01*
X180222Y181995D01*
X180228Y181989D01*
X180235D01*
X180358Y181930D01*
X180481Y181892D01*
X180604Y181859D01*
X180714Y181840D01*
X180811Y181827D01*
X180850D01*
X180889Y181820D01*
X180954D01*
X181122Y181833D01*
X181278Y181859D01*
X181414Y181892D01*
X181524Y181937D01*
X181614Y181982D01*
X181679Y182015D01*
X181705Y182034D01*
X181725Y182041D01*
X181731Y182054D01*
X181737D01*
X181841Y182151D01*
X181932Y182267D01*
X182010Y182377D01*
X182068Y182494D01*
X182120Y182598D01*
X182133Y182636D01*
X182152Y182675D01*
X182165Y182708D01*
X182171Y182734D01*
X182178Y182747D01*
Y182753D01*
X182223Y182928D01*
X182256Y183109D01*
X182282Y183278D01*
X182295Y183440D01*
X182301Y183511D01*
X182307Y183576D01*
Y183634D01*
X182314Y183679D01*
Y183724D01*
Y183750D01*
Y183770D01*
Y183776D01*
X182307Y183984D01*
X182282Y184178D01*
X182256Y184353D01*
X182236Y184437D01*
X182217Y184508D01*
X182204Y184573D01*
X182184Y184638D01*
X182171Y184690D01*
X182152Y184729D01*
X182146Y184767D01*
X182133Y184793D01*
X182126Y184806D01*
Y184813D01*
X182061Y184942D01*
X181984Y185059D01*
X181906Y185162D01*
X181828Y185247D01*
X181757Y185318D01*
X181699Y185370D01*
X181660Y185396D01*
X181653Y185409D01*
X181647D01*
X181524Y185486D01*
X181401Y185538D01*
X181278Y185577D01*
X181168Y185609D01*
X181070Y185622D01*
X181031Y185629D01*
X180993D01*
X180967Y185635D01*
X180844D01*
X180760Y185622D01*
X180598Y185590D01*
X180462Y185538D01*
X180332Y185486D01*
X180235Y185428D01*
X180189Y185402D01*
X180157Y185376D01*
X180131Y185357D01*
X180112Y185344D01*
X180099Y185337D01*
X180092Y185331D01*
X179963Y185208D01*
X179859Y185065D01*
X179769Y184923D01*
X179704Y184780D01*
X179652Y184651D01*
X179632Y184599D01*
X179613Y184554D01*
X179600Y184508D01*
X179594Y184482D01*
X179587Y184463D01*
Y184457D01*
X179464D01*
Y185907D01*
X179587D01*
X179600Y185849D01*
X179613Y185804D01*
X179626Y185765D01*
X179645Y185732D01*
X179658Y185707D01*
X179671Y185687D01*
X179678Y185681D01*
X179684Y185674D01*
X179710Y185648D01*
X179743Y185635D01*
X179794Y185609D01*
X179833Y185603D01*
X179853D01*
X179892Y185609D01*
X179943Y185622D01*
X180002Y185635D01*
X180060Y185661D01*
X180118Y185681D01*
X180170Y185694D01*
X180203Y185707D01*
X180209Y185713D01*
X180215D01*
X180397Y185778D01*
X180572Y185823D01*
X180727Y185862D01*
X180863Y185881D01*
X180928Y185894D01*
X180980D01*
X181031Y185901D01*
X181070Y185907D01*
X181258D01*
X181368Y185894D01*
D02*
G37*
G36*
X177735Y185888D02*
X177851Y185862D01*
X177968Y185836D01*
X178065Y185797D01*
X178149Y185765D01*
X178207Y185732D01*
X178234Y185720D01*
X178253Y185707D01*
X178259Y185700D01*
X178266D01*
X178376Y185622D01*
X178473Y185538D01*
X178557Y185447D01*
X178629Y185363D01*
X178680Y185285D01*
X178719Y185227D01*
X178732Y185201D01*
X178745Y185182D01*
X178752Y185175D01*
Y185169D01*
X178810Y185039D01*
X178849Y184910D01*
X178881Y184780D01*
X178901Y184664D01*
X178913Y184567D01*
Y184521D01*
X178920Y184489D01*
Y184457D01*
Y184437D01*
Y184424D01*
Y184418D01*
X178913Y184307D01*
X178907Y184204D01*
X178868Y184023D01*
X178849Y183938D01*
X178816Y183861D01*
X178790Y183789D01*
X178758Y183724D01*
X178732Y183666D01*
X178700Y183621D01*
X178674Y183576D01*
X178654Y183543D01*
X178629Y183517D01*
X178616Y183491D01*
X178609Y183485D01*
X178603Y183478D01*
X178544Y183420D01*
X178480Y183368D01*
X178415Y183323D01*
X178344Y183284D01*
X178214Y183226D01*
X178091Y183187D01*
X177981Y183161D01*
X177929Y183155D01*
X177890Y183148D01*
X177858Y183142D01*
X177812D01*
X177702Y183148D01*
X177657Y183155D01*
X177612Y183161D01*
X177579D01*
X177553Y183167D01*
X177534Y183174D01*
X177528D01*
X177417Y183213D01*
X177314Y183258D01*
X177268Y183278D01*
X177236Y183297D01*
X177210Y183304D01*
X177204Y183310D01*
X177243Y183148D01*
X177281Y183006D01*
X177333Y182870D01*
X177379Y182759D01*
X177424Y182662D01*
X177443Y182624D01*
X177463Y182591D01*
X177476Y182565D01*
X177489Y182546D01*
X177495Y182539D01*
Y182533D01*
X177579Y182410D01*
X177670Y182306D01*
X177767Y182209D01*
X177851Y182125D01*
X177936Y182060D01*
X178000Y182008D01*
X178026Y181995D01*
X178046Y181982D01*
X178052Y181969D01*
X178059D01*
X178201Y181892D01*
X178344Y181820D01*
X178493Y181762D01*
X178629Y181710D01*
X178745Y181678D01*
X178797Y181658D01*
X178842Y181645D01*
X178875Y181639D01*
X178901Y181632D01*
X178920Y181626D01*
X178927D01*
Y181542D01*
X178771Y181555D01*
X178622Y181568D01*
X178473Y181594D01*
X178337Y181619D01*
X178207Y181645D01*
X178091Y181684D01*
X177974Y181717D01*
X177871Y181749D01*
X177780Y181788D01*
X177696Y181820D01*
X177625Y181853D01*
X177566Y181879D01*
X177521Y181905D01*
X177482Y181924D01*
X177463Y181930D01*
X177456Y181937D01*
X177340Y182008D01*
X177236Y182086D01*
X177132Y182164D01*
X177042Y182241D01*
X176957Y182319D01*
X176880Y182403D01*
X176808Y182481D01*
X176750Y182559D01*
X176692Y182630D01*
X176647Y182695D01*
X176601Y182753D01*
X176569Y182805D01*
X176543Y182844D01*
X176523Y182876D01*
X176517Y182896D01*
X176511Y182902D01*
X176452Y183019D01*
X176407Y183129D01*
X176362Y183245D01*
X176329Y183355D01*
X176271Y183569D01*
X176252Y183666D01*
X176232Y183763D01*
X176219Y183848D01*
X176213Y183925D01*
X176200Y183997D01*
Y184055D01*
X176193Y184100D01*
Y184139D01*
Y184158D01*
Y184165D01*
X176200Y184353D01*
X176226Y184521D01*
X176252Y184677D01*
X176290Y184813D01*
X176310Y184871D01*
X176323Y184923D01*
X176342Y184962D01*
X176355Y185000D01*
X176368Y185033D01*
X176381Y185052D01*
X176388Y185065D01*
Y185072D01*
X176465Y185214D01*
X176549Y185337D01*
X176640Y185441D01*
X176724Y185525D01*
X176796Y185596D01*
X176860Y185642D01*
X176899Y185674D01*
X176906Y185681D01*
X176912D01*
X177035Y185752D01*
X177158Y185804D01*
X177275Y185842D01*
X177379Y185868D01*
X177469Y185881D01*
X177540Y185894D01*
X177605D01*
X177735Y185888D01*
D02*
G37*
G36*
X233184Y282414D02*
X233392Y282382D01*
X233579Y282330D01*
X233670Y282304D01*
X233748Y282278D01*
X233825Y282252D01*
X233890Y282227D01*
X233949Y282201D01*
X234000Y282175D01*
X234039Y282155D01*
X234065Y282142D01*
X234085Y282136D01*
X234091Y282129D01*
X234279Y282006D01*
X234447Y281870D01*
X234590Y281734D01*
X234713Y281598D01*
X234765Y281540D01*
X234804Y281482D01*
X234842Y281430D01*
X234875Y281385D01*
X234901Y281346D01*
X234920Y281320D01*
X234927Y281300D01*
X234933Y281294D01*
X234985Y281190D01*
X235037Y281093D01*
X235114Y280892D01*
X235166Y280698D01*
X235205Y280523D01*
X235218Y280445D01*
X235225Y280381D01*
X235238Y280316D01*
Y280264D01*
X235244Y280219D01*
Y280186D01*
Y280167D01*
Y280160D01*
X235238Y280057D01*
X235231Y279953D01*
X235199Y279752D01*
X235153Y279571D01*
X235127Y279487D01*
X235102Y279409D01*
X235076Y279338D01*
X235056Y279273D01*
X235030Y279221D01*
X235011Y279176D01*
X234991Y279137D01*
X234978Y279111D01*
X234965Y279092D01*
Y279085D01*
X234849Y278910D01*
X234719Y278755D01*
X234583Y278619D01*
X234454Y278509D01*
X234344Y278424D01*
X234292Y278392D01*
X234247Y278366D01*
X234214Y278340D01*
X234182Y278327D01*
X234169Y278321D01*
X234162Y278314D01*
X233962Y278224D01*
X233761Y278159D01*
X233560Y278114D01*
X233372Y278081D01*
X233294Y278068D01*
X233217Y278062D01*
X233146Y278055D01*
X233087D01*
X233042Y278049D01*
X232977D01*
X232789Y278055D01*
X232621Y278075D01*
X232472Y278101D01*
X232342Y278133D01*
X232284Y278146D01*
X232232Y278159D01*
X232193Y278172D01*
X232155Y278185D01*
X232129Y278198D01*
X232109Y278204D01*
X232096Y278211D01*
X232090D01*
X231947Y278282D01*
X231811Y278366D01*
X231688Y278457D01*
X231578Y278541D01*
X231481Y278625D01*
X231410Y278690D01*
X231384Y278716D01*
X231364Y278735D01*
X231358Y278742D01*
X231351Y278748D01*
Y279105D01*
X231487Y278956D01*
X231617Y278833D01*
X231733Y278729D01*
X231837Y278651D01*
X231928Y278586D01*
X231993Y278541D01*
X232019Y278528D01*
X232038Y278515D01*
X232044Y278509D01*
X232051D01*
X232174Y278450D01*
X232297Y278412D01*
X232420Y278379D01*
X232530Y278360D01*
X232627Y278347D01*
X232666D01*
X232705Y278340D01*
X232770D01*
X232938Y278353D01*
X233094Y278379D01*
X233230Y278412D01*
X233340Y278457D01*
X233430Y278502D01*
X233495Y278535D01*
X233521Y278554D01*
X233541Y278561D01*
X233547Y278573D01*
X233554D01*
X233657Y278671D01*
X233748Y278787D01*
X233825Y278897D01*
X233884Y279014D01*
X233936Y279118D01*
X233949Y279156D01*
X233968Y279195D01*
X233981Y279228D01*
X233988Y279254D01*
X233994Y279266D01*
Y279273D01*
X234039Y279448D01*
X234072Y279629D01*
X234098Y279798D01*
X234111Y279960D01*
X234117Y280031D01*
X234123Y280096D01*
Y280154D01*
X234130Y280199D01*
Y280245D01*
Y280271D01*
Y280290D01*
Y280296D01*
X234123Y280504D01*
X234098Y280698D01*
X234072Y280873D01*
X234052Y280957D01*
X234033Y281028D01*
X234020Y281093D01*
X234000Y281158D01*
X233988Y281210D01*
X233968Y281248D01*
X233962Y281287D01*
X233949Y281313D01*
X233942Y281326D01*
Y281333D01*
X233877Y281462D01*
X233800Y281579D01*
X233722Y281682D01*
X233644Y281767D01*
X233573Y281838D01*
X233515Y281890D01*
X233476Y281916D01*
X233469Y281929D01*
X233463D01*
X233340Y282006D01*
X233217Y282058D01*
X233094Y282097D01*
X232983Y282129D01*
X232886Y282142D01*
X232847Y282149D01*
X232809D01*
X232783Y282155D01*
X232660D01*
X232575Y282142D01*
X232414Y282110D01*
X232278Y282058D01*
X232148Y282006D01*
X232051Y281948D01*
X232006Y281922D01*
X231973Y281896D01*
X231947Y281877D01*
X231928Y281864D01*
X231915Y281857D01*
X231908Y281851D01*
X231779Y281728D01*
X231675Y281585D01*
X231584Y281443D01*
X231520Y281300D01*
X231468Y281171D01*
X231448Y281119D01*
X231429Y281074D01*
X231416Y281028D01*
X231410Y281002D01*
X231403Y280983D01*
Y280977D01*
X231280D01*
Y282427D01*
X231403D01*
X231416Y282369D01*
X231429Y282324D01*
X231442Y282285D01*
X231461Y282252D01*
X231474Y282227D01*
X231487Y282207D01*
X231494Y282201D01*
X231500Y282194D01*
X231526Y282168D01*
X231559Y282155D01*
X231610Y282129D01*
X231649Y282123D01*
X231669D01*
X231708Y282129D01*
X231759Y282142D01*
X231818Y282155D01*
X231876Y282181D01*
X231934Y282201D01*
X231986Y282214D01*
X232019Y282227D01*
X232025Y282233D01*
X232031D01*
X232213Y282298D01*
X232388Y282343D01*
X232543Y282382D01*
X232679Y282401D01*
X232744Y282414D01*
X232796D01*
X232847Y282421D01*
X232886Y282427D01*
X233074D01*
X233184Y282414D01*
D02*
G37*
G36*
X229428Y282395D02*
X229538Y282388D01*
X229635Y282369D01*
X229726Y282350D01*
X229816Y282324D01*
X229894Y282298D01*
X229965Y282272D01*
X230037Y282239D01*
X230095Y282207D01*
X230147Y282181D01*
X230186Y282155D01*
X230224Y282129D01*
X230250Y282110D01*
X230270Y282090D01*
X230283Y282084D01*
X230289Y282078D01*
X230354Y282019D01*
X230406Y281954D01*
X230451Y281890D01*
X230496Y281831D01*
X230561Y281702D01*
X230600Y281592D01*
X230626Y281488D01*
X230632Y281449D01*
X230639Y281410D01*
X230645Y281378D01*
Y281359D01*
Y281346D01*
Y281339D01*
X230639Y281223D01*
X230626Y281119D01*
X230600Y281022D01*
X230574Y280944D01*
X230555Y280873D01*
X230529Y280828D01*
X230516Y280795D01*
X230509Y280782D01*
X230477Y280737D01*
X230438Y280685D01*
X230347Y280588D01*
X230244Y280484D01*
X230134Y280387D01*
X230030Y280296D01*
X229985Y280264D01*
X229946Y280232D01*
X229913Y280206D01*
X229888Y280186D01*
X229875Y280173D01*
X229868Y280167D01*
X230030Y280083D01*
X230166Y280005D01*
X230276Y279927D01*
X230367Y279856D01*
X230438Y279791D01*
X230483Y279746D01*
X230516Y279713D01*
X230522Y279701D01*
X230587Y279603D01*
X230632Y279500D01*
X230671Y279403D01*
X230691Y279312D01*
X230704Y279234D01*
X230710Y279169D01*
X230717Y279144D01*
Y279124D01*
Y279118D01*
Y279111D01*
X230710Y279033D01*
X230704Y278956D01*
X230665Y278807D01*
X230613Y278684D01*
X230548Y278573D01*
X230483Y278483D01*
X230432Y278418D01*
X230412Y278399D01*
X230393Y278379D01*
X230386Y278373D01*
X230380Y278366D01*
X230315Y278314D01*
X230237Y278269D01*
X230082Y278191D01*
X229926Y278139D01*
X229771Y278101D01*
X229700Y278088D01*
X229635Y278081D01*
X229577Y278068D01*
X229525D01*
X229480Y278062D01*
X229421D01*
X229298Y278068D01*
X229188Y278075D01*
X229078Y278094D01*
X228981Y278114D01*
X228884Y278146D01*
X228799Y278172D01*
X228722Y278204D01*
X228650Y278237D01*
X228592Y278269D01*
X228534Y278302D01*
X228489Y278334D01*
X228450Y278360D01*
X228417Y278379D01*
X228398Y278399D01*
X228385Y278405D01*
X228378Y278412D01*
X228314Y278476D01*
X228249Y278548D01*
X228204Y278619D01*
X228158Y278690D01*
X228119Y278768D01*
X228087Y278839D01*
X228042Y278969D01*
X228016Y279092D01*
X228009Y279137D01*
X228003Y279182D01*
X227996Y279215D01*
Y279247D01*
Y279260D01*
Y279266D01*
X228003Y279396D01*
X228022Y279519D01*
X228055Y279623D01*
X228080Y279720D01*
X228113Y279798D01*
X228145Y279849D01*
X228165Y279888D01*
X228171Y279901D01*
X228249Y280011D01*
X228340Y280115D01*
X228443Y280219D01*
X228547Y280316D01*
X228638Y280394D01*
X228715Y280458D01*
X228748Y280478D01*
X228767Y280497D01*
X228780Y280504D01*
X228786Y280510D01*
X228657Y280581D01*
X228547Y280653D01*
X228450Y280717D01*
X228378Y280782D01*
X228320Y280834D01*
X228275Y280879D01*
X228249Y280905D01*
X228242Y280918D01*
X228184Y281009D01*
X228139Y281093D01*
X228113Y281184D01*
X228087Y281261D01*
X228074Y281333D01*
X228067Y281385D01*
Y281423D01*
Y281436D01*
X228074Y281508D01*
X228080Y281579D01*
X228119Y281708D01*
X228171Y281825D01*
X228229Y281922D01*
X228288Y282006D01*
X228340Y282065D01*
X228378Y282103D01*
X228385Y282116D01*
X228391D01*
X228456Y282168D01*
X228521Y282214D01*
X228670Y282278D01*
X228825Y282330D01*
X228974Y282369D01*
X229110Y282388D01*
X229169Y282395D01*
X229220D01*
X229259Y282401D01*
X229317D01*
X229428Y282395D01*
D02*
G37*
G36*
X186194Y233900D02*
X186402Y233868D01*
X186589Y233816D01*
X186680Y233790D01*
X186758Y233764D01*
X186835Y233738D01*
X186900Y233713D01*
X186959Y233687D01*
X187010Y233661D01*
X187049Y233641D01*
X187075Y233628D01*
X187095Y233622D01*
X187101Y233615D01*
X187289Y233492D01*
X187457Y233356D01*
X187600Y233220D01*
X187723Y233084D01*
X187775Y233026D01*
X187814Y232968D01*
X187852Y232916D01*
X187885Y232871D01*
X187911Y232832D01*
X187930Y232806D01*
X187937Y232786D01*
X187943Y232780D01*
X187995Y232676D01*
X188047Y232579D01*
X188125Y232378D01*
X188176Y232184D01*
X188215Y232009D01*
X188228Y231931D01*
X188235Y231867D01*
X188248Y231802D01*
Y231750D01*
X188254Y231705D01*
Y231672D01*
Y231653D01*
Y231646D01*
X188248Y231543D01*
X188241Y231439D01*
X188209Y231238D01*
X188163Y231057D01*
X188137Y230973D01*
X188111Y230895D01*
X188086Y230824D01*
X188066Y230759D01*
X188040Y230707D01*
X188021Y230662D01*
X188001Y230623D01*
X187988Y230597D01*
X187976Y230578D01*
Y230571D01*
X187859Y230396D01*
X187729Y230241D01*
X187593Y230105D01*
X187464Y229995D01*
X187354Y229911D01*
X187302Y229878D01*
X187257Y229852D01*
X187224Y229826D01*
X187192Y229813D01*
X187179Y229807D01*
X187172Y229800D01*
X186972Y229710D01*
X186771Y229645D01*
X186570Y229600D01*
X186382Y229567D01*
X186304Y229554D01*
X186227Y229548D01*
X186155Y229541D01*
X186097D01*
X186052Y229535D01*
X185987D01*
X185799Y229541D01*
X185631Y229561D01*
X185482Y229587D01*
X185352Y229619D01*
X185294Y229632D01*
X185242Y229645D01*
X185203Y229658D01*
X185165Y229671D01*
X185139Y229684D01*
X185119Y229690D01*
X185106Y229697D01*
X185100D01*
X184957Y229768D01*
X184821Y229852D01*
X184698Y229943D01*
X184588Y230027D01*
X184491Y230111D01*
X184420Y230176D01*
X184394Y230202D01*
X184374Y230221D01*
X184368Y230228D01*
X184361Y230234D01*
Y230591D01*
X184497Y230442D01*
X184627Y230319D01*
X184743Y230215D01*
X184847Y230137D01*
X184938Y230072D01*
X185003Y230027D01*
X185028Y230014D01*
X185048Y230001D01*
X185054Y229995D01*
X185061D01*
X185184Y229936D01*
X185307Y229898D01*
X185430Y229865D01*
X185540Y229846D01*
X185637Y229833D01*
X185676D01*
X185715Y229826D01*
X185780D01*
X185948Y229839D01*
X186104Y229865D01*
X186240Y229898D01*
X186350Y229943D01*
X186440Y229988D01*
X186505Y230021D01*
X186531Y230040D01*
X186551Y230047D01*
X186557Y230060D01*
X186563D01*
X186667Y230157D01*
X186758Y230273D01*
X186835Y230383D01*
X186894Y230500D01*
X186946Y230604D01*
X186959Y230642D01*
X186978Y230681D01*
X186991Y230714D01*
X186998Y230740D01*
X187004Y230753D01*
Y230759D01*
X187049Y230934D01*
X187082Y231115D01*
X187108Y231284D01*
X187120Y231446D01*
X187127Y231517D01*
X187134Y231582D01*
Y231640D01*
X187140Y231685D01*
Y231730D01*
Y231756D01*
Y231776D01*
Y231782D01*
X187134Y231990D01*
X187108Y232184D01*
X187082Y232359D01*
X187062Y232443D01*
X187043Y232514D01*
X187030Y232579D01*
X187010Y232644D01*
X186998Y232696D01*
X186978Y232735D01*
X186972Y232773D01*
X186959Y232799D01*
X186952Y232812D01*
Y232819D01*
X186887Y232948D01*
X186810Y233065D01*
X186732Y233168D01*
X186654Y233253D01*
X186583Y233324D01*
X186525Y233376D01*
X186486Y233402D01*
X186479Y233415D01*
X186473D01*
X186350Y233492D01*
X186227Y233544D01*
X186104Y233583D01*
X185993Y233615D01*
X185896Y233628D01*
X185858Y233635D01*
X185819D01*
X185793Y233641D01*
X185670D01*
X185585Y233628D01*
X185424Y233596D01*
X185287Y233544D01*
X185158Y233492D01*
X185061Y233434D01*
X185016Y233408D01*
X184983Y233382D01*
X184957Y233363D01*
X184938Y233350D01*
X184925Y233343D01*
X184918Y233337D01*
X184789Y233214D01*
X184685Y233071D01*
X184594Y232929D01*
X184530Y232786D01*
X184478Y232657D01*
X184459Y232605D01*
X184439Y232560D01*
X184426Y232514D01*
X184420Y232488D01*
X184413Y232469D01*
Y232463D01*
X184290D01*
Y233913D01*
X184413D01*
X184426Y233855D01*
X184439Y233810D01*
X184452Y233771D01*
X184471Y233738D01*
X184484Y233713D01*
X184497Y233693D01*
X184504Y233687D01*
X184510Y233680D01*
X184536Y233654D01*
X184569Y233641D01*
X184620Y233615D01*
X184659Y233609D01*
X184679D01*
X184718Y233615D01*
X184769Y233628D01*
X184828Y233641D01*
X184886Y233667D01*
X184944Y233687D01*
X184996Y233700D01*
X185028Y233713D01*
X185035Y233719D01*
X185041D01*
X185223Y233784D01*
X185398Y233829D01*
X185553Y233868D01*
X185689Y233887D01*
X185754Y233900D01*
X185806D01*
X185858Y233907D01*
X185896Y233913D01*
X186084D01*
X186194Y233900D01*
D02*
G37*
G36*
X181129Y233894D02*
X181278Y233881D01*
X181414Y233862D01*
X181550Y233842D01*
X181673Y233810D01*
X181796Y233784D01*
X181907Y233745D01*
X182004Y233713D01*
X182094Y233680D01*
X182179Y233648D01*
X182250Y233615D01*
X182308Y233589D01*
X182353Y233563D01*
X182392Y233544D01*
X182412Y233538D01*
X182418Y233531D01*
X182528Y233460D01*
X182638Y233389D01*
X182736Y233311D01*
X182833Y233233D01*
X182917Y233149D01*
X182995Y233071D01*
X183066Y232994D01*
X183131Y232916D01*
X183189Y232845D01*
X183234Y232780D01*
X183280Y232722D01*
X183312Y232670D01*
X183344Y232624D01*
X183364Y232592D01*
X183370Y232573D01*
X183377Y232566D01*
X183435Y232449D01*
X183487Y232339D01*
X183532Y232223D01*
X183571Y232106D01*
X183629Y231886D01*
X183655Y231782D01*
X183668Y231685D01*
X183688Y231595D01*
X183694Y231510D01*
X183701Y231439D01*
X183707Y231381D01*
X183714Y231329D01*
Y231290D01*
Y231264D01*
Y231258D01*
X183707Y231083D01*
X183688Y230914D01*
X183655Y230765D01*
X183623Y230636D01*
X183603Y230578D01*
X183591Y230526D01*
X183571Y230480D01*
X183558Y230442D01*
X183552Y230409D01*
X183539Y230390D01*
X183532Y230377D01*
Y230370D01*
X183461Y230228D01*
X183377Y230105D01*
X183293Y230001D01*
X183208Y229911D01*
X183137Y229846D01*
X183079Y229794D01*
X183040Y229768D01*
X183034Y229755D01*
X183027D01*
X182904Y229684D01*
X182775Y229639D01*
X182651Y229600D01*
X182541Y229574D01*
X182451Y229561D01*
X182405Y229554D01*
X182373D01*
X182347Y229548D01*
X182308D01*
X182179Y229554D01*
X182055Y229580D01*
X181939Y229606D01*
X181842Y229645D01*
X181758Y229677D01*
X181693Y229710D01*
X181673Y229716D01*
X181654Y229729D01*
X181647Y229736D01*
X181641D01*
X181531Y229813D01*
X181434Y229898D01*
X181350Y229988D01*
X181285Y230072D01*
X181233Y230150D01*
X181194Y230208D01*
X181181Y230234D01*
X181168Y230254D01*
X181162Y230260D01*
Y230267D01*
X181103Y230396D01*
X181058Y230532D01*
X181032Y230655D01*
X181006Y230772D01*
X180993Y230876D01*
Y230921D01*
X180987Y230953D01*
Y230986D01*
Y231005D01*
Y231018D01*
Y231025D01*
X180993Y231135D01*
X181000Y231232D01*
X181039Y231420D01*
X181058Y231504D01*
X181084Y231582D01*
X181116Y231646D01*
X181142Y231711D01*
X181175Y231769D01*
X181201Y231815D01*
X181233Y231860D01*
X181252Y231893D01*
X181272Y231925D01*
X181291Y231944D01*
X181298Y231951D01*
X181304Y231957D01*
X181362Y232015D01*
X181427Y232074D01*
X181492Y232119D01*
X181557Y232158D01*
X181686Y232216D01*
X181809Y232255D01*
X181919Y232281D01*
X181971Y232288D01*
X182010Y232294D01*
X182043Y232300D01*
X182088D01*
X182237Y232288D01*
X182302Y232281D01*
X182366Y232268D01*
X182418Y232255D01*
X182457Y232249D01*
X182483Y232236D01*
X182489D01*
X182522Y232223D01*
X182561Y232203D01*
X182638Y232164D01*
X182671Y232145D01*
X182690Y232126D01*
X182710Y232119D01*
X182716Y232113D01*
X182671Y232281D01*
X182626Y232437D01*
X182574Y232573D01*
X182528Y232683D01*
X182483Y232780D01*
X182464Y232812D01*
X182451Y232845D01*
X182438Y232871D01*
X182425Y232890D01*
X182418Y232896D01*
Y232903D01*
X182341Y233020D01*
X182250Y233123D01*
X182159Y233220D01*
X182075Y233298D01*
X181997Y233363D01*
X181939Y233408D01*
X181913Y233428D01*
X181894Y233434D01*
X181887Y233447D01*
X181881D01*
X181745Y233531D01*
X181596Y233602D01*
X181447Y233661D01*
X181304Y233719D01*
X181175Y233758D01*
X181123Y233777D01*
X181071Y233790D01*
X181032Y233803D01*
X181006Y233810D01*
X180987Y233816D01*
X180980D01*
Y233900D01*
X181129Y233894D01*
D02*
G37*
G36*
X319544Y178274D02*
X319752Y178242D01*
X319939Y178190D01*
X320030Y178164D01*
X320108Y178138D01*
X320186Y178112D01*
X320250Y178086D01*
X320309Y178061D01*
X320360Y178035D01*
X320399Y178015D01*
X320425Y178002D01*
X320445Y177996D01*
X320451Y177989D01*
X320639Y177866D01*
X320807Y177730D01*
X320950Y177594D01*
X321073Y177458D01*
X321125Y177400D01*
X321164Y177342D01*
X321202Y177290D01*
X321235Y177244D01*
X321261Y177206D01*
X321280Y177180D01*
X321287Y177160D01*
X321293Y177154D01*
X321345Y177050D01*
X321397Y176953D01*
X321474Y176752D01*
X321526Y176558D01*
X321565Y176383D01*
X321578Y176305D01*
X321585Y176241D01*
X321598Y176176D01*
Y176124D01*
X321604Y176079D01*
Y176046D01*
Y176027D01*
Y176020D01*
X321598Y175917D01*
X321591Y175813D01*
X321559Y175612D01*
X321513Y175431D01*
X321487Y175347D01*
X321461Y175269D01*
X321436Y175198D01*
X321416Y175133D01*
X321390Y175081D01*
X321371Y175036D01*
X321351Y174997D01*
X321338Y174971D01*
X321325Y174952D01*
Y174945D01*
X321209Y174770D01*
X321079Y174615D01*
X320943Y174479D01*
X320814Y174369D01*
X320704Y174284D01*
X320652Y174252D01*
X320606Y174226D01*
X320574Y174200D01*
X320542Y174187D01*
X320529Y174181D01*
X320522Y174174D01*
X320322Y174084D01*
X320121Y174019D01*
X319920Y173974D01*
X319732Y173941D01*
X319654Y173928D01*
X319577Y173922D01*
X319506Y173915D01*
X319447D01*
X319402Y173909D01*
X319337D01*
X319149Y173915D01*
X318981Y173935D01*
X318832Y173961D01*
X318702Y173993D01*
X318644Y174006D01*
X318592Y174019D01*
X318553Y174032D01*
X318514Y174045D01*
X318489Y174058D01*
X318469Y174064D01*
X318456Y174071D01*
X318450D01*
X318307Y174142D01*
X318171Y174226D01*
X318048Y174317D01*
X317938Y174401D01*
X317841Y174485D01*
X317770Y174550D01*
X317744Y174576D01*
X317724Y174595D01*
X317718Y174602D01*
X317711Y174608D01*
Y174965D01*
X317847Y174816D01*
X317977Y174693D01*
X318093Y174589D01*
X318197Y174511D01*
X318288Y174446D01*
X318353Y174401D01*
X318379Y174388D01*
X318398Y174375D01*
X318404Y174369D01*
X318411D01*
X318534Y174310D01*
X318657Y174272D01*
X318780Y174239D01*
X318890Y174220D01*
X318987Y174207D01*
X319026D01*
X319065Y174200D01*
X319130D01*
X319298Y174213D01*
X319454Y174239D01*
X319590Y174272D01*
X319700Y174317D01*
X319790Y174362D01*
X319855Y174395D01*
X319881Y174414D01*
X319901Y174421D01*
X319907Y174433D01*
X319914D01*
X320017Y174531D01*
X320108Y174647D01*
X320186Y174757D01*
X320244Y174874D01*
X320296Y174978D01*
X320309Y175016D01*
X320328Y175055D01*
X320341Y175088D01*
X320348Y175114D01*
X320354Y175126D01*
Y175133D01*
X320399Y175308D01*
X320432Y175489D01*
X320458Y175658D01*
X320471Y175820D01*
X320477Y175891D01*
X320484Y175956D01*
Y176014D01*
X320490Y176059D01*
Y176105D01*
Y176131D01*
Y176150D01*
Y176156D01*
X320484Y176364D01*
X320458Y176558D01*
X320432Y176733D01*
X320412Y176817D01*
X320393Y176888D01*
X320380Y176953D01*
X320360Y177018D01*
X320348Y177070D01*
X320328Y177108D01*
X320322Y177147D01*
X320309Y177173D01*
X320302Y177186D01*
Y177193D01*
X320237Y177322D01*
X320160Y177439D01*
X320082Y177542D01*
X320004Y177627D01*
X319933Y177698D01*
X319875Y177750D01*
X319836Y177776D01*
X319829Y177789D01*
X319823D01*
X319700Y177866D01*
X319577Y177918D01*
X319454Y177957D01*
X319343Y177989D01*
X319246Y178002D01*
X319207Y178009D01*
X319169D01*
X319143Y178015D01*
X319020D01*
X318936Y178002D01*
X318774Y177970D01*
X318638Y177918D01*
X318508Y177866D01*
X318411Y177808D01*
X318365Y177782D01*
X318333Y177756D01*
X318307Y177737D01*
X318288Y177724D01*
X318275Y177717D01*
X318268Y177711D01*
X318139Y177588D01*
X318035Y177445D01*
X317945Y177303D01*
X317880Y177160D01*
X317828Y177031D01*
X317808Y176979D01*
X317789Y176934D01*
X317776Y176888D01*
X317770Y176862D01*
X317763Y176843D01*
Y176836D01*
X317640D01*
Y178287D01*
X317763D01*
X317776Y178229D01*
X317789Y178184D01*
X317802Y178145D01*
X317821Y178112D01*
X317834Y178086D01*
X317847Y178067D01*
X317854Y178061D01*
X317860Y178054D01*
X317886Y178028D01*
X317919Y178015D01*
X317970Y177989D01*
X318009Y177983D01*
X318029D01*
X318068Y177989D01*
X318119Y178002D01*
X318178Y178015D01*
X318236Y178041D01*
X318294Y178061D01*
X318346Y178074D01*
X318379Y178086D01*
X318385Y178093D01*
X318391D01*
X318573Y178158D01*
X318748Y178203D01*
X318903Y178242D01*
X319039Y178261D01*
X319104Y178274D01*
X319156D01*
X319207Y178281D01*
X319246Y178287D01*
X319434D01*
X319544Y178274D01*
D02*
G37*
G36*
X317083Y176079D02*
X316837D01*
X316681Y176072D01*
X316539Y176066D01*
X316403Y176046D01*
X316273Y176027D01*
X316150Y176001D01*
X316040Y175968D01*
X315937Y175936D01*
X315840Y175910D01*
X315755Y175878D01*
X315678Y175846D01*
X315613Y175813D01*
X315561Y175787D01*
X315522Y175768D01*
X315490Y175748D01*
X315470Y175742D01*
X315464Y175735D01*
X315367Y175671D01*
X315282Y175599D01*
X315211Y175528D01*
X315146Y175457D01*
X315095Y175386D01*
X315049Y175308D01*
X315017Y175243D01*
X314984Y175172D01*
X314946Y175049D01*
X314939Y174997D01*
X314926Y174952D01*
Y174913D01*
X314920Y174887D01*
Y174867D01*
Y174861D01*
X314926Y174770D01*
X314946Y174680D01*
X314978Y174608D01*
X315010Y174544D01*
X315043Y174485D01*
X315075Y174446D01*
X315095Y174421D01*
X315101Y174414D01*
X315172Y174356D01*
X315244Y174310D01*
X315315Y174278D01*
X315380Y174259D01*
X315438Y174246D01*
X315483Y174233D01*
X315529D01*
X315613Y174239D01*
X315684Y174252D01*
X315710D01*
X315729Y174259D01*
X315742Y174265D01*
X315749D01*
X315801Y174291D01*
X315859Y174317D01*
X315963Y174375D01*
X316008Y174401D01*
X316040Y174427D01*
X316066Y174440D01*
X316073Y174446D01*
X316176Y174518D01*
X316267Y174576D01*
X316338Y174621D01*
X316397Y174654D01*
X316442Y174680D01*
X316468Y174693D01*
X316487Y174706D01*
X316494D01*
X316584Y174738D01*
X316662Y174751D01*
X316694Y174757D01*
X316740D01*
X316785Y174751D01*
X316831Y174744D01*
X316902Y174706D01*
X316934Y174686D01*
X316954Y174673D01*
X316966Y174660D01*
X316973Y174654D01*
X317005Y174615D01*
X317031Y174576D01*
X317044Y174537D01*
X317057Y174498D01*
X317064Y174466D01*
X317070Y174440D01*
Y174427D01*
Y174421D01*
X317064Y174356D01*
X317038Y174298D01*
X317012Y174246D01*
X316973Y174200D01*
X316941Y174161D01*
X316908Y174135D01*
X316889Y174116D01*
X316882Y174110D01*
X316766Y174045D01*
X316643Y174000D01*
X316507Y173967D01*
X316383Y173948D01*
X316267Y173935D01*
X316222Y173928D01*
X316176Y173922D01*
X316092D01*
X315917Y173928D01*
X315755Y173954D01*
X315606Y173987D01*
X315483Y174019D01*
X315373Y174058D01*
X315328Y174071D01*
X315295Y174084D01*
X315263Y174097D01*
X315244Y174110D01*
X315231Y174116D01*
X315224D01*
X315082Y174200D01*
X314959Y174291D01*
X314848Y174382D01*
X314764Y174479D01*
X314693Y174557D01*
X314641Y174628D01*
X314628Y174654D01*
X314615Y174673D01*
X314602Y174680D01*
Y174686D01*
X314531Y174822D01*
X314473Y174958D01*
X314434Y175088D01*
X314408Y175198D01*
X314395Y175295D01*
X314389Y175340D01*
X314382Y175373D01*
Y175399D01*
Y175418D01*
Y175431D01*
Y175437D01*
X314389Y175548D01*
X314402Y175651D01*
X314428Y175755D01*
X314453Y175852D01*
X314531Y176020D01*
X314576Y176098D01*
X314615Y176169D01*
X314661Y176234D01*
X314706Y176286D01*
X314745Y176338D01*
X314784Y176377D01*
X314810Y176409D01*
X314835Y176428D01*
X314848Y176441D01*
X314855Y176448D01*
X314965Y176532D01*
X315088Y176610D01*
X315218Y176674D01*
X315354Y176733D01*
X315490Y176785D01*
X315626Y176830D01*
X315755Y176869D01*
X315885Y176895D01*
X316008Y176921D01*
X316124Y176940D01*
X316222Y176953D01*
X316312Y176966D01*
X316383Y176973D01*
X316442Y176979D01*
X316487D01*
X316338Y177393D01*
X314687D01*
X314376Y178190D01*
X316332D01*
X317083Y176079D01*
D02*
G37*
%LPC*%
G36*
X49067Y80418D02*
X49004D01*
X48863Y80402D01*
X48737Y80386D01*
X48627Y80339D01*
X48533Y80292D01*
X48454Y80245D01*
X48391Y80213D01*
X48360Y80182D01*
X48344Y80166D01*
X48250Y80056D01*
X48155Y79915D01*
X48077Y79757D01*
X47998Y79600D01*
X47951Y79443D01*
X47904Y79317D01*
X47888Y79239D01*
X47872Y79223D01*
Y79207D01*
X47841Y79066D01*
X47809Y78893D01*
X47778Y78688D01*
X47747Y78484D01*
X47715Y78059D01*
X47699Y77619D01*
X47684Y77415D01*
Y77210D01*
X47668Y77038D01*
Y76880D01*
Y76754D01*
Y76644D01*
Y76582D01*
Y76566D01*
Y76220D01*
X47684Y75890D01*
Y75591D01*
X47699Y75324D01*
X47715Y75072D01*
X47731Y74852D01*
X47762Y74648D01*
X47778Y74475D01*
X47794Y74317D01*
X47825Y74192D01*
X47841Y74082D01*
X47857Y73987D01*
X47872Y73924D01*
Y73861D01*
X47888Y73846D01*
Y73830D01*
X47951Y73610D01*
X48029Y73437D01*
X48108Y73280D01*
X48171Y73170D01*
X48234Y73075D01*
X48297Y73012D01*
X48328Y72981D01*
X48344Y72965D01*
X48454Y72887D01*
X48564Y72824D01*
X48674Y72792D01*
X48784Y72761D01*
X48863Y72745D01*
X48941Y72730D01*
X49004D01*
X49146Y72745D01*
X49272Y72761D01*
X49382Y72808D01*
X49476Y72855D01*
X49555Y72887D01*
X49618Y72934D01*
X49649Y72950D01*
X49665Y72965D01*
X49759Y73075D01*
X49853Y73217D01*
X49932Y73374D01*
X50011Y73531D01*
X50058Y73673D01*
X50105Y73799D01*
X50121Y73877D01*
X50136Y73909D01*
X50168Y74066D01*
X50199Y74239D01*
X50231Y74427D01*
X50246Y74632D01*
X50278Y75072D01*
X50294Y75512D01*
X50309Y75717D01*
Y75921D01*
X50325Y76094D01*
Y76251D01*
Y76377D01*
Y76487D01*
Y76550D01*
Y76566D01*
Y76912D01*
X50309Y77242D01*
Y77525D01*
X50294Y77808D01*
X50278Y78044D01*
X50262Y78280D01*
X50246Y78468D01*
X50215Y78657D01*
X50199Y78814D01*
X50184Y78940D01*
X50168Y79050D01*
X50152Y79144D01*
X50136Y79207D01*
Y79270D01*
X50121Y79286D01*
Y79302D01*
X50058Y79522D01*
X49979Y79710D01*
X49916Y79852D01*
X49838Y79978D01*
X49775Y80056D01*
X49728Y80119D01*
X49696Y80150D01*
X49680Y80166D01*
X49570Y80245D01*
X49445Y80308D01*
X49335Y80355D01*
X49224Y80386D01*
X49146Y80402D01*
X49067Y80418D01*
D02*
G37*
G36*
X75287Y136814D02*
X75157D01*
X74880Y136796D01*
X74639Y136721D01*
X74417Y136629D01*
X74232Y136536D01*
X74083Y136425D01*
X73972Y136333D01*
X73898Y136258D01*
X73880Y136240D01*
X73713Y136018D01*
X73565Y135759D01*
X73472Y135481D01*
X73398Y135222D01*
X73361Y134999D01*
X73343Y134796D01*
X73324Y134722D01*
Y134685D01*
Y134648D01*
Y134629D01*
X76990D01*
X76972Y134981D01*
X76916Y135296D01*
X76842Y135573D01*
X76731Y135796D01*
X76639Y135981D01*
X76546Y136110D01*
X76491Y136203D01*
X76472Y136222D01*
X76268Y136425D01*
X76046Y136573D01*
X75824Y136666D01*
X75620Y136740D01*
X75435Y136777D01*
X75287Y136814D01*
D02*
G37*
G36*
X32495D02*
X32366D01*
X32088Y136796D01*
X31847Y136721D01*
X31625Y136629D01*
X31440Y136536D01*
X31292Y136425D01*
X31181Y136333D01*
X31106Y136258D01*
X31088Y136240D01*
X30921Y136018D01*
X30773Y135759D01*
X30680Y135481D01*
X30606Y135222D01*
X30569Y134999D01*
X30551Y134796D01*
X30532Y134722D01*
Y134685D01*
Y134648D01*
Y134629D01*
X34199D01*
X34180Y134981D01*
X34125Y135296D01*
X34051Y135573D01*
X33939Y135796D01*
X33847Y135981D01*
X33754Y136110D01*
X33699Y136203D01*
X33680Y136222D01*
X33477Y136425D01*
X33254Y136573D01*
X33032Y136666D01*
X32828Y136740D01*
X32643Y136777D01*
X32495Y136814D01*
D02*
G37*
G36*
X89137Y139851D02*
X86175D01*
X86008Y139832D01*
X85601D01*
X85434Y139814D01*
X85323D01*
X85267Y139795D01*
X85249D01*
X85027Y139740D01*
X84823Y139666D01*
X84656Y139592D01*
X84527Y139499D01*
X84416Y139406D01*
X84323Y139351D01*
X84286Y139295D01*
X84268Y139277D01*
X84156Y139129D01*
X84064Y138943D01*
X84008Y138777D01*
X83953Y138610D01*
X83934Y138462D01*
X83916Y138351D01*
Y138277D01*
Y138240D01*
X83934Y138036D01*
X83953Y137851D01*
X84008Y137684D01*
X84045Y137536D01*
X84101Y137425D01*
X84156Y137351D01*
X84175Y137296D01*
X84193Y137277D01*
X84305Y137147D01*
X84416Y137036D01*
X84656Y136870D01*
X84749Y136814D01*
X84842Y136777D01*
X84897Y136740D01*
X84916D01*
X85008Y136721D01*
X85156Y136684D01*
X85304Y136666D01*
X85471Y136647D01*
X85860Y136629D01*
X86249Y136610D01*
X86619Y136592D01*
X89137D01*
Y139851D01*
D02*
G37*
G36*
X48808Y136703D02*
X48716D01*
X48364Y136666D01*
X48049Y136592D01*
X47790Y136462D01*
X47549Y136333D01*
X47364Y136203D01*
X47216Y136073D01*
X47142Y135999D01*
X47105Y135962D01*
X46883Y135666D01*
X46716Y135314D01*
X46605Y134962D01*
X46512Y134629D01*
X46475Y134333D01*
X46457Y134185D01*
Y134074D01*
X46438Y133981D01*
Y133907D01*
Y133870D01*
Y133851D01*
X46475Y133370D01*
X46549Y132926D01*
X46642Y132574D01*
X46771Y132259D01*
X46901Y132037D01*
X46994Y131852D01*
X47068Y131759D01*
X47105Y131722D01*
X47364Y131481D01*
X47623Y131296D01*
X47901Y131185D01*
X48160Y131092D01*
X48382Y131037D01*
X48549Y131018D01*
X48623Y131000D01*
X48716D01*
X49068Y131037D01*
X49382Y131111D01*
X49660Y131222D01*
X49882Y131370D01*
X50086Y131500D01*
X50234Y131611D01*
X50308Y131685D01*
X50345Y131722D01*
X50567Y132018D01*
X50715Y132370D01*
X50827Y132722D01*
X50919Y133074D01*
X50956Y133370D01*
X50975Y133500D01*
Y133629D01*
X50993Y133722D01*
Y133796D01*
Y133833D01*
Y133851D01*
X50956Y134333D01*
X50882Y134759D01*
X50789Y135129D01*
X50660Y135425D01*
X50549Y135647D01*
X50438Y135833D01*
X50364Y135925D01*
X50345Y135962D01*
X50086Y136203D01*
X49808Y136388D01*
X49530Y136518D01*
X49271Y136610D01*
X49049Y136666D01*
X48882Y136684D01*
X48808Y136703D01*
D02*
G37*
G36*
X31393Y98888D02*
X28431D01*
X28264Y98869D01*
X27857D01*
X27690Y98851D01*
X27579D01*
X27523Y98832D01*
X27505D01*
X27283Y98777D01*
X27079Y98703D01*
X26912Y98629D01*
X26783Y98536D01*
X26672Y98443D01*
X26579Y98388D01*
X26542Y98332D01*
X26523Y98314D01*
X26412Y98166D01*
X26320Y97980D01*
X26264Y97814D01*
X26209Y97647D01*
X26190Y97499D01*
X26172Y97388D01*
Y97314D01*
Y97277D01*
X26190Y97073D01*
X26209Y96888D01*
X26264Y96721D01*
X26301Y96573D01*
X26357Y96462D01*
X26412Y96388D01*
X26431Y96333D01*
X26449Y96314D01*
X26561Y96184D01*
X26672Y96073D01*
X26912Y95907D01*
X27005Y95851D01*
X27098Y95814D01*
X27153Y95777D01*
X27172D01*
X27264Y95758D01*
X27412Y95721D01*
X27561Y95703D01*
X27727Y95684D01*
X28116Y95666D01*
X28505Y95647D01*
X28875Y95629D01*
X31393D01*
Y98888D01*
D02*
G37*
G36*
X42374Y99092D02*
X42226D01*
X41929Y99073D01*
X41652Y99036D01*
X41392Y98999D01*
X41152Y98925D01*
X40726Y98740D01*
X40522Y98647D01*
X40355Y98554D01*
X40189Y98443D01*
X40059Y98351D01*
X39948Y98258D01*
X39837Y98166D01*
X39763Y98092D01*
X39707Y98055D01*
X39689Y98018D01*
X39670Y97999D01*
X39504Y97777D01*
X39337Y97536D01*
X39207Y97295D01*
X39096Y97018D01*
X38930Y96462D01*
X38819Y95925D01*
X38763Y95684D01*
X38744Y95444D01*
X38726Y95240D01*
X38707Y95055D01*
X38689Y94888D01*
Y94777D01*
Y94703D01*
Y94684D01*
X38707Y94277D01*
X38726Y93888D01*
X38781Y93537D01*
X38837Y93222D01*
X38911Y92907D01*
X39004Y92629D01*
X39096Y92388D01*
X39189Y92166D01*
X39281Y91963D01*
X39374Y91796D01*
X39448Y91648D01*
X39541Y91518D01*
X39596Y91426D01*
X39652Y91370D01*
X39670Y91333D01*
X39689Y91314D01*
X39874Y91111D01*
X40078Y90944D01*
X40300Y90796D01*
X40504Y90666D01*
X40726Y90574D01*
X40929Y90481D01*
X41337Y90352D01*
X41689Y90259D01*
X41837Y90240D01*
X41966Y90222D01*
X42077Y90204D01*
X42226D01*
X42503Y90222D01*
X42781Y90259D01*
X43040Y90315D01*
X43281Y90389D01*
X43726Y90555D01*
X44077Y90778D01*
X44244Y90870D01*
X44373Y90981D01*
X44503Y91074D01*
X44596Y91166D01*
X44670Y91222D01*
X44725Y91278D01*
X44762Y91314D01*
X44781Y91333D01*
X44948Y91555D01*
X45114Y91796D01*
X45244Y92055D01*
X45355Y92333D01*
X45540Y92870D01*
X45651Y93407D01*
X45688Y93666D01*
X45725Y93888D01*
X45744Y94110D01*
X45762Y94296D01*
X45781Y94444D01*
Y94555D01*
Y94629D01*
Y94648D01*
X45762Y95055D01*
X45744Y95425D01*
X45688Y95777D01*
X45633Y96110D01*
X45559Y96407D01*
X45484Y96684D01*
X45392Y96925D01*
X45299Y97147D01*
X45207Y97351D01*
X45114Y97518D01*
X45040Y97647D01*
X44966Y97777D01*
X44910Y97869D01*
X44855Y97925D01*
X44837Y97962D01*
X44818Y97980D01*
X44633Y98184D01*
X44429Y98351D01*
X44207Y98499D01*
X44003Y98629D01*
X43781Y98740D01*
X43559Y98814D01*
X43151Y98962D01*
X42781Y99036D01*
X42633Y99054D01*
X42485Y99073D01*
X42374Y99092D01*
D02*
G37*
G36*
X203162Y403261D02*
X203106D01*
X202977Y403242D01*
X202857Y403205D01*
X202745Y403159D01*
X202653Y403094D01*
X202579Y403029D01*
X202524Y402983D01*
X202487Y402946D01*
X202477Y402928D01*
X202385Y402789D01*
X202320Y402641D01*
X202265Y402484D01*
X202237Y402336D01*
X202218Y402197D01*
X202200Y402096D01*
Y402049D01*
Y402022D01*
Y402003D01*
Y401994D01*
X202209Y401800D01*
X202237Y401633D01*
X202283Y401495D01*
X202320Y401375D01*
X202367Y401291D01*
X202413Y401227D01*
X202440Y401180D01*
X202450Y401171D01*
X202542Y401079D01*
X202644Y401014D01*
X202745Y400958D01*
X202838Y400931D01*
X202921Y400912D01*
X202986Y400903D01*
X203023Y400894D01*
X203041D01*
X203171Y400903D01*
X203291Y400940D01*
X203393Y400986D01*
X203485Y401042D01*
X203559Y401088D01*
X203605Y401134D01*
X203642Y401171D01*
X203652Y401180D01*
X203735Y401301D01*
X203790Y401448D01*
X203836Y401596D01*
X203864Y401754D01*
X203883Y401883D01*
X203892Y401994D01*
Y402040D01*
Y402068D01*
Y402086D01*
Y402096D01*
X203883Y402308D01*
X203855Y402493D01*
X203818Y402650D01*
X203781Y402771D01*
X203744Y402863D01*
X203707Y402928D01*
X203679Y402974D01*
X203670Y402983D01*
X203578Y403076D01*
X203485Y403140D01*
X203393Y403196D01*
X203300Y403224D01*
X203226Y403242D01*
X203162Y403261D01*
D02*
G37*
G36*
X209883Y403159D02*
X208404D01*
X208321Y403150D01*
X208117D01*
X208034Y403140D01*
X207979D01*
X207951Y403131D01*
X207942D01*
X207831Y403103D01*
X207729Y403066D01*
X207646Y403029D01*
X207581Y402983D01*
X207526Y402937D01*
X207479Y402909D01*
X207461Y402882D01*
X207452Y402872D01*
X207396Y402798D01*
X207350Y402706D01*
X207322Y402623D01*
X207294Y402539D01*
X207285Y402465D01*
X207276Y402410D01*
Y402373D01*
Y402355D01*
X207285Y402253D01*
X207294Y402160D01*
X207322Y402077D01*
X207341Y402003D01*
X207368Y401948D01*
X207396Y401911D01*
X207405Y401883D01*
X207415Y401874D01*
X207470Y401809D01*
X207526Y401754D01*
X207646Y401670D01*
X207692Y401643D01*
X207738Y401624D01*
X207766Y401606D01*
X207775D01*
X207821Y401596D01*
X207895Y401578D01*
X207969Y401569D01*
X208053Y401559D01*
X208247Y401550D01*
X208441Y401541D01*
X208626Y401532D01*
X209883D01*
Y403159D01*
D02*
G37*
G36*
X207356Y339159D02*
X205877D01*
X205794Y339150D01*
X205590D01*
X205507Y339140D01*
X205452D01*
X205424Y339131D01*
X205415D01*
X205304Y339103D01*
X205202Y339066D01*
X205119Y339029D01*
X205054Y338983D01*
X204999Y338937D01*
X204953Y338909D01*
X204934Y338881D01*
X204925Y338872D01*
X204869Y338798D01*
X204823Y338706D01*
X204795Y338623D01*
X204768Y338539D01*
X204758Y338465D01*
X204749Y338410D01*
Y338373D01*
Y338354D01*
X204758Y338253D01*
X204768Y338160D01*
X204795Y338077D01*
X204814Y338003D01*
X204842Y337948D01*
X204869Y337911D01*
X204879Y337883D01*
X204888Y337874D01*
X204943Y337809D01*
X204999Y337753D01*
X205119Y337670D01*
X205165Y337643D01*
X205211Y337624D01*
X205239Y337606D01*
X205248D01*
X205295Y337596D01*
X205369Y337578D01*
X205443Y337569D01*
X205526Y337559D01*
X205720Y337550D01*
X205914Y337541D01*
X206099Y337532D01*
X207356D01*
Y339159D01*
D02*
G37*
G36*
X195466Y339261D02*
X195429D01*
X195346Y339251D01*
X195272Y339242D01*
X195208Y339214D01*
X195152Y339187D01*
X195106Y339159D01*
X195069Y339140D01*
X195051Y339122D01*
X195041Y339113D01*
X194986Y339048D01*
X194930Y338965D01*
X194884Y338872D01*
X194838Y338780D01*
X194810Y338687D01*
X194782Y338613D01*
X194773Y338567D01*
X194764Y338558D01*
Y338549D01*
X194745Y338465D01*
X194727Y338364D01*
X194708Y338243D01*
X194690Y338123D01*
X194671Y337874D01*
X194662Y337615D01*
X194653Y337495D01*
Y337374D01*
X194644Y337273D01*
Y337180D01*
Y337106D01*
Y337042D01*
Y337005D01*
Y336995D01*
Y336792D01*
X194653Y336598D01*
Y336422D01*
X194662Y336265D01*
X194671Y336117D01*
X194681Y335988D01*
X194699Y335867D01*
X194708Y335766D01*
X194718Y335673D01*
X194736Y335599D01*
X194745Y335535D01*
X194755Y335479D01*
X194764Y335442D01*
Y335405D01*
X194773Y335396D01*
Y335387D01*
X194810Y335257D01*
X194856Y335155D01*
X194902Y335063D01*
X194939Y334998D01*
X194977Y334943D01*
X195014Y334906D01*
X195032Y334887D01*
X195041Y334878D01*
X195106Y334832D01*
X195171Y334795D01*
X195235Y334776D01*
X195300Y334758D01*
X195346Y334749D01*
X195392Y334739D01*
X195429D01*
X195513Y334749D01*
X195587Y334758D01*
X195651Y334786D01*
X195707Y334813D01*
X195753Y334832D01*
X195790Y334860D01*
X195809Y334869D01*
X195818Y334878D01*
X195873Y334943D01*
X195929Y335026D01*
X195975Y335118D01*
X196021Y335211D01*
X196049Y335294D01*
X196077Y335368D01*
X196086Y335414D01*
X196095Y335433D01*
X196114Y335525D01*
X196132Y335627D01*
X196151Y335738D01*
X196160Y335858D01*
X196178Y336117D01*
X196188Y336376D01*
X196197Y336496D01*
Y336616D01*
X196206Y336718D01*
Y336810D01*
Y336884D01*
Y336949D01*
Y336986D01*
Y336995D01*
Y337199D01*
X196197Y337393D01*
Y337559D01*
X196188Y337726D01*
X196178Y337864D01*
X196169Y338003D01*
X196160Y338114D01*
X196141Y338225D01*
X196132Y338317D01*
X196123Y338391D01*
X196114Y338456D01*
X196105Y338512D01*
X196095Y338549D01*
Y338586D01*
X196086Y338595D01*
Y338604D01*
X196049Y338734D01*
X196003Y338844D01*
X195966Y338928D01*
X195919Y339002D01*
X195883Y339048D01*
X195855Y339085D01*
X195836Y339103D01*
X195827Y339113D01*
X195762Y339159D01*
X195688Y339196D01*
X195624Y339224D01*
X195559Y339242D01*
X195513Y339251D01*
X195466Y339261D01*
D02*
G37*
G36*
X306892Y404159D02*
X305413D01*
X305330Y404150D01*
X305126D01*
X305043Y404140D01*
X304988D01*
X304960Y404131D01*
X304951D01*
X304840Y404103D01*
X304738Y404066D01*
X304655Y404029D01*
X304590Y403983D01*
X304535Y403937D01*
X304489Y403909D01*
X304470Y403881D01*
X304461Y403872D01*
X304405Y403798D01*
X304359Y403706D01*
X304331Y403623D01*
X304304Y403539D01*
X304294Y403465D01*
X304285Y403410D01*
Y403373D01*
Y403354D01*
X304294Y403253D01*
X304304Y403160D01*
X304331Y403077D01*
X304350Y403003D01*
X304378Y402948D01*
X304405Y402911D01*
X304415Y402883D01*
X304424Y402874D01*
X304479Y402809D01*
X304535Y402753D01*
X304655Y402670D01*
X304701Y402643D01*
X304747Y402624D01*
X304775Y402606D01*
X304784D01*
X304831Y402596D01*
X304905Y402578D01*
X304979Y402569D01*
X305062Y402559D01*
X305256Y402550D01*
X305450Y402541D01*
X305635Y402532D01*
X306892D01*
Y404159D01*
D02*
G37*
G36*
X299995Y404307D02*
X299940D01*
X299820Y404297D01*
X299709Y404270D01*
X299616Y404242D01*
X299533Y404205D01*
X299468Y404159D01*
X299422Y404131D01*
X299394Y404103D01*
X299385Y404094D01*
X299311Y404011D01*
X299265Y403918D01*
X299228Y403826D01*
X299200Y403734D01*
X299182Y403660D01*
X299172Y403595D01*
Y403558D01*
Y403539D01*
X299182Y403410D01*
X299209Y403290D01*
X299237Y403197D01*
X299274Y403114D01*
X299320Y403040D01*
X299348Y402994D01*
X299376Y402966D01*
X299385Y402957D01*
X299468Y402892D01*
X299561Y402837D01*
X299653Y402800D01*
X299746Y402781D01*
X299829Y402763D01*
X299893Y402753D01*
X299949D01*
X300069Y402763D01*
X300180Y402781D01*
X300273Y402818D01*
X300356Y402855D01*
X300420Y402892D01*
X300467Y402929D01*
X300494Y402948D01*
X300504Y402957D01*
X300568Y403040D01*
X300624Y403133D01*
X300661Y403225D01*
X300679Y403317D01*
X300698Y403401D01*
X300707Y403465D01*
Y403512D01*
Y403530D01*
X300698Y403660D01*
X300679Y403770D01*
X300642Y403863D01*
X300605Y403946D01*
X300568Y404011D01*
X300531Y404057D01*
X300513Y404085D01*
X300504Y404094D01*
X300420Y404168D01*
X300328Y404214D01*
X300236Y404251D01*
X300143Y404279D01*
X300060Y404297D01*
X299995Y404307D01*
D02*
G37*
G36*
X300004Y401783D02*
X299930D01*
X299792Y401773D01*
X299662Y401736D01*
X299551Y401699D01*
X299459Y401644D01*
X299385Y401598D01*
X299329Y401552D01*
X299293Y401515D01*
X299283Y401505D01*
X299200Y401394D01*
X299135Y401274D01*
X299089Y401154D01*
X299052Y401034D01*
X299034Y400932D01*
X299024Y400849D01*
Y400793D01*
Y400784D01*
Y400775D01*
X299034Y400590D01*
X299061Y400433D01*
X299108Y400294D01*
X299154Y400183D01*
X299200Y400091D01*
X299246Y400035D01*
X299274Y399989D01*
X299283Y399980D01*
X299385Y399887D01*
X299487Y399823D01*
X299588Y399776D01*
X299690Y399749D01*
X299783Y399730D01*
X299847Y399712D01*
X299912D01*
X300051Y399721D01*
X300180Y399758D01*
X300291Y399804D01*
X300383Y399850D01*
X300457Y399906D01*
X300513Y399943D01*
X300550Y399980D01*
X300559Y399989D01*
X300642Y400109D01*
X300707Y400239D01*
X300753Y400368D01*
X300781Y400498D01*
X300800Y400618D01*
X300818Y400710D01*
Y400747D01*
Y400775D01*
Y400784D01*
Y400793D01*
X300809Y400923D01*
X300781Y401052D01*
X300753Y401163D01*
X300707Y401265D01*
X300670Y401348D01*
X300642Y401413D01*
X300615Y401450D01*
X300605Y401468D01*
X300513Y401570D01*
X300402Y401653D01*
X300291Y401709D01*
X300180Y401746D01*
X300088Y401764D01*
X300004Y401783D01*
D02*
G37*
G36*
X288935Y276424D02*
X288811Y276410D01*
X288697Y276369D01*
X288587Y276314D01*
X288486Y276259D01*
X288404Y276195D01*
X288367Y276167D01*
X288340Y276140D01*
X288312Y276121D01*
X288294Y276103D01*
X288285Y276094D01*
X288280Y276089D01*
X288202Y276002D01*
X288138Y275920D01*
X288083Y275837D01*
X288042Y275769D01*
X288019Y275709D01*
X288001Y275663D01*
X287992Y275636D01*
X287987Y275622D01*
X287973Y275535D01*
X287969Y275457D01*
X287978Y275384D01*
X287987Y275320D01*
X288001Y275260D01*
X288015Y275219D01*
X288028Y275196D01*
Y275187D01*
X288074Y275105D01*
X288129Y275022D01*
X288198Y274935D01*
X288266Y274857D01*
X288326Y274789D01*
X288376Y274729D01*
X288550Y274555D01*
X289842Y275847D01*
X289608Y276080D01*
X289475Y276195D01*
X289356Y276277D01*
X289242Y276346D01*
X289141Y276382D01*
X289054Y276405D01*
X288995Y276419D01*
X288953Y276424D01*
X288935D01*
D02*
G37*
G36*
X149863Y313085D02*
X149533D01*
X149358Y313072D01*
X149215Y313046D01*
X149086Y313014D01*
X148989Y312968D01*
X148911Y312923D01*
X148859Y312891D01*
X148827Y312865D01*
X148814Y312852D01*
X148736Y312755D01*
X148684Y312645D01*
X148645Y312528D01*
X148613Y312418D01*
X148600Y312314D01*
X148594Y312269D01*
Y312230D01*
X148587Y312198D01*
Y312172D01*
Y312159D01*
Y312152D01*
X148594Y312036D01*
X148607Y311932D01*
X148626Y311835D01*
X148645Y311757D01*
X148671Y311699D01*
X148691Y311654D01*
X148704Y311628D01*
X148710Y311615D01*
X148762Y311543D01*
X148814Y311485D01*
X148872Y311440D01*
X148924Y311401D01*
X148976Y311369D01*
X149015Y311349D01*
X149040Y311343D01*
X149047Y311336D01*
X149138Y311310D01*
X149235Y311291D01*
X149345Y311278D01*
X149448Y311271D01*
X149539Y311265D01*
X149617Y311259D01*
X149863D01*
Y313085D01*
D02*
G37*
G36*
X329695Y245775D02*
X329365D01*
X329190Y245762D01*
X329047Y245736D01*
X328918Y245704D01*
X328821Y245658D01*
X328743Y245613D01*
X328691Y245581D01*
X328659Y245555D01*
X328646Y245542D01*
X328568Y245445D01*
X328516Y245334D01*
X328477Y245218D01*
X328445Y245108D01*
X328432Y245004D01*
X328426Y244959D01*
Y244920D01*
X328419Y244888D01*
Y244862D01*
Y244849D01*
Y244842D01*
X328426Y244726D01*
X328438Y244622D01*
X328458Y244525D01*
X328477Y244447D01*
X328503Y244389D01*
X328523Y244344D01*
X328536Y244318D01*
X328542Y244305D01*
X328594Y244233D01*
X328646Y244175D01*
X328704Y244130D01*
X328756Y244091D01*
X328808Y244059D01*
X328847Y244039D01*
X328872Y244033D01*
X328879Y244026D01*
X328970Y244000D01*
X329067Y243981D01*
X329177Y243968D01*
X329281Y243961D01*
X329371Y243955D01*
X329449Y243948D01*
X329695D01*
Y245775D01*
D02*
G37*
G36*
X251889Y270517D02*
X251869D01*
X251811Y270510D01*
X251752Y270504D01*
X251714Y270484D01*
X251675Y270465D01*
X251649Y270445D01*
X251629Y270432D01*
X251623Y270419D01*
X251616Y270413D01*
X251597Y270381D01*
X251578Y270348D01*
X251545Y270257D01*
X251519Y270167D01*
X251500Y270070D01*
X251480Y269979D01*
X251474Y269908D01*
Y269875D01*
X251467Y269856D01*
Y269843D01*
Y269837D01*
Y269791D01*
X251461Y269733D01*
Y269649D01*
Y269558D01*
Y269461D01*
X251455Y269351D01*
Y269130D01*
Y269020D01*
Y268917D01*
Y268820D01*
Y268735D01*
Y268664D01*
Y268606D01*
Y268573D01*
Y268561D01*
X251467Y267233D01*
X251480Y267103D01*
X251500Y267000D01*
X251526Y266902D01*
X251552Y266831D01*
X251571Y266773D01*
X251597Y266734D01*
X251610Y266708D01*
X251616Y266702D01*
X251649Y266669D01*
X251688Y266643D01*
X251727Y266630D01*
X251759Y266617D01*
X251798Y266611D01*
X251824Y266604D01*
X251850D01*
X251901Y266611D01*
X251947Y266617D01*
X251986Y266630D01*
X252018Y266643D01*
X252044Y266656D01*
X252063Y266663D01*
X252076Y266676D01*
X252083D01*
X252115Y266708D01*
X252141Y266754D01*
X252180Y266851D01*
X252193Y266896D01*
X252206Y266935D01*
X252212Y266961D01*
Y266967D01*
X252225Y267032D01*
X252232Y267103D01*
X252238Y267187D01*
X252245Y267285D01*
X252258Y267479D01*
X252264Y267680D01*
Y267770D01*
Y267861D01*
X252271Y267945D01*
Y268016D01*
Y268075D01*
Y268120D01*
Y268146D01*
Y268159D01*
Y268308D01*
Y268450D01*
Y268580D01*
Y268710D01*
Y268826D01*
X252264Y268936D01*
Y269040D01*
Y269144D01*
Y269318D01*
X252258Y269474D01*
Y269603D01*
X252251Y269720D01*
X252245Y269811D01*
Y269888D01*
X252238Y269947D01*
Y269992D01*
Y270024D01*
X252232Y270044D01*
Y270050D01*
Y270057D01*
X252212Y270154D01*
X252193Y270232D01*
X252167Y270296D01*
X252141Y270348D01*
X252115Y270387D01*
X252096Y270419D01*
X252083Y270432D01*
X252076Y270439D01*
X252044Y270465D01*
X252012Y270484D01*
X251940Y270510D01*
X251914D01*
X251889Y270517D01*
D02*
G37*
G36*
X177709Y185687D02*
X177638D01*
X177599Y185674D01*
X177534Y185655D01*
X177495Y185629D01*
X177482Y185622D01*
Y185616D01*
X177430Y185564D01*
X177385Y185499D01*
X177346Y185434D01*
X177314Y185370D01*
X177294Y185311D01*
X177275Y185266D01*
X177262Y185234D01*
Y185221D01*
X177217Y185039D01*
X177184Y184851D01*
X177158Y184677D01*
X177145Y184515D01*
X177139Y184443D01*
X177132Y184379D01*
Y184320D01*
X177126Y184275D01*
Y184230D01*
Y184204D01*
Y184184D01*
Y184178D01*
Y184074D01*
X177132Y183971D01*
Y183867D01*
X177139Y183776D01*
X177145Y183692D01*
Y183627D01*
X177152Y183601D01*
Y183582D01*
Y183576D01*
Y183569D01*
X177223Y183537D01*
X177288Y183511D01*
X177340Y183498D01*
X177391Y183485D01*
X177424Y183478D01*
X177456Y183472D01*
X177476D01*
X177553Y183478D01*
X177625Y183504D01*
X177689Y183537D01*
X177741Y183576D01*
X177780Y183614D01*
X177812Y183647D01*
X177832Y183673D01*
X177838Y183679D01*
X177871Y183744D01*
X177903Y183822D01*
X177929Y183906D01*
X177955Y184003D01*
X177987Y184197D01*
X178013Y184392D01*
X178020Y184482D01*
X178026Y184573D01*
X178033Y184651D01*
Y184722D01*
X178039Y184780D01*
Y184819D01*
Y184851D01*
Y184858D01*
Y184949D01*
X178033Y185033D01*
X178026Y185111D01*
X178020Y185182D01*
X178013Y185247D01*
X178000Y185305D01*
X177981Y185396D01*
X177961Y185467D01*
X177942Y185512D01*
X177929Y185545D01*
X177923Y185551D01*
X177884Y185596D01*
X177845Y185629D01*
X177806Y185655D01*
X177767Y185668D01*
X177735Y185681D01*
X177709Y185687D01*
D02*
G37*
G36*
X229363Y282207D02*
X229331D01*
X229246Y282201D01*
X229175Y282181D01*
X229110Y282155D01*
X229058Y282123D01*
X229020Y282090D01*
X228994Y282065D01*
X228974Y282045D01*
X228968Y282039D01*
X228909Y281954D01*
X228864Y281851D01*
X228838Y281754D01*
X228812Y281656D01*
X228799Y281566D01*
X228793Y281495D01*
Y281469D01*
Y281449D01*
Y281436D01*
Y281430D01*
Y281346D01*
X228799Y281268D01*
X228812Y281190D01*
X228819Y281132D01*
X228832Y281074D01*
X228845Y281035D01*
X228851Y281009D01*
Y281002D01*
X228903Y280873D01*
X228929Y280814D01*
X228961Y280763D01*
X228987Y280724D01*
X229007Y280692D01*
X229020Y280672D01*
X229026Y280666D01*
X229110Y280724D01*
X229188Y280776D01*
X229259Y280834D01*
X229324Y280886D01*
X229434Y280977D01*
X229518Y281061D01*
X229583Y281125D01*
X229628Y281177D01*
X229654Y281203D01*
X229661Y281216D01*
X229713Y281307D01*
X229751Y281391D01*
X229784Y281475D01*
X229803Y281540D01*
X229816Y281598D01*
X229823Y281644D01*
Y281670D01*
Y281682D01*
X229816Y281760D01*
X229803Y281831D01*
X229777Y281896D01*
X229751Y281948D01*
X229726Y281993D01*
X229700Y282026D01*
X229687Y282045D01*
X229680Y282052D01*
X229622Y282103D01*
X229564Y282142D01*
X229505Y282168D01*
X229454Y282188D01*
X229402Y282201D01*
X229363Y282207D01*
D02*
G37*
G36*
X229635Y280018D02*
X229492Y279914D01*
X229369Y279811D01*
X229259Y279713D01*
X229169Y279610D01*
X229091Y279513D01*
X229026Y279415D01*
X228974Y279325D01*
X228929Y279241D01*
X228897Y279163D01*
X228877Y279092D01*
X228858Y279027D01*
X228845Y278975D01*
X228838Y278930D01*
X228832Y278897D01*
Y278878D01*
Y278871D01*
X228838Y278768D01*
X228858Y278684D01*
X228884Y278606D01*
X228909Y278541D01*
X228935Y278489D01*
X228961Y278450D01*
X228981Y278424D01*
X228987Y278418D01*
X229046Y278366D01*
X229110Y278327D01*
X229175Y278295D01*
X229233Y278276D01*
X229292Y278263D01*
X229331Y278256D01*
X229369D01*
X229421Y278263D01*
X229473Y278269D01*
X229525Y278282D01*
X229564Y278302D01*
X229603Y278314D01*
X229628Y278327D01*
X229648Y278334D01*
X229654Y278340D01*
X229700Y278379D01*
X229745Y278418D01*
X229810Y278509D01*
X229829Y278554D01*
X229849Y278586D01*
X229855Y278612D01*
X229862Y278619D01*
X229888Y278696D01*
X229900Y278781D01*
X229913Y278865D01*
X229926Y278943D01*
Y279007D01*
X229933Y279066D01*
Y279098D01*
Y279111D01*
X229926Y279273D01*
X229920Y279351D01*
X229907Y279415D01*
X229900Y279467D01*
X229894Y279506D01*
X229888Y279539D01*
Y279545D01*
X229868Y279616D01*
X229849Y279681D01*
X229829Y279739D01*
X229810Y279785D01*
X229797Y279817D01*
X229784Y279843D01*
X229777Y279856D01*
Y279862D01*
X229739Y279914D01*
X229687Y279966D01*
X229648Y280005D01*
X229641Y280011D01*
X229635Y280018D01*
D02*
G37*
G36*
X182457Y231970D02*
X182438D01*
X182360Y231964D01*
X182282Y231938D01*
X182224Y231905D01*
X182172Y231867D01*
X182127Y231821D01*
X182101Y231789D01*
X182081Y231763D01*
X182075Y231756D01*
X182036Y231692D01*
X182004Y231614D01*
X181978Y231530D01*
X181952Y231439D01*
X181919Y231238D01*
X181894Y231044D01*
X181887Y230953D01*
X181881Y230863D01*
X181874Y230785D01*
X181868Y230714D01*
Y230662D01*
Y230616D01*
Y230591D01*
Y230578D01*
Y230487D01*
X181874Y230403D01*
X181881Y230325D01*
X181887Y230260D01*
X181894Y230196D01*
X181907Y230144D01*
X181926Y230053D01*
X181945Y229982D01*
X181965Y229936D01*
X181978Y229911D01*
X181984Y229904D01*
X182030Y229852D01*
X182069Y229813D01*
X182114Y229781D01*
X182153Y229762D01*
X182185Y229749D01*
X182211Y229742D01*
X182237D01*
X182289Y229749D01*
X182334Y229762D01*
X182405Y229800D01*
X182438Y229820D01*
X182457Y229833D01*
X182470Y229846D01*
X182477Y229852D01*
X182528Y229923D01*
X182574Y230008D01*
X182612Y230098D01*
X182645Y230189D01*
X182671Y230273D01*
X182690Y230345D01*
X182697Y230370D01*
Y230390D01*
X182703Y230403D01*
Y230409D01*
X182729Y230558D01*
X182749Y230707D01*
X182761Y230850D01*
X182768Y230973D01*
X182775Y231083D01*
X182781Y231128D01*
Y231167D01*
Y231199D01*
Y231219D01*
Y231232D01*
Y231238D01*
Y231322D01*
X182775Y231420D01*
Y231523D01*
X182768Y231627D01*
X182761Y231724D01*
Y231795D01*
X182755Y231828D01*
Y231847D01*
Y231860D01*
Y231867D01*
X182684Y231899D01*
X182626Y231925D01*
X182567Y231944D01*
X182522Y231957D01*
X182489Y231964D01*
X182457Y231970D01*
D02*
G37*
%LPD*%
D11*
X280324Y259795D02*
X287396Y266866D01*
X270779Y269341D02*
X277850Y276412D01*
X192649Y343172D02*
X194649D01*
X192649Y355672D02*
X194649D01*
X277516Y401436D02*
X279516D01*
X277516Y388936D02*
X279516D01*
X229000Y388750D02*
X231000D01*
X229000Y401250D02*
X231000D01*
X309000Y230250D02*
X311000D01*
X309000Y217750D02*
X311000D01*
X122373Y276288D02*
X123788Y274874D01*
X131212Y285126D02*
X132626Y283712D01*
X167521Y213439D02*
X176518Y222437D01*
X177066Y203893D02*
X186064Y212891D01*
X310587Y148162D02*
X319585Y157160D01*
X301041Y157708D02*
X310039Y166706D01*
D13*
X19000Y66000D02*
X101000D01*
X19000Y148000D02*
X101000D01*
Y66000D02*
Y148000D01*
X19000Y66000D02*
Y148000D01*
X119460Y25540D02*
X109303D01*
X67460Y24618D02*
X57303D01*
X62382Y29697D02*
Y19540D01*
M02*
