G04*
G04 #@! TF.GenerationSoftware,Altium Limited,Altium Designer,25.8.1 (18)*
G04*
G04 Layer_Physical_Order=1*
G04 Layer_Color=255*
%FSLAX44Y44*%
%MOMM*%
G71*
G04*
G04 #@! TF.SameCoordinates,296E5682-1CD9-4F0E-B59E-B9EDD9CACA41*
G04*
G04*
G04 #@! TF.FilePolarity,Positive*
G04*
G01*
G75*
%ADD15R,0.7200X0.7600*%
%ADD16R,0.4750X0.2500*%
%ADD17R,0.2500X0.4750*%
%ADD18R,0.7600X0.7200*%
G04:AMPARAMS|DCode=19|XSize=0.5mm|YSize=0.6mm|CornerRadius=0mm|HoleSize=0mm|Usage=FLASHONLY|Rotation=315.000|XOffset=0mm|YOffset=0mm|HoleType=Round|Shape=Rectangle|*
%AMROTATEDRECTD19*
4,1,4,-0.3889,-0.0354,0.0354,0.3889,0.3889,0.0354,-0.0354,-0.3889,-0.3889,-0.0354,0.0*
%
%ADD19ROTATEDRECTD19*%

G04:AMPARAMS|DCode=20|XSize=0.3mm|YSize=1.2mm|CornerRadius=0mm|HoleSize=0mm|Usage=FLASHONLY|Rotation=315.000|XOffset=0mm|YOffset=0mm|HoleType=Round|Shape=Rectangle|*
%AMROTATEDRECTD20*
4,1,4,-0.5303,-0.3182,0.3182,0.5303,0.5303,0.3182,-0.3182,-0.5303,-0.5303,-0.3182,0.0*
%
%ADD20ROTATEDRECTD20*%

G04:AMPARAMS|DCode=21|XSize=0.72mm|YSize=0.76mm|CornerRadius=0mm|HoleSize=0mm|Usage=FLASHONLY|Rotation=315.000|XOffset=0mm|YOffset=0mm|HoleType=Round|Shape=Rectangle|*
%AMROTATEDRECTD21*
4,1,4,-0.5233,-0.0141,0.0141,0.5233,0.5233,0.0141,-0.0141,-0.5233,-0.5233,-0.0141,0.0*
%
%ADD21ROTATEDRECTD21*%

G04:AMPARAMS|DCode=22|XSize=1.2mm|YSize=0.3mm|CornerRadius=0mm|HoleSize=0mm|Usage=FLASHONLY|Rotation=315.000|XOffset=0mm|YOffset=0mm|HoleType=Round|Shape=Rectangle|*
%AMROTATEDRECTD22*
4,1,4,-0.5303,0.3182,-0.3182,0.5303,0.5303,-0.3182,0.3182,-0.5303,-0.5303,0.3182,0.0*
%
%ADD22ROTATEDRECTD22*%

%ADD23R,1.4562X1.2546*%
%ADD24R,0.8000X1.0000*%
G04:AMPARAMS|DCode=25|XSize=0.9061mm|YSize=0.8582mm|CornerRadius=0mm|HoleSize=0mm|Usage=FLASHONLY|Rotation=315.000|XOffset=0mm|YOffset=0mm|HoleType=Round|Shape=Rectangle|*
%AMROTATEDRECTD25*
4,1,4,-0.6238,0.0169,-0.0169,0.6238,0.6238,-0.0169,0.0169,-0.6238,-0.6238,0.0169,0.0*
%
%ADD25ROTATEDRECTD25*%

%ADD26R,3.2500X1.4500*%
%ADD27R,0.9500X1.4500*%
%ADD28R,0.9400X1.4300*%
G04:AMPARAMS|DCode=29|XSize=0.5153mm|YSize=0.4725mm|CornerRadius=0mm|HoleSize=0mm|Usage=FLASHONLY|Rotation=45.000|XOffset=0mm|YOffset=0mm|HoleType=Round|Shape=Rectangle|*
%AMROTATEDRECTD29*
4,1,4,-0.0152,-0.3493,-0.3493,-0.0152,0.0152,0.3493,0.3493,0.0152,-0.0152,-0.3493,0.0*
%
%ADD29ROTATEDRECTD29*%

G04:AMPARAMS|DCode=30|XSize=1mm|YSize=0.7mm|CornerRadius=0mm|HoleSize=0mm|Usage=FLASHONLY|Rotation=315.000|XOffset=0mm|YOffset=0mm|HoleType=Round|Shape=Rectangle|*
%AMROTATEDRECTD30*
4,1,4,-0.6010,0.1061,-0.1061,0.6010,0.6010,-0.1061,0.1061,-0.6010,-0.6010,0.1061,0.0*
%
%ADD30ROTATEDRECTD30*%

%ADD31R,1.0000X0.8000*%
%ADD32R,0.8000X0.8000*%
%ADD33R,0.8000X0.8000*%
%ADD55C,0.8000*%
%ADD56C,0.3000*%
%ADD57C,0.5000*%
%ADD58C,0.6000*%
%ADD59C,0.4000*%
%ADD60R,6.7000X1.0000*%
%ADD61R,1.8000X8.0000*%
%ADD62R,1.3000X3.6000*%
%ADD63R,2.0000X1.6000*%
%ADD64O,2.0000X1.6000*%
G04:AMPARAMS|DCode=65|XSize=2mm|YSize=1.6mm|CornerRadius=0mm|HoleSize=0mm|Usage=FLASHONLY|Rotation=135.000|XOffset=0mm|YOffset=0mm|HoleType=Round|Shape=Round|*
%AMOVALD65*
21,1,0.4000,1.6000,0.0000,0.0000,135.0*
1,1,1.6000,0.1414,-0.1414*
1,1,1.6000,-0.1414,0.1414*
%
%ADD65OVALD65*%

%ADD66C,1.5300*%
%ADD67R,1.6000X2.0000*%
%ADD68O,1.6000X2.0000*%
%ADD69O,6.5000X7.0000*%
G04:AMPARAMS|DCode=70|XSize=2mm|YSize=1.6mm|CornerRadius=0mm|HoleSize=0mm|Usage=FLASHONLY|Rotation=135.000|XOffset=0mm|YOffset=0mm|HoleType=Round|Shape=Rectangle|*
%AMROTATEDRECTD70*
4,1,4,1.2728,-0.1414,0.1414,-1.2728,-1.2728,0.1414,-0.1414,1.2728,1.2728,-0.1414,0.0*
%
%ADD70ROTATEDRECTD70*%

%ADD71R,1.5300X1.5300*%
%ADD72C,0.5080*%
G36*
X349437Y414960D02*
X345139Y413928D01*
X340043Y411817D01*
X335340Y408936D01*
X331146Y405354D01*
X327564Y401160D01*
X324683Y396457D01*
X322572Y391362D01*
X321284Y385998D01*
X320852Y380500D01*
Y379270D01*
X356000D01*
Y378000D01*
X357270D01*
Y340452D01*
X361498Y340784D01*
X366861Y342072D01*
X371957Y344183D01*
X376660Y347064D01*
X380854Y350646D01*
X384436Y354840D01*
X387317Y359543D01*
X389428Y364638D01*
X389960Y366854D01*
X392500Y366553D01*
Y49447D01*
X389960Y49146D01*
X389428Y51361D01*
X387317Y56457D01*
X384436Y61160D01*
X380854Y65354D01*
X376660Y68936D01*
X371957Y71817D01*
X366861Y73928D01*
X361498Y75216D01*
X357270Y75548D01*
Y38000D01*
X356000D01*
Y36730D01*
X320852D01*
Y35500D01*
X321284Y30002D01*
X322572Y24639D01*
X324683Y19543D01*
X327564Y14840D01*
X331146Y10646D01*
X335340Y7064D01*
X340043Y4183D01*
X345139Y2072D01*
X347354Y1540D01*
X347053Y-1000D01*
X27482D01*
X23521Y-479D01*
X19662Y556D01*
X15970Y2085D01*
X12510Y4082D01*
X9340Y6515D01*
X6515Y9340D01*
X4082Y12510D01*
X2085Y15970D01*
X556Y19662D01*
X-479Y23521D01*
X-1000Y27482D01*
Y29480D01*
Y361382D01*
X1540Y361887D01*
X1683Y361543D01*
X4564Y356840D01*
X8146Y352646D01*
X12340Y349064D01*
X17043Y346183D01*
X22139Y344072D01*
X27502Y342784D01*
X31730Y342452D01*
Y380000D01*
X33000D01*
Y381270D01*
X68148D01*
Y382500D01*
X67716Y387998D01*
X66428Y393362D01*
X64317Y398457D01*
X61436Y403160D01*
X57854Y407354D01*
X53660Y410936D01*
X48957Y413817D01*
X46199Y414960D01*
X46704Y417500D01*
X349136D01*
X349437Y414960D01*
D02*
G37*
%LPC*%
G36*
X303840Y385040D02*
X294570D01*
Y373770D01*
X303840D01*
Y385040D01*
D02*
G37*
G36*
X292030D02*
X282760D01*
Y373770D01*
X292030D01*
Y385040D01*
D02*
G37*
G36*
X217100Y384082D02*
X214620Y383755D01*
X212309Y382798D01*
X210324Y381275D01*
X208802Y379291D01*
X207845Y376980D01*
X207518Y374500D01*
Y370500D01*
X207845Y368020D01*
X208802Y365709D01*
X210324Y363725D01*
X212309Y362202D01*
X214620Y361245D01*
X217100Y360918D01*
X219580Y361245D01*
X221891Y362202D01*
X223875Y363725D01*
X225398Y365709D01*
X226355Y368020D01*
X226682Y370500D01*
Y374500D01*
X226355Y376980D01*
X225398Y379291D01*
X223875Y381275D01*
X221891Y382798D01*
X219580Y383755D01*
X217100Y384082D01*
D02*
G37*
G36*
X303840Y371230D02*
X294570D01*
Y359960D01*
X303840D01*
Y371230D01*
D02*
G37*
G36*
X292030D02*
X282760D01*
Y359960D01*
X292030D01*
Y371230D01*
D02*
G37*
G36*
X281170Y357140D02*
Y352270D01*
X286240D01*
Y357140D01*
X281170D01*
D02*
G37*
G36*
X253730Y357006D02*
Y352136D01*
X258800D01*
Y357006D01*
X253730D01*
D02*
G37*
G36*
X286240Y349730D02*
X281170D01*
Y344860D01*
X286240D01*
Y349730D01*
D02*
G37*
G36*
X68148Y378730D02*
X34270D01*
Y342452D01*
X38498Y342784D01*
X43861Y344072D01*
X48957Y346183D01*
X53660Y349064D01*
X57854Y352646D01*
X61436Y356840D01*
X64317Y361543D01*
X66428Y366638D01*
X67716Y372002D01*
X68148Y377500D01*
Y378730D01*
D02*
G37*
G36*
X354730Y376730D02*
X320852D01*
Y375500D01*
X321284Y370002D01*
X322572Y364638D01*
X324683Y359543D01*
X327564Y354840D01*
X331146Y350646D01*
X335340Y347064D01*
X340043Y344183D01*
X345139Y342072D01*
X350502Y340784D01*
X354730Y340452D01*
Y376730D01*
D02*
G37*
G36*
X144747Y346617D02*
X141375Y343245D01*
X145808Y338811D01*
X149181Y342184D01*
X144747Y346617D01*
D02*
G37*
G36*
X231540Y339040D02*
X226270D01*
Y333770D01*
X231540D01*
Y339040D01*
D02*
G37*
G36*
X223730D02*
X218460D01*
Y333770D01*
X223730D01*
Y339040D01*
D02*
G37*
G36*
X150977Y340388D02*
X147604Y337015D01*
X152038Y332581D01*
X155411Y335954D01*
X150977Y340388D01*
D02*
G37*
G36*
X243230Y331230D02*
X237960D01*
Y325960D01*
X243230D01*
Y331230D01*
D02*
G37*
G36*
X231540Y331230D02*
X226270D01*
Y325960D01*
X231540D01*
Y331230D01*
D02*
G37*
G36*
X223730D02*
X218460D01*
Y325960D01*
X223730D01*
Y331230D01*
D02*
G37*
G36*
X65833Y344121D02*
X63424D01*
X61096Y343498D01*
X59010Y342293D01*
X57306Y340589D01*
X56102Y338503D01*
X55478Y336176D01*
Y333767D01*
X56102Y331439D01*
X57306Y329353D01*
X59010Y327649D01*
X61096Y326445D01*
X63424Y325821D01*
X65833D01*
X68160Y326445D01*
X70246Y327649D01*
X71950Y329353D01*
X73155Y331439D01*
X73778Y333767D01*
Y336176D01*
X73155Y338503D01*
X71950Y340589D01*
X70246Y342293D01*
X68160Y343498D01*
X65833Y344121D01*
D02*
G37*
G36*
X295804Y318777D02*
X290734D01*
Y313907D01*
X295804D01*
Y318777D01*
D02*
G37*
G36*
X280143Y317463D02*
Y312393D01*
X285013D01*
Y317463D01*
X280143D01*
D02*
G37*
G36*
X230500Y323000D02*
X219500D01*
Y312000D01*
X221941D01*
Y308000D01*
X218500D01*
Y297000D01*
X231500D01*
Y308000D01*
X228059D01*
Y312000D01*
X230500D01*
Y323000D01*
D02*
G37*
G36*
X187174Y304191D02*
X183801Y300818D01*
X188235Y296385D01*
X191607Y299757D01*
X187174Y304191D01*
D02*
G37*
G36*
X182005Y299022D02*
X178632Y295649D01*
X183066Y291216D01*
X186439Y294589D01*
X182005Y299022D01*
D02*
G37*
G36*
X193404Y297961D02*
X190031Y294589D01*
X194464Y290155D01*
X197837Y293528D01*
X193404Y297961D01*
D02*
G37*
G36*
X188235Y292792D02*
X184862Y289420D01*
X189295Y284986D01*
X192668Y288359D01*
X188235Y292792D01*
D02*
G37*
G36*
X267900Y384082D02*
X265420Y383755D01*
X263109Y382798D01*
X261124Y381275D01*
X259602Y379291D01*
X258645Y376980D01*
X258318Y374500D01*
Y370500D01*
X258645Y368020D01*
X259602Y365709D01*
X261124Y363725D01*
X263109Y362202D01*
X265420Y361245D01*
X265431Y361243D01*
Y356100D01*
X264800D01*
Y345900D01*
X264941D01*
Y278796D01*
X262595Y277824D01*
X256681Y283737D01*
Y336378D01*
X256448Y337548D01*
X255785Y338541D01*
X255785Y338541D01*
X251946Y342379D01*
X252918Y344726D01*
X258800D01*
Y349596D01*
X252460D01*
Y350866D01*
X251190D01*
Y357006D01*
X246120D01*
X245559Y359314D01*
Y361484D01*
X247291Y362202D01*
X249275Y363725D01*
X250798Y365709D01*
X251755Y368020D01*
X252082Y370500D01*
Y374500D01*
X251755Y376980D01*
X250798Y379291D01*
X249275Y381275D01*
X247291Y382798D01*
X244980Y383755D01*
X242500Y384082D01*
X240020Y383755D01*
X237709Y382798D01*
X235725Y381275D01*
X234202Y379291D01*
X233244Y376980D01*
X232918Y374500D01*
Y370500D01*
X233244Y368020D01*
X234202Y365709D01*
X235725Y363725D01*
X237709Y362202D01*
X239441Y361484D01*
Y355966D01*
X237360D01*
Y345766D01*
X239564D01*
X241901Y345040D01*
X242134Y343869D01*
X242797Y342877D01*
X244287Y341387D01*
X243316Y339040D01*
X237960D01*
Y333770D01*
X244500D01*
Y332500D01*
X245770D01*
Y325960D01*
X248133D01*
X248459Y325540D01*
X247214Y323000D01*
X239000D01*
Y312000D01*
X241441D01*
Y307988D01*
X237606D01*
Y296988D01*
X250563D01*
Y292988D01*
X237606D01*
Y286314D01*
X234040Y282748D01*
X231500Y283800D01*
Y293000D01*
X218500D01*
Y286326D01*
X215233Y283059D01*
X207655D01*
X207288Y283425D01*
X205804Y284040D01*
X204196D01*
X202712Y283425D01*
X201575Y282288D01*
X200960Y280804D01*
Y279196D01*
X201575Y277712D01*
X202063Y277223D01*
X202631Y276177D01*
X202197Y274039D01*
X202094Y273935D01*
X201479Y272450D01*
Y270843D01*
X202094Y269358D01*
X203230Y268222D01*
X204715Y267607D01*
X206322D01*
X207807Y268222D01*
X208527Y268941D01*
X227618D01*
X227618Y268941D01*
X228788Y269174D01*
X229781Y269837D01*
X234618Y274675D01*
X236733Y274289D01*
X237275Y273739D01*
X237224Y273549D01*
X233297Y269623D01*
X232634Y268631D01*
X232401Y267460D01*
X232401Y267460D01*
Y249904D01*
X231475Y249256D01*
X229861Y248602D01*
X228804Y249040D01*
X227196D01*
X226701Y248835D01*
X222041Y253495D01*
X221790Y253662D01*
X216696Y258757D01*
X212453Y254514D01*
X205382Y247443D01*
X202554Y244614D01*
X195524Y237585D01*
X192790Y240319D01*
X192034Y242546D01*
X195619Y246131D01*
X191277Y250472D01*
X186936Y254814D01*
X185066Y252944D01*
X181507Y252910D01*
X168628Y265790D01*
X170203Y267365D01*
X164070Y273499D01*
Y277426D01*
X164070Y277426D01*
X163837Y278597D01*
X163174Y279589D01*
X163174Y279589D01*
X161040Y281723D01*
Y282804D01*
X160425Y284289D01*
X159289Y285425D01*
X157804Y286040D01*
X156196D01*
X154712Y285425D01*
X153599Y284312D01*
X153461Y284314D01*
X151059Y284851D01*
Y320000D01*
X151059Y320000D01*
X150826Y321171D01*
X150163Y322163D01*
X147282Y325044D01*
X146869Y327412D01*
X147687Y328231D01*
X150242Y330785D01*
X144910Y336117D01*
X139579Y341449D01*
X136912Y338782D01*
X136456Y338345D01*
X134952Y337980D01*
X133743Y337888D01*
X133029Y338030D01*
X133029Y338030D01*
X98681D01*
X98554Y338503D01*
X97350Y340589D01*
X95646Y342293D01*
X93560Y343498D01*
X91233Y344121D01*
X88823D01*
X86496Y343498D01*
X84410Y342293D01*
X82706Y340589D01*
X81502Y338503D01*
X80878Y336176D01*
Y333767D01*
X81502Y331439D01*
X82706Y329353D01*
X84410Y327649D01*
X86496Y326445D01*
X88823Y325821D01*
X91233D01*
X93560Y326445D01*
X95646Y327649D01*
X97350Y329353D01*
X98554Y331439D01*
X98681Y331912D01*
X131762D01*
X137854Y325820D01*
X136802Y323280D01*
X75278D01*
X75278Y323280D01*
X74108Y323047D01*
X73115Y322384D01*
X68584Y317853D01*
X68160Y318098D01*
X65833Y318721D01*
X63424D01*
X61096Y318098D01*
X59010Y316893D01*
X57306Y315189D01*
X56102Y313103D01*
X55478Y310776D01*
Y308367D01*
X56102Y306039D01*
X57306Y303953D01*
X59010Y302249D01*
X61096Y301045D01*
X62761Y300599D01*
X62427Y298059D01*
X42655D01*
X42288Y298425D01*
X40804Y299040D01*
X39196D01*
X37712Y298425D01*
X36575Y297288D01*
X35960Y295804D01*
Y294196D01*
X36575Y292712D01*
X37712Y291575D01*
X39196Y290960D01*
X40804D01*
X42288Y291575D01*
X42655Y291941D01*
X55866D01*
X56624Y290808D01*
X57082Y289401D01*
X56102Y287703D01*
X55478Y285376D01*
Y282967D01*
X56102Y280639D01*
X57306Y278553D01*
X59010Y276849D01*
X61096Y275645D01*
X63424Y275021D01*
X65833D01*
X68160Y275645D01*
X70246Y276849D01*
X71950Y278553D01*
X73155Y280639D01*
X73778Y282967D01*
Y285376D01*
X73155Y287703D01*
X72174Y289401D01*
X72632Y290808D01*
X73390Y291941D01*
X75457D01*
X75457Y291941D01*
X76627Y292174D01*
X77620Y292837D01*
X86072Y301290D01*
X86496Y301045D01*
X88823Y300421D01*
X91233D01*
X93560Y301045D01*
X95646Y302249D01*
X97350Y303953D01*
X98554Y306039D01*
X99178Y308367D01*
Y310776D01*
X98554Y313103D01*
X97677Y314622D01*
X98349Y316407D01*
X98969Y317162D01*
X113445D01*
X114417Y314816D01*
X111514Y311913D01*
X120706Y302720D01*
X121253Y303268D01*
X123460Y301882D01*
Y301696D01*
X124075Y300212D01*
X125211Y299075D01*
X126696Y298460D01*
X128304D01*
X129788Y299075D01*
X130925Y300212D01*
X131540Y301696D01*
Y303304D01*
X130925Y304788D01*
X129788Y305925D01*
X128304Y306540D01*
X128118D01*
X126381Y308395D01*
X127777Y309791D01*
X122753Y314816D01*
X123725Y317162D01*
X138254D01*
X140441Y314976D01*
Y262945D01*
X140441Y262945D01*
X140674Y261775D01*
X141337Y260783D01*
X165780Y236340D01*
X164897Y235457D01*
X168364Y231991D01*
X166568Y230195D01*
X163101Y233661D01*
X160381Y230941D01*
Y230942D01*
X159228Y228623D01*
X158613Y227703D01*
X156498Y225588D01*
X157208Y224878D01*
X152455Y220125D01*
X142928Y229652D01*
X134738Y221462D01*
X136118Y220082D01*
X124236Y208200D01*
X118021D01*
X117000Y208624D01*
X115852D01*
X113622Y210854D01*
X122868Y220101D01*
X122978Y220264D01*
X123425Y220711D01*
X123667Y221296D01*
X123753Y221424D01*
X123783Y221575D01*
X124040Y222196D01*
Y222869D01*
X124063Y222985D01*
X124040Y223101D01*
Y223804D01*
X123771Y224453D01*
X123753Y224545D01*
X123700Y224624D01*
X123425Y225289D01*
X122916Y225797D01*
X122868Y225869D01*
X122797Y225916D01*
X122289Y226425D01*
X121624Y226700D01*
X121545Y226753D01*
X121453Y226771D01*
X120804Y227040D01*
X120101D01*
X119985Y227063D01*
X119869Y227040D01*
X119196D01*
X118575Y226783D01*
X118424Y226753D01*
X118296Y226667D01*
X117711Y226425D01*
X117264Y225978D01*
X117101Y225869D01*
X109764Y218532D01*
X98148Y230148D01*
X97000Y230624D01*
X93853D01*
X92761Y231715D01*
X91438Y232599D01*
X89878Y232909D01*
X89878Y232909D01*
X68016D01*
Y236529D01*
X67650D01*
Y250108D01*
X68160Y250245D01*
X70246Y251449D01*
X71950Y253153D01*
X73155Y255239D01*
X73778Y257567D01*
Y259976D01*
X73155Y262303D01*
X71950Y264389D01*
X70246Y266093D01*
X68160Y267298D01*
X65833Y267921D01*
X63424D01*
X61096Y267298D01*
X59010Y266093D01*
X57306Y264389D01*
X56417Y262850D01*
X52100D01*
Y265200D01*
X41900D01*
Y263978D01*
X37302D01*
X36845Y264284D01*
X36823Y264288D01*
Y272062D01*
X19261D01*
Y256586D01*
X18221D01*
Y249043D01*
X28042D01*
X37863D01*
Y255822D01*
X40860D01*
Y251370D01*
X47000D01*
X53140D01*
Y254693D01*
X56417D01*
X57306Y253153D01*
X59010Y251449D01*
X59494Y251170D01*
Y236529D01*
X57016D01*
Y230734D01*
X56800Y230541D01*
X55852Y230148D01*
X55552Y229423D01*
X53016Y230065D01*
Y236529D01*
X42016D01*
Y233088D01*
X37529D01*
X37529Y233088D01*
X37088Y233000D01*
X29500D01*
Y222000D01*
X40500D01*
Y222000D01*
X42016Y223529D01*
X52836D01*
X53016Y223529D01*
X55376Y223095D01*
Y208624D01*
X50000D01*
X48852Y208148D01*
X48376Y207000D01*
Y197000D01*
X48852Y195852D01*
X49064Y195764D01*
Y188195D01*
X57376D01*
Y131000D01*
Y125114D01*
X57066Y122703D01*
X51204Y122703D01*
Y129675D01*
X43914D01*
X36624D01*
Y121155D01*
X42586D01*
Y114283D01*
X49826D01*
Y113013D01*
X51096D01*
Y103323D01*
X55322D01*
X57066Y103323D01*
X59584Y103376D01*
X73000D01*
X74148Y103852D01*
X74624Y105000D01*
Y116072D01*
X74644Y116102D01*
X74955Y117663D01*
X74920Y117836D01*
X76630Y120282D01*
X76807Y120376D01*
X77000D01*
X78148Y120852D01*
X78624Y122000D01*
Y188195D01*
X84564D01*
Y195376D01*
X117000D01*
X117211Y195464D01*
X160061Y152613D01*
X160061Y152613D01*
X160852Y152085D01*
X161984Y150953D01*
X163468Y150338D01*
X165076D01*
X166560Y150953D01*
X167697Y152090D01*
X167896Y152570D01*
X170789Y155464D01*
X173563Y152690D01*
X173562Y152690D01*
X180634Y145619D01*
X184876Y141377D01*
X191240Y135013D01*
X191240Y135013D01*
X197834Y128419D01*
X197369Y126671D01*
X196782Y125879D01*
X172447D01*
X112040Y186286D01*
Y186804D01*
X111425Y188288D01*
X110288Y189425D01*
X108804Y190040D01*
X107196D01*
X105711Y189425D01*
X104575Y188288D01*
X103960Y186804D01*
Y185196D01*
X104575Y183711D01*
X105711Y182575D01*
X107196Y181960D01*
X107714D01*
X169017Y120658D01*
X170009Y119994D01*
X171180Y119762D01*
X171180Y119762D01*
X204503D01*
X204503Y119762D01*
X205674Y119994D01*
X206024Y120229D01*
X208182Y118070D01*
X207447Y117335D01*
X209638Y115144D01*
X209711Y112425D01*
X208575Y111288D01*
X207960Y109804D01*
Y108196D01*
X208575Y106712D01*
X209711Y105575D01*
X211196Y104960D01*
X212804D01*
X214288Y105575D01*
X215425Y106712D01*
X216040Y108196D01*
Y108818D01*
X222041Y114819D01*
X222208Y115069D01*
X227302Y120164D01*
X224502Y122964D01*
X225238Y123699D01*
X223279Y125658D01*
X217240Y119619D01*
X215444Y121415D01*
X221483Y127454D01*
X219524Y129412D01*
X218789Y128677D01*
X212453Y135013D01*
X212453Y135013D01*
X208918Y138548D01*
X202554Y144912D01*
X202554Y144912D01*
X198311Y149155D01*
X194776Y152690D01*
X191240Y156226D01*
X184876Y162590D01*
X184876Y162590D01*
X178540Y168926D01*
X179276Y169661D01*
X177317Y171620D01*
X171278Y165581D01*
X169482Y167377D01*
X175521Y173416D01*
X173562Y175375D01*
X172827Y174639D01*
X170027Y177439D01*
X159420Y166833D01*
X160697Y165556D01*
X160557Y164361D01*
X157892Y163434D01*
X123629Y197697D01*
X124601Y200044D01*
X125926D01*
X125926Y200044D01*
X127486Y200354D01*
X128810Y201238D01*
X141885Y214314D01*
X151413Y204787D01*
X157683Y211057D01*
X160575Y210711D01*
X161712Y209575D01*
X163196Y208960D01*
X163307D01*
X164359Y206420D01*
X159420Y201481D01*
X160750Y200151D01*
X159269Y198040D01*
X159196D01*
X157711Y197425D01*
X156575Y196289D01*
X155960Y194804D01*
Y193196D01*
X156575Y191712D01*
X157711Y190575D01*
X159196Y189960D01*
X160804D01*
X162288Y190575D01*
X163425Y191712D01*
X164040Y193196D01*
Y193269D01*
X166151Y194750D01*
X170027Y190874D01*
X171420Y192267D01*
X173960Y191215D01*
Y191196D01*
X174575Y189711D01*
X175711Y188575D01*
X177196Y187960D01*
X178804D01*
X180288Y188575D01*
X181425Y189711D01*
X182040Y191196D01*
Y192804D01*
X181425Y194289D01*
X180552Y195162D01*
X180428Y195783D01*
X179765Y196776D01*
X179765Y196776D01*
X177847Y198694D01*
X179702Y200549D01*
X182247Y199503D01*
X182575Y198711D01*
X183711Y197575D01*
X185196Y196960D01*
X186804D01*
X188288Y197575D01*
X189425Y198711D01*
X190040Y200196D01*
X192010Y201920D01*
X192387Y202076D01*
X193878Y202693D01*
X195307Y204122D01*
X195972Y205730D01*
X191000D01*
Y208270D01*
X195972D01*
X195307Y209878D01*
X194338Y210847D01*
X194478Y213598D01*
X195961Y214355D01*
X197018Y213297D01*
X198011Y212634D01*
X199181Y212401D01*
X199181Y212401D01*
X211131D01*
X212196Y211960D01*
X213804D01*
X215289Y212575D01*
X216425Y213711D01*
X217040Y215196D01*
Y216804D01*
X216425Y218288D01*
X215289Y219425D01*
X213804Y220040D01*
X212196D01*
X212000Y219959D01*
X209559Y221591D01*
Y221804D01*
X208944Y223288D01*
X207807Y224425D01*
X207356Y224612D01*
X206585Y227231D01*
X206612Y227460D01*
X212453Y233301D01*
X215989Y236836D01*
X223018Y243866D01*
X223649Y243235D01*
X224641Y242572D01*
X224733Y242554D01*
X225711Y241575D01*
X227196Y240960D01*
X228804D01*
X229861Y241398D01*
X231475Y240744D01*
X232401Y240096D01*
Y165039D01*
X232401Y165039D01*
X232634Y163869D01*
X233297Y162876D01*
X256988Y139185D01*
X256578Y136004D01*
X255587Y135013D01*
Y135013D01*
X247809Y127235D01*
X240738Y120164D01*
X251344Y109557D01*
X254880Y113092D01*
X261951Y120164D01*
X265486Y123699D01*
X272557Y130770D01*
X276800Y135013D01*
X281808Y140021D01*
X284348Y138969D01*
Y124332D01*
X273462Y113446D01*
X272799Y112454D01*
X272567Y111283D01*
X272567Y111283D01*
Y98469D01*
X270834Y97752D01*
X268850Y96229D01*
X267327Y94245D01*
X266370Y91934D01*
X266043Y89454D01*
X266370Y86974D01*
X267327Y84663D01*
X268850Y82678D01*
X271678Y79850D01*
X273663Y78327D01*
X275974Y77370D01*
X278454Y77043D01*
X280934Y77370D01*
X283245Y78327D01*
X285229Y79850D01*
X286398Y81373D01*
X288499Y79939D01*
X289195Y79243D01*
X289195Y76702D01*
X285236Y72743D01*
X271321D01*
X267430Y76634D01*
X260875Y70079D01*
X268844Y62110D01*
X271321Y64586D01*
X286925D01*
X286925Y64586D01*
X288486Y64897D01*
X289809Y65781D01*
X296233Y72205D01*
X297073Y71365D01*
X300658Y74950D01*
X296316Y79292D01*
X291974Y83634D01*
X290140Y81799D01*
X290108Y81767D01*
X290107Y81767D01*
X288818Y80477D01*
X286752Y81834D01*
X287709Y84145D01*
X288036Y86625D01*
X287709Y89105D01*
X286752Y91416D01*
X285229Y93401D01*
X282401Y96229D01*
X280416Y97752D01*
X278684Y98469D01*
Y110016D01*
X286886Y118219D01*
X289426Y117167D01*
Y115974D01*
X288795Y115712D01*
X286810Y114190D01*
X285288Y112205D01*
X284330Y109894D01*
X284004Y107414D01*
X284330Y104934D01*
X285288Y102623D01*
X286810Y100639D01*
X289639Y97810D01*
X291623Y96288D01*
X293934Y95330D01*
X296414Y95004D01*
X298894Y95330D01*
X301205Y96288D01*
X303190Y97810D01*
X304712Y99795D01*
X305670Y102106D01*
X305996Y104586D01*
X305670Y107066D01*
X304712Y109377D01*
X303190Y111361D01*
X300361Y114190D01*
X298377Y115712D01*
X296644Y116430D01*
Y142268D01*
X296645Y142269D01*
X296412Y143439D01*
X295749Y144432D01*
X290984Y149197D01*
X294478Y152690D01*
X294478Y152690D01*
X297264Y155477D01*
X309905Y142837D01*
X309905Y142837D01*
X310897Y142174D01*
X312068Y141941D01*
X312068Y141941D01*
X349946D01*
X349953Y141924D01*
X351476Y139940D01*
X353460Y138417D01*
X355771Y137460D01*
X358251Y137133D01*
X362251D01*
X364731Y137460D01*
X367042Y138417D01*
X369027Y139940D01*
X370550Y141924D01*
X371507Y144235D01*
X371833Y146715D01*
X371507Y149195D01*
X370550Y151506D01*
X369027Y153490D01*
X367042Y155013D01*
X364731Y155970D01*
X362251Y156297D01*
X358251D01*
X355771Y155970D01*
X353460Y155013D01*
X351476Y153490D01*
X349953Y151506D01*
X348996Y149195D01*
X348846Y148059D01*
X313335D01*
X302326Y159068D01*
X302800Y159542D01*
X296762Y165581D01*
X290723Y171620D01*
X288764Y169661D01*
X289500Y168926D01*
X283164Y162590D01*
X283164Y162590D01*
X276093Y155519D01*
X273265Y152690D01*
X269022Y148448D01*
X262700Y142125D01*
X238519Y166306D01*
Y238906D01*
X240196Y240960D01*
X241804D01*
X243288Y241575D01*
X246303Y241114D01*
X248516Y238901D01*
X249251Y239636D01*
X254937Y233950D01*
X254674Y233556D01*
X254441Y232385D01*
X254441Y232385D01*
Y219000D01*
X254441Y219000D01*
X254674Y217829D01*
X255337Y216837D01*
X264798Y207376D01*
X264798Y207376D01*
X268460Y203714D01*
Y203196D01*
X269075Y201712D01*
X270212Y200575D01*
X271696Y199960D01*
X273304D01*
X274788Y200575D01*
X275925Y201712D01*
X276540Y203196D01*
Y204804D01*
X275925Y206289D01*
X274788Y207425D01*
X273304Y208040D01*
X272786D01*
X269124Y211702D01*
X269124Y211702D01*
X269124Y211702D01*
X260559Y220267D01*
Y224737D01*
X261479Y225391D01*
X263099Y225789D01*
X265486Y223401D01*
X269022Y219866D01*
X276093Y212795D01*
X279628Y209259D01*
X286700Y202188D01*
X290942Y197945D01*
X293771Y195117D01*
X298013Y190874D01*
X303107Y195968D01*
X303358Y196136D01*
X309887Y202665D01*
X323009D01*
X349606Y176068D01*
X348996Y174595D01*
X348669Y172115D01*
X348996Y169635D01*
X349953Y167324D01*
X351476Y165340D01*
X353460Y163817D01*
X355771Y162860D01*
X358251Y162533D01*
X362251D01*
X364731Y162860D01*
X367042Y163817D01*
X369027Y165340D01*
X370550Y167324D01*
X371507Y169635D01*
X371833Y172115D01*
X371507Y174595D01*
X370550Y176906D01*
X369027Y178890D01*
X367042Y180413D01*
X364731Y181371D01*
X362251Y181697D01*
X358251D01*
X355771Y181371D01*
X353780Y180546D01*
X326439Y207886D01*
X325447Y208549D01*
X324277Y208782D01*
X324276Y208782D01*
X308620D01*
X308620Y208782D01*
X307449Y208549D01*
X306457Y207886D01*
X304336Y205765D01*
X300842Y209259D01*
X293771Y216330D01*
X290942Y219158D01*
X286700Y223401D01*
X283164Y226937D01*
X276842Y233259D01*
X283524Y239941D01*
X287345D01*
X287712Y239575D01*
X289196Y238960D01*
X290804D01*
X292288Y239575D01*
X293425Y240711D01*
X294040Y242196D01*
Y243804D01*
X293425Y245289D01*
X292288Y246425D01*
X290804Y247040D01*
X289196D01*
X288235Y246642D01*
X287031Y246928D01*
X286238Y249727D01*
X293486Y256974D01*
X295575Y258061D01*
X296990Y256646D01*
X302647Y250990D01*
X305598Y253941D01*
X306733D01*
X352507Y208167D01*
X352629Y207867D01*
X352243Y204879D01*
X351476Y204291D01*
X349953Y202306D01*
X348996Y199995D01*
X348669Y197515D01*
X348996Y195035D01*
X349953Y192724D01*
X351476Y190740D01*
X353460Y189217D01*
X355771Y188260D01*
X358251Y187933D01*
X362251D01*
X363855Y188144D01*
X375989Y176010D01*
Y173404D01*
X374967D01*
Y164644D01*
X373927D01*
Y159574D01*
X380067D01*
X386207D01*
Y164644D01*
X385167D01*
Y173404D01*
X384146D01*
Y177699D01*
X384146Y177699D01*
X383835Y179260D01*
X382951Y180583D01*
X382951Y180583D01*
X370626Y192908D01*
X371507Y195035D01*
X371833Y197515D01*
X371641Y198974D01*
X380465Y207798D01*
X381681Y209618D01*
X382108Y211764D01*
Y308616D01*
X381681Y310762D01*
X380465Y312581D01*
X372218Y320829D01*
X372256Y320920D01*
X372582Y323400D01*
X372256Y325880D01*
X371298Y328191D01*
X369776Y330175D01*
X367791Y331698D01*
X365480Y332655D01*
X363000Y332982D01*
X359000D01*
X356520Y332655D01*
X354209Y331698D01*
X352225Y330175D01*
X350702Y328191D01*
X350614Y327978D01*
X346100D01*
Y329200D01*
X341468D01*
X336147Y334521D01*
X334824Y335405D01*
X333263Y335715D01*
X333263Y335715D01*
X308974D01*
X308781Y335677D01*
X308170D01*
X307606Y335443D01*
X307413Y335405D01*
X307249Y335296D01*
X306685Y335062D01*
X306253Y334630D01*
X306090Y334521D01*
X305980Y334357D01*
X305549Y333925D01*
X305315Y333361D01*
X305206Y333198D01*
X305167Y333005D01*
X304934Y332441D01*
Y331830D01*
X304895Y331637D01*
Y320703D01*
X303414Y318777D01*
X298344D01*
Y312637D01*
X297074D01*
Y311367D01*
X290734D01*
Y306497D01*
X290734Y306497D01*
X290734D01*
X290734Y306497D01*
X290026Y304250D01*
X288613D01*
X287505Y304471D01*
X287423D01*
X285013Y304783D01*
Y309853D01*
X278873D01*
Y311123D01*
X277603D01*
Y317463D01*
X272733D01*
X271059Y319310D01*
Y344767D01*
X273560Y344860D01*
Y344860D01*
X278630D01*
Y351000D01*
Y357140D01*
X273560D01*
X272569Y359269D01*
Y362151D01*
X272691Y362202D01*
X274675Y363725D01*
X276198Y365709D01*
X277155Y368020D01*
X277482Y370500D01*
Y374500D01*
X277155Y376980D01*
X276198Y379291D01*
X274675Y381275D01*
X272691Y382798D01*
X270380Y383755D01*
X267900Y384082D01*
D02*
G37*
G36*
X91233Y293321D02*
X88823D01*
X86496Y292698D01*
X84410Y291493D01*
X82706Y289789D01*
X81502Y287703D01*
X80878Y285376D01*
Y282967D01*
X81502Y280639D01*
X82706Y278553D01*
X84410Y276849D01*
X86496Y275645D01*
X88823Y275021D01*
X91233D01*
X93560Y275645D01*
X95646Y276849D01*
X97350Y278553D01*
X98554Y280639D01*
X99178Y282967D01*
Y285376D01*
X98554Y287703D01*
X97350Y289789D01*
X95646Y291493D01*
X93560Y292698D01*
X91233Y293321D01*
D02*
G37*
G36*
X100218Y268961D02*
X91298D01*
Y260041D01*
X100218D01*
Y268961D01*
D02*
G37*
G36*
X88758D02*
X79838D01*
Y260041D01*
X88758D01*
Y268961D01*
D02*
G37*
G36*
X192317Y260195D02*
X188732Y256610D01*
X192175Y253166D01*
X195760Y256751D01*
X192317Y260195D01*
D02*
G37*
G36*
X100218Y257501D02*
X91298D01*
Y248581D01*
X100218D01*
Y257501D01*
D02*
G37*
G36*
X88758D02*
X79838D01*
Y248581D01*
X88758D01*
Y257501D01*
D02*
G37*
G36*
X197556Y254955D02*
X193971Y251370D01*
X197415Y247927D01*
X201000Y251512D01*
X197556Y254955D01*
D02*
G37*
G36*
X53140Y248830D02*
X48270D01*
Y243760D01*
X53140D01*
Y248830D01*
D02*
G37*
G36*
X45730D02*
X40860D01*
Y243760D01*
X45730D01*
Y248830D01*
D02*
G37*
G36*
X37863Y246503D02*
X29312D01*
Y238960D01*
X37863D01*
Y246503D01*
D02*
G37*
G36*
X26772D02*
X18221D01*
Y238960D01*
X26772D01*
Y246503D01*
D02*
G37*
G36*
X26540Y234040D02*
X21270D01*
Y228770D01*
X26540D01*
Y234040D01*
D02*
G37*
G36*
X18730D02*
X13460D01*
Y228770D01*
X18730D01*
Y234040D01*
D02*
G37*
G36*
X26540Y226230D02*
X21270D01*
Y220960D01*
X26540D01*
Y226230D01*
D02*
G37*
G36*
X18730D02*
X13460D01*
Y220960D01*
X18730D01*
Y226230D01*
D02*
G37*
G36*
X298013Y177439D02*
X295213Y174639D01*
X294478Y175375D01*
X292519Y173416D01*
X298558Y167377D01*
X304596Y161338D01*
X306555Y163297D01*
X306555Y163297D01*
X306555Y163297D01*
X308854Y163774D01*
X310270D01*
X310270Y163774D01*
X311440Y164007D01*
X312433Y164670D01*
X313723Y165960D01*
X313804D01*
X315288Y166575D01*
X316425Y167712D01*
X317040Y169196D01*
Y170804D01*
X316425Y172288D01*
X315288Y173425D01*
X313804Y174040D01*
X312196D01*
X310711Y173425D01*
X309575Y172288D01*
X308960Y170804D01*
Y169891D01*
X305644D01*
X303358Y172178D01*
X303107Y172345D01*
X298013Y177439D01*
D02*
G37*
G36*
X51204Y140735D02*
X45184D01*
Y132215D01*
X51204D01*
Y140735D01*
D02*
G37*
G36*
X42644D02*
X36624D01*
Y132215D01*
X42644D01*
Y140735D01*
D02*
G37*
G36*
X386207Y157034D02*
X380067D01*
X373927D01*
Y151964D01*
X375989D01*
Y140820D01*
X367024Y131855D01*
X361521D01*
Y122585D01*
X372791D01*
Y126087D01*
X382951Y136247D01*
X382951Y136247D01*
X383835Y137570D01*
X384146Y139131D01*
Y151964D01*
X386207D01*
Y157034D01*
D02*
G37*
G36*
X358982Y131855D02*
X347711D01*
Y122585D01*
X358982D01*
Y131855D01*
D02*
G37*
G36*
X115440Y119690D02*
X109470D01*
Y111270D01*
X115440D01*
Y119690D01*
D02*
G37*
G36*
X372791Y120045D02*
X361521D01*
Y110775D01*
X372791D01*
Y120045D01*
D02*
G37*
G36*
X358982D02*
X347711D01*
Y110775D01*
X358982D01*
Y120045D01*
D02*
G37*
G36*
X48556Y111743D02*
X42586D01*
Y103323D01*
X48556D01*
Y111743D01*
D02*
G37*
G36*
X115440Y108730D02*
X109470D01*
Y100310D01*
X115440D01*
Y108730D01*
D02*
G37*
G36*
X96000Y141624D02*
X83000D01*
X81852Y141148D01*
X81376Y140000D01*
Y119365D01*
X80852Y119148D01*
X80376Y118000D01*
Y100673D01*
X80328Y100624D01*
X65000D01*
X63852Y100148D01*
X25852Y62148D01*
X25376Y61000D01*
Y36000D01*
X25852Y34852D01*
X27000Y34376D01*
X46328D01*
X46709Y33994D01*
X46852Y33852D01*
X46852D01*
X47366Y33639D01*
X47859Y33382D01*
X47931Y33405D01*
X48000Y33376D01*
X48514Y33589D01*
X49044Y33757D01*
X49079Y33823D01*
X49148Y33852D01*
X49361Y34366D01*
X49618Y34859D01*
X49618Y34859D01*
X49635Y35060D01*
X51566Y57270D01*
X57797Y63500D01*
X88308Y69406D01*
X88546Y69563D01*
X88828Y69603D01*
X89044Y69892D01*
X89345Y70091D01*
X89402Y70370D01*
X89573Y70598D01*
X97440Y101350D01*
X98000D01*
Y102720D01*
X98420Y103212D01*
X100960Y102275D01*
Y100310D01*
X106930D01*
Y110000D01*
Y119690D01*
X100960D01*
X100960Y119690D01*
Y119690D01*
X98708Y120759D01*
X97624Y121576D01*
Y140000D01*
X97148Y141148D01*
X96000Y141624D01*
D02*
G37*
G36*
X311546Y134957D02*
X309066Y134630D01*
X306755Y133673D01*
X304771Y132150D01*
X303248Y130166D01*
X302291Y127855D01*
X301964Y125375D01*
X302291Y122895D01*
X303248Y120584D01*
X304771Y118599D01*
X307599Y115771D01*
X309584Y114248D01*
X310296Y113953D01*
Y99040D01*
X305008Y93751D01*
X304285Y94473D01*
X298091Y88279D01*
X297355Y89015D01*
X293771Y85430D01*
X298112Y81088D01*
X302454Y76746D01*
X306039Y80331D01*
X305303Y81067D01*
X311498Y87261D01*
X310775Y87984D01*
X317258Y94467D01*
X317259Y94467D01*
X318143Y95790D01*
X318453Y97351D01*
Y113953D01*
X319166Y114248D01*
X321150Y115771D01*
X322673Y117755D01*
X323630Y120066D01*
X323957Y122546D01*
X323630Y125026D01*
X322673Y127337D01*
X321150Y129322D01*
X318322Y132150D01*
X316337Y133673D01*
X314026Y134630D01*
X311546Y134957D01*
D02*
G37*
G36*
X257665Y86399D02*
X251110Y79844D01*
X259079Y71875D01*
X265634Y78430D01*
X257665Y86399D01*
D02*
G37*
G36*
X249314Y78048D02*
X242759Y71493D01*
X250728Y63524D01*
X257283Y70079D01*
X249314Y78048D01*
D02*
G37*
G36*
X259079Y68283D02*
X252524Y61728D01*
X260493Y53759D01*
X267048Y60314D01*
X259079Y68283D01*
D02*
G37*
G36*
X125340Y60540D02*
X116070D01*
Y49270D01*
X125340D01*
Y60540D01*
D02*
G37*
G36*
X113530D02*
X104260D01*
Y49270D01*
X113530D01*
Y60540D01*
D02*
G37*
G36*
X354730Y75548D02*
X350502Y75216D01*
X345139Y73928D01*
X340043Y71817D01*
X335340Y68936D01*
X331146Y65354D01*
X327564Y61160D01*
X324683Y56457D01*
X322572Y51361D01*
X321284Y45998D01*
X320852Y40500D01*
Y39270D01*
X354730D01*
Y75548D01*
D02*
G37*
G36*
X89400Y59582D02*
X86920Y59255D01*
X84609Y58298D01*
X82625Y56775D01*
X81102Y54791D01*
X80145Y52480D01*
X79818Y50000D01*
Y46000D01*
X80145Y43520D01*
X81102Y41209D01*
X82625Y39225D01*
X84609Y37702D01*
X86920Y36744D01*
X89400Y36418D01*
X91880Y36744D01*
X94191Y37702D01*
X96175Y39225D01*
X97698Y41209D01*
X98656Y43520D01*
X98982Y46000D01*
Y50000D01*
X98656Y52480D01*
X97698Y54791D01*
X96175Y56775D01*
X94191Y58298D01*
X91880Y59255D01*
X89400Y59582D01*
D02*
G37*
G36*
X64000D02*
X61520Y59255D01*
X59209Y58298D01*
X57224Y56775D01*
X55702Y54791D01*
X54745Y52480D01*
X54418Y50000D01*
Y46000D01*
X54745Y43520D01*
X55702Y41209D01*
X57224Y39225D01*
X59209Y37702D01*
X61520Y36744D01*
X64000Y36418D01*
X66480Y36744D01*
X68791Y37702D01*
X70775Y39225D01*
X72298Y41209D01*
X73256Y43520D01*
X73582Y46000D01*
Y50000D01*
X73256Y52480D01*
X72298Y54791D01*
X70775Y56775D01*
X68791Y58298D01*
X66480Y59255D01*
X64000Y59582D01*
D02*
G37*
G36*
X125340Y46730D02*
X116070D01*
Y35460D01*
X125340D01*
Y46730D01*
D02*
G37*
G36*
X113530D02*
X104260D01*
Y35460D01*
X113530D01*
Y46730D01*
D02*
G37*
%LPD*%
G36*
X335900Y323232D02*
Y320440D01*
X334860D01*
Y315370D01*
X341000D01*
Y312830D01*
X334860D01*
Y307760D01*
X340651D01*
X348607Y299805D01*
X348536Y299270D01*
X361000D01*
Y298000D01*
X362270D01*
Y287369D01*
X363000D01*
X365751Y287731D01*
X368316Y288793D01*
X368352Y288822D01*
X370892Y287569D01*
Y281720D01*
X368352Y280467D01*
X367791Y280898D01*
X365480Y281855D01*
X363000Y282182D01*
X359000D01*
X356520Y281855D01*
X354209Y280898D01*
X352225Y279375D01*
X350702Y277391D01*
X349744Y275080D01*
X349418Y272600D01*
X349744Y270120D01*
X350702Y267809D01*
X352225Y265825D01*
X354209Y264302D01*
X356520Y263344D01*
X359000Y263018D01*
X363000D01*
X365480Y263344D01*
X367791Y264302D01*
X368352Y264732D01*
X370892Y263480D01*
Y256700D01*
X354796D01*
X354500Y256759D01*
X354500Y256759D01*
X353567D01*
X343738Y266588D01*
X342746Y267250D01*
X341575Y267483D01*
X341575Y267483D01*
X306986D01*
X306014Y269830D01*
X307163Y270979D01*
X307826Y271972D01*
X308059Y273142D01*
X308059Y273142D01*
Y282710D01*
X310360D01*
Y286500D01*
X311630D01*
Y287770D01*
X316545D01*
Y290290D01*
X315505D01*
Y293750D01*
Y304250D01*
X308309D01*
Y307537D01*
X312174D01*
Y312326D01*
X312742Y313176D01*
X313052Y314737D01*
Y327559D01*
X331574D01*
X335900Y323232D01*
D02*
G37*
G36*
X289750Y273614D02*
X291193Y272634D01*
X291575Y271712D01*
X292712Y270575D01*
X293046Y270437D01*
X293802Y267660D01*
X293790Y267589D01*
X289918Y263717D01*
X290748Y262888D01*
X268980Y241120D01*
X266235Y243866D01*
X270163Y247794D01*
X270826Y248786D01*
X271059Y249956D01*
X271059Y249957D01*
Y271720D01*
X271369Y272068D01*
X273599Y273208D01*
X274196Y272960D01*
X275804D01*
X277288Y273575D01*
X277655Y273941D01*
X287755D01*
X287755Y273941D01*
X288420Y274074D01*
X289750Y273614D01*
D02*
G37*
G36*
X250606Y281988D02*
X250796Y281300D01*
X251459Y280308D01*
X251459Y280307D01*
X251817Y279950D01*
X251817Y279950D01*
X251889Y279878D01*
X260441Y271325D01*
Y265822D01*
X258270Y264266D01*
Y259000D01*
X255730D01*
Y263972D01*
X254122Y263307D01*
X252693Y261878D01*
X252290Y260905D01*
X251344Y258757D01*
Y258757D01*
X246250Y253662D01*
X245999Y253495D01*
X245999Y253495D01*
X242392Y249888D01*
X239406Y250008D01*
X238519Y251094D01*
Y266193D01*
X243286Y270960D01*
X243804D01*
X245289Y271575D01*
X246425Y272712D01*
X247040Y274196D01*
Y275804D01*
X246425Y277288D01*
X245289Y278425D01*
X243974Y278970D01*
X243656Y279952D01*
X243393Y281580D01*
X243816Y281988D01*
X250606D01*
X250606Y281988D01*
D02*
G37*
G36*
X154712Y278575D02*
X156119Y277992D01*
X157952Y276159D01*
Y273498D01*
X153940Y269486D01*
X163132Y260294D01*
X164302Y261464D01*
X179679Y246087D01*
X177892Y244299D01*
X185104Y237087D01*
X186237Y238220D01*
X191199Y233259D01*
X188499Y230560D01*
X186254Y230913D01*
X185972Y231027D01*
X185626Y231279D01*
X185163Y231972D01*
X185163Y231972D01*
X161525Y255610D01*
X161525Y255610D01*
X151059Y266076D01*
Y279149D01*
X153461Y279686D01*
X153599Y279688D01*
X154712Y278575D01*
D02*
G37*
G36*
X349500Y252174D02*
Y237700D01*
X370892D01*
Y214086D01*
X363711Y206905D01*
X362321Y207088D01*
X360088Y207971D01*
X359855Y209141D01*
X359192Y210133D01*
X310500Y258826D01*
X310755Y260187D01*
X311438Y261366D01*
X340308D01*
X349500Y252174D01*
D02*
G37*
G36*
X110000Y216000D02*
Y204000D01*
X57000D01*
Y229000D01*
X97000D01*
X110000Y216000D01*
D02*
G37*
G36*
X73000Y105000D02*
X59000D01*
Y131000D01*
X63000Y135000D01*
X73000D01*
Y105000D01*
D02*
G37*
%LPC*%
G36*
X359730Y296730D02*
X348536D01*
X348731Y295249D01*
X349793Y292684D01*
X351483Y290483D01*
X353685Y288793D01*
X356249Y287731D01*
X359000Y287369D01*
X359730D01*
Y296730D01*
D02*
G37*
G36*
X316545Y285230D02*
X312900D01*
Y282710D01*
X316545D01*
Y285230D01*
D02*
G37*
%LPD*%
G36*
X101000Y116000D02*
X99000Y114000D01*
X88000Y71000D01*
X57000Y65000D01*
X50000Y58000D01*
X48000Y35000D01*
X47000Y36000D01*
X27000D01*
Y61000D01*
X65000Y99000D01*
X81000D01*
X82000Y100000D01*
Y118000D01*
X99000D01*
X101000Y116000D01*
D02*
G37*
D15*
X278873Y301323D02*
D03*
Y311123D02*
D03*
X341000Y323900D02*
D03*
Y314100D02*
D03*
X380067Y168104D02*
D03*
Y158304D02*
D03*
X47000Y259900D02*
D03*
Y250100D02*
D03*
D16*
X311630Y286500D02*
D03*
Y291500D02*
D03*
Y296500D02*
D03*
Y301500D02*
D03*
X288380D02*
D03*
Y296500D02*
D03*
Y291500D02*
D03*
Y286500D02*
D03*
D17*
X305000Y303130D02*
D03*
X300000D02*
D03*
X295000D02*
D03*
Y284870D02*
D03*
X300000D02*
D03*
X305000D02*
D03*
D18*
X306874Y312637D02*
D03*
X297074D02*
D03*
X270100Y351000D02*
D03*
X279900D02*
D03*
X252460Y350866D02*
D03*
X242660D02*
D03*
D19*
X303000Y257000D02*
D03*
X295929Y264071D02*
D03*
D20*
X248162Y251332D02*
D03*
X173916Y162943D02*
D03*
X219878Y116982D02*
D03*
X301195Y198299D02*
D03*
X269375Y230119D02*
D03*
X251698Y247796D02*
D03*
X216342Y120517D02*
D03*
X170380Y166479D02*
D03*
X166845Y170015D02*
D03*
X177451Y159408D02*
D03*
X180987Y155872D02*
D03*
X184523Y152337D02*
D03*
X188058Y148801D02*
D03*
X191594Y145266D02*
D03*
X195129Y141730D02*
D03*
X198665Y138195D02*
D03*
X202200Y134659D02*
D03*
X205736Y131124D02*
D03*
X209271Y127588D02*
D03*
X212807Y124053D02*
D03*
X297660Y201834D02*
D03*
X294124Y205370D02*
D03*
X290589Y208906D02*
D03*
X287053Y212441D02*
D03*
X283517Y215977D02*
D03*
X279982Y219512D02*
D03*
X276446Y223048D02*
D03*
X272911Y226583D02*
D03*
X265840Y233654D02*
D03*
X262304Y237190D02*
D03*
X258769Y240725D02*
D03*
X255233Y244261D02*
D03*
D21*
X304144Y87120D02*
D03*
X185245Y244441D02*
D03*
X192175Y251370D02*
D03*
X297214Y80190D02*
D03*
D22*
X301195Y170015D02*
D03*
X219878Y251332D02*
D03*
X297660Y166479D02*
D03*
X180987Y212441D02*
D03*
X177451Y208906D02*
D03*
X216342Y247796D02*
D03*
X212807Y244261D02*
D03*
X209271Y240725D02*
D03*
X205736Y237190D02*
D03*
X202200Y233654D02*
D03*
X198665Y230119D02*
D03*
X195129Y226583D02*
D03*
X191594Y223048D02*
D03*
X188058Y219512D02*
D03*
X184523Y215977D02*
D03*
X173916Y205370D02*
D03*
X170380Y201834D02*
D03*
X166845Y198299D02*
D03*
X248162Y116982D02*
D03*
X251698Y120517D02*
D03*
X255233Y124053D02*
D03*
X258769Y127588D02*
D03*
X262304Y131124D02*
D03*
X265840Y134659D02*
D03*
X269375Y138195D02*
D03*
X272911Y141730D02*
D03*
X276446Y145266D02*
D03*
X279982Y148801D02*
D03*
X294124Y162943D02*
D03*
X287053Y155872D02*
D03*
X290589Y159408D02*
D03*
X283517Y152337D02*
D03*
D23*
X28042Y264289D02*
D03*
Y247773D02*
D03*
D24*
X62516Y230029D02*
D03*
X47516D02*
D03*
D25*
X143097Y221293D02*
D03*
X151244Y213146D02*
D03*
D26*
X66814Y196945D02*
D03*
D27*
Y130945D02*
D03*
X43914Y130945D02*
D03*
X89714D02*
D03*
D28*
X66226Y113013D02*
D03*
X49826D02*
D03*
X91800Y110000D02*
D03*
X108200D02*
D03*
D29*
X162112Y225739D02*
D03*
X167466Y231093D02*
D03*
D30*
X119645Y310852D02*
D03*
X162072Y268426D02*
D03*
X145808Y337015D02*
D03*
X188235Y294589D02*
D03*
D31*
X225000Y302500D02*
D03*
Y287500D02*
D03*
X244106Y287488D02*
D03*
Y302488D02*
D03*
D32*
X225000Y332500D02*
D03*
X244500D02*
D03*
Y317500D02*
D03*
X225000D02*
D03*
D33*
X20000Y227500D02*
D03*
X35000D02*
D03*
D55*
X361000Y323400D02*
X361716D01*
X376500Y308616D01*
Y211764D02*
Y308616D01*
X362251Y197515D02*
X376500Y211764D01*
X360251Y197515D02*
X362251D01*
D56*
X308620Y205723D02*
X324277D01*
X357885Y172115D02*
X360251D01*
X324277Y205723D02*
X357885Y172115D01*
X275000Y277563D02*
X277000Y279563D01*
Y299450D02*
X278781Y301231D01*
X277000Y279563D02*
Y299450D01*
X275000Y277000D02*
Y277563D01*
X352300Y253700D02*
X354500D01*
X296283Y264425D02*
X341575D01*
X354500Y253700D02*
X361000Y247200D01*
X341575Y264425D02*
X352300Y253700D01*
X295929Y264071D02*
X296283Y264425D01*
X305000Y273142D01*
X287755Y277000D02*
X294750Y283995D01*
X275000Y277000D02*
X287755D01*
X295000Y274000D02*
X300000Y279000D01*
Y284870D01*
X297074Y312637D02*
X297274D01*
X300000Y309911D01*
Y303130D02*
Y309911D01*
X295250Y310813D02*
X297074Y312637D01*
X295250Y303380D02*
Y310813D01*
X295000Y303130D02*
X295250Y303380D01*
X304750Y314737D02*
X306850Y312637D01*
X306874D01*
X305250Y303380D02*
Y310913D01*
X305000Y303130D02*
X305250Y303380D01*
X268000Y249956D02*
Y348900D01*
X263500Y252528D02*
Y272592D01*
X253622Y282470D02*
X263500Y272592D01*
X258769Y240725D02*
X268000Y249956D01*
X244960Y345040D02*
X253622Y336378D01*
X268000Y348900D02*
X270100Y351000D01*
X253622Y282470D02*
Y336378D01*
X305000Y273142D02*
Y284870D01*
X278961Y301412D02*
X287505D01*
X255233Y244261D02*
X263500Y252528D01*
X164272Y154398D02*
X164602D01*
X357029Y200737D02*
X360126Y197641D01*
X308000Y257000D02*
X357029Y207971D01*
Y200737D02*
Y207971D01*
X305121Y257000D02*
X308000D01*
X358536Y145000D02*
X360251Y146715D01*
X312068Y145000D02*
X358536D01*
X294124Y162943D02*
X312068Y145000D01*
X304768Y257353D02*
X305121Y257000D01*
X303354Y257353D02*
X304768D01*
X303000Y257000D02*
X303354Y257353D01*
X301195Y198299D02*
X308620Y205723D01*
X248162Y251332D02*
X248162D01*
X241398Y245398D02*
X242228D01*
X248162Y251332D01*
X241000Y245000D02*
X241398Y245398D01*
X227602D02*
X228000Y245000D01*
X313000Y169563D02*
Y170000D01*
X310270Y166833D02*
X313000Y169563D01*
X304377Y166833D02*
X310270D01*
X301195Y170015D02*
X304377Y166833D01*
X225812Y245398D02*
X227602D01*
X219878Y251332D02*
X219878D01*
X225812Y245398D01*
X173916Y162943D02*
Y162943D01*
X169978Y159005D02*
X173916Y162943D01*
X169978Y158978D02*
Y159005D01*
X165000Y154000D02*
X169978Y158978D01*
X164602Y154398D02*
X165000Y154000D01*
X212000Y109000D02*
Y109104D01*
X219878Y116982D01*
X117000Y200000D02*
Y204122D01*
X162224Y154776D02*
X163874D01*
X164272Y154378D01*
X117000Y200000D02*
X162224Y154776D01*
X275625Y89454D02*
X277040Y88040D01*
X275625Y89454D02*
Y111283D01*
X287407Y123065D01*
Y141377D01*
X279982Y148801D02*
X287407Y141377D01*
X293586Y107414D02*
X295000Y106000D01*
X293586Y107414D02*
Y142269D01*
X283527Y152328D02*
X293586Y142269D01*
X283527Y152328D02*
Y152328D01*
X282257Y243000D02*
X290000D01*
X269375Y230119D02*
X282257Y243000D01*
X265840Y233654D02*
X295929Y263743D01*
Y264071D01*
X148000Y264809D02*
Y320000D01*
X133029Y334971D02*
X148000Y320000D01*
X75278Y320221D02*
X139521D01*
X143500Y316243D01*
Y262945D02*
Y316243D01*
X159362Y253447D02*
X183000Y229809D01*
X143500Y262945D02*
X168860Y237586D01*
X168860D01*
X173958Y232487D01*
X148000Y264809D02*
X159362Y253447D01*
X159362D01*
X161011Y269081D02*
X185245Y244846D01*
X127500Y302500D02*
Y302749D01*
X119645Y310603D02*
X127500Y302749D01*
X119645Y310603D02*
Y310852D01*
X185245Y244441D02*
Y244846D01*
X157000Y281437D02*
Y282000D01*
Y281437D02*
X161011Y277426D01*
Y269081D02*
Y277426D01*
X108000Y186000D02*
X171180Y122820D01*
X204503D01*
X242500Y349743D02*
Y372500D01*
Y349743D02*
X243983D01*
X256602Y258602D02*
X257000Y259000D01*
X256602Y252701D02*
Y258602D01*
X251698Y247796D02*
X256602Y252701D01*
X251698Y247796D02*
Y247796D01*
X180987Y212441D02*
X180987D01*
X186030Y207398D02*
X190602D01*
X191000Y207000D01*
X180987Y212441D02*
X186030Y207398D01*
X163224Y223133D02*
X184959Y201398D01*
X255233Y244261D02*
Y244261D01*
X184959Y201398D02*
X185602D01*
X186000Y201000D01*
X75457Y295000D02*
X90028Y309571D01*
X40000Y295000D02*
X75457D01*
X64628Y309571D02*
X75278Y320221D01*
X90028Y334971D02*
X133029D01*
X173958Y226541D02*
X184523Y215977D01*
X173958Y226541D02*
Y232487D01*
X188058Y219512D02*
Y219512D01*
X183000Y224570D02*
X188058Y219512D01*
X183000Y224570D02*
Y229809D01*
X170380Y201834D02*
X177602Y194613D01*
Y192398D02*
X178000Y192000D01*
X177602Y192398D02*
Y194613D01*
X235460Y165039D02*
Y267460D01*
X243000Y275000D01*
X200314Y221398D02*
X205121D01*
X205519Y221000D01*
X257500Y219000D02*
X266961Y209539D01*
X185245Y243538D02*
X198665Y230119D01*
X185245Y243538D02*
Y244441D01*
X199181Y215460D02*
X211897D01*
X212437Y216000D01*
X213000D01*
X166684Y212602D02*
X173916Y205370D01*
X170380Y201834D02*
Y201834D01*
X195129Y226583D02*
X195129D01*
X200314Y221398D01*
X235460Y165039D02*
X265840Y134659D01*
X173916Y205370D02*
X173916D01*
X191594Y223048D02*
X199181Y215460D01*
X204503Y122820D02*
X209271Y127588D01*
X209271D01*
X257500Y219000D02*
Y232385D01*
X262304Y237190D01*
Y237190D01*
X160000Y194000D02*
X165572Y199572D01*
X166845Y198299D01*
X164398Y212602D02*
X166684D01*
X164000Y213000D02*
X164398Y212602D01*
X266961Y209539D02*
Y209539D01*
Y209539D02*
X272500Y204000D01*
X244960Y345040D02*
Y348766D01*
X243983Y349743D02*
X244960Y348766D01*
X205872Y272000D02*
X227618D01*
X243106Y287488D01*
X244106D01*
X224000Y287500D02*
X225000D01*
X216500Y280000D02*
X224000Y287500D01*
X205000Y280000D02*
X216500D01*
X205519Y271647D02*
X205872Y272000D01*
X35000Y227500D02*
X37529Y230029D01*
X47516D01*
X244500Y302882D02*
Y317500D01*
X244106Y302488D02*
X244500Y302882D01*
X225000Y302500D02*
Y317500D01*
D57*
X341000Y323900D02*
Y324100D01*
X339900Y325200D02*
X341000Y324100D01*
X339700Y325200D02*
X339900D01*
X333263Y331637D02*
X339700Y325200D01*
X308974Y331637D02*
X333263D01*
X341000Y323900D02*
X362065D01*
X361000Y323400D02*
X363000D01*
X308974Y314737D02*
Y331637D01*
X308174Y313937D02*
X308974Y314737D01*
X308174Y313737D02*
Y313937D01*
X307074Y312637D02*
X308174Y313737D01*
X306874Y312637D02*
X307074D01*
X117000Y204122D02*
X125926D01*
X114586D02*
X117000D01*
X360251Y197515D02*
X380067Y177699D01*
Y168304D02*
Y177699D01*
Y139131D02*
Y158304D01*
X362251Y121315D02*
X380067Y139131D01*
X360251Y121315D02*
X362251D01*
X304144Y87120D02*
X314375Y97351D01*
Y122546D01*
X312960Y123961D02*
X314375Y122546D01*
X31815Y260516D02*
X35284D01*
X28042Y264289D02*
X31815Y260516D01*
X47000Y259871D02*
Y259900D01*
X35284Y260516D02*
X35900Y259900D01*
X63572Y257715D02*
X64628Y258771D01*
X62516Y230029D02*
X63714Y228831D01*
X63572Y231085D02*
Y257715D01*
X63714Y228831D02*
X89878D01*
X47000Y259871D02*
X48100Y258771D01*
X64628D01*
X35900Y259900D02*
X47000D01*
X62516Y230029D02*
X63572Y231085D01*
X109000Y209708D02*
X114586Y204122D01*
X109000Y209708D02*
Y212000D01*
X125926Y204122D02*
X143097Y221293D01*
X89878Y228831D02*
X107854Y210854D01*
X109000Y212000D02*
X119985Y222985D01*
X68426Y117663D02*
X70876D01*
X66226Y113013D02*
Y115463D01*
X68426Y117663D01*
X286925Y68665D02*
X297214Y78953D01*
Y80190D01*
X260493Y68665D02*
X286925D01*
X259079Y70079D02*
X260493Y68665D01*
X162112Y225739D02*
X162155Y225696D01*
Y224057D02*
Y225696D01*
X151244Y213146D02*
X162155Y224057D01*
D58*
X341000Y313900D02*
Y314100D01*
Y313900D02*
X356900Y298000D01*
X361000D01*
X108200Y110000D02*
Y112450D01*
D59*
X267900Y372500D02*
X269000Y371400D01*
Y352100D02*
Y371400D01*
Y352100D02*
X270100Y351000D01*
D60*
X83500Y202000D02*
D03*
D61*
X68000Y162000D02*
D03*
D62*
X89500Y122000D02*
D03*
D63*
X361000Y247200D02*
D03*
X360251Y121315D02*
D03*
D64*
X361000Y272600D02*
D03*
Y298000D02*
D03*
Y323400D02*
D03*
X360251Y146715D02*
D03*
Y172115D02*
D03*
Y197515D02*
D03*
D65*
X312960Y123961D02*
D03*
X277040Y88040D02*
D03*
X295000Y106000D02*
D03*
D66*
X64628Y258771D02*
D03*
X90028Y284171D02*
D03*
X64628Y334971D02*
D03*
X90028D02*
D03*
X64628Y309571D02*
D03*
X90028D02*
D03*
X64628Y284171D02*
D03*
D67*
X114800Y48000D02*
D03*
X293300Y372500D02*
D03*
D68*
X89400Y48000D02*
D03*
X64000D02*
D03*
X38600D02*
D03*
X267900Y372500D02*
D03*
X242500D02*
D03*
X217100D02*
D03*
D69*
X356000Y378000D02*
D03*
X33000Y380000D02*
D03*
X356000Y38000D02*
D03*
D70*
X259079Y70079D02*
D03*
D71*
X90028Y258771D02*
D03*
D72*
X275000Y277000D02*
D03*
X295000Y274000D02*
D03*
X308974Y331637D02*
D03*
X241000Y245000D02*
D03*
X313000Y170000D02*
D03*
X228000Y245000D02*
D03*
X120000Y223000D02*
D03*
X164272Y154378D02*
D03*
X212000Y109000D02*
D03*
X290000Y243000D02*
D03*
X108000Y186000D02*
D03*
X257000Y259000D02*
D03*
X191000Y207000D02*
D03*
X157000Y282000D02*
D03*
X186000Y201000D02*
D03*
X127500Y302500D02*
D03*
X40000Y295000D02*
D03*
X272500Y204000D02*
D03*
X160000Y194000D02*
D03*
X243000Y275000D02*
D03*
X205519Y221000D02*
D03*
X205000Y280000D02*
D03*
X205519Y271647D02*
D03*
X213000Y216000D02*
D03*
X164000Y213000D02*
D03*
X178000Y192000D02*
D03*
M02*
